<?xml version="1.0" encoding="utf-8"?>
<!-- Generator: Adobe Illustrator 24.0.1, SVG Export Plug-In . SVG Version: 6.00 Build 0)  -->
<svg version="1.1" id="Capa_1" xmlns="http://www.w3.org/2000/svg" xmlns:xlink="http://www.w3.org/1999/xlink" x="0px" y="0px"
	 viewBox="0 0 60 60" style="enable-background:new 0 0 60 60;" xml:space="preserve">
<style type="text/css">
	.st0{fill-rule:evenodd;clip-rule:evenodd;fill:#FFFFFF;}
</style>
<g>
	<path class="st0" d="M21.4,18.5H11.3c-0.5,0-1,0.4-1,1s0.4,1,1,1h10.1c0.5,0,1-0.4,1-1S21.9,18.5,21.4,18.5z"/>
	<path class="st0" d="M25.5,20.4c0.3,0,0.5-0.1,0.7-0.3c0.2-0.2,0.3-0.4,0.3-0.7c0-0.3-0.1-0.5-0.3-0.7c-0.2-0.2-0.4-0.3-0.7-0.3
		c-0.3,0-0.5,0.1-0.7,0.3c-0.2,0.2-0.3,0.4-0.3,0.7c0,0.3,0.1,0.5,0.3,0.7C25,20.3,25.3,20.4,25.5,20.4z"/>
	<path class="st0" d="M21,24.3h-9.8c-0.5,0-1,0.4-1,1c0,0.5,0.4,1,1,1H21c0.5,0,1-0.4,1-1C22,24.8,21.6,24.3,21,24.3z"/>
	<path class="st0" d="M21,30.2h-9.8c-0.5,0-1,0.4-1,1c0,0.5,0.4,1,1,1H21c0.5,0,1-0.4,1-1C22,30.6,21.6,30.2,21,30.2z"/>
	<path class="st0" d="M11.3,10.5c0.3,0,0.5-0.1,0.7-0.3c0.2-0.2,0.3-0.4,0.3-0.7c0-0.3-0.1-0.5-0.3-0.7c-0.2-0.2-0.4-0.3-0.7-0.3
		c-0.3,0-0.5,0.1-0.7,0.3c-0.2,0.2-0.3,0.4-0.3,0.7c0,0.3,0.1,0.5,0.3,0.7C10.7,10.4,11,10.5,11.3,10.5z"/>
	<path class="st0" d="M15.3,10.5c0.3,0,0.5-0.1,0.7-0.3c0.2-0.2,0.3-0.4,0.3-0.7c0-0.3-0.1-0.5-0.3-0.7c-0.2-0.2-0.4-0.3-0.7-0.3
		c-0.3,0-0.5,0.1-0.7,0.3c-0.2,0.2-0.3,0.4-0.3,0.7c0,0.3,0.1,0.5,0.3,0.7C14.8,10.4,15.1,10.5,15.3,10.5z"/>
	<path class="st0" d="M19.4,10.5c0.3,0,0.5-0.1,0.7-0.3c0.2-0.2,0.3-0.4,0.3-0.7c0-0.3-0.1-0.5-0.3-0.7c-0.2-0.2-0.4-0.3-0.7-0.3
		c-0.3,0-0.5,0.1-0.7,0.3c-0.2,0.2-0.3,0.4-0.3,0.7c0,0.3,0.1,0.5,0.3,0.7C18.9,10.4,19.1,10.5,19.4,10.5z"/>
	<path class="st0" d="M25.5,10.5h14.8c0.5,0,1-0.4,1-1c0-0.5-0.4-1-1-1H25.5c-0.5,0-1,0.4-1,1C24.5,10,25,10.5,25.5,10.5z"/>
	<path class="st0" d="M35.3,41.9c-3.7,0-6.7-3-6.7-6.6c0-3.7,3-6.6,6.7-6.6c3.7,0,6.6,3,6.6,6.6C41.9,38.9,38.9,41.9,35.3,41.9z
		 M35.3,26.7c-4.7,0-8.6,3.9-8.6,8.6c0,4.7,3.9,8.6,8.6,8.6c4.7,0,8.6-3.9,8.6-8.6C43.9,30.5,40,26.7,35.3,26.7z"/>
	<path class="st0" d="M52.7,52.7c-0.5,0.5-1.4,0.5-1.9,0l-7.5-7.5c0.7-0.6,1.3-1.2,1.9-1.9l7.5,7.5c0.3,0.3,0.4,0.6,0.4,1
		S52.9,52.4,52.7,52.7z M24.5,35.3c0-5.9,4.8-10.7,10.7-10.7c5.9,0,10.7,4.8,10.7,10.7C46,41.2,41.2,46,35.3,46
		C29.3,46,24.5,41.2,24.5,35.3z M8.3,39c-0.8,0-1.4-0.6-1.4-1.4V14h37.1v12.1c-2.3-2.2-5.4-3.5-8.8-3.5c-7,0-12.7,5.7-12.7,12.7
		c0,1.3,0.2,2.5,0.6,3.7H8.3z M8.3,6.9h34.4c0.8,0,1.4,0.6,1.4,1.4V12H6.9V8.3C6.9,7.6,7.6,6.9,8.3,6.9z M54,49.3l-7.7-7.7
		c1.1-1.9,1.7-4,1.7-6.3c0-2.5-0.7-4.8-2-6.8V8.3C46,6.5,44.5,5,42.7,5H8.3C6.5,5,5,6.5,5,8.3v29.3c0,1.8,1.5,3.3,3.3,3.3h15.6
		c2.1,4.2,6.4,7,11.4,7c2.3,0,4.5-0.6,6.3-1.7l7.7,7.7c0.6,0.7,1.5,1,2.3,1c0.8,0,1.7-0.3,2.3-1c0.6-0.6,1-1.5,1-2.3
		C55,50.8,54.7,50,54,49.3z"/>
	<path class="st0" d="M35.3,30.9c-0.5,0-1,0.4-1,1c0,0.5,0.4,1,1,1c1.3,0,2.4,1.1,2.4,2.4c0,0.5,0.4,1,1,1c0.5,0,1-0.4,1-1
		C39.7,32.9,37.7,30.9,35.3,30.9L35.3,30.9z"/>
</g>
</svg>
