<?xml version="1.0" encoding="utf-8"?>
<!-- Generator: Adobe Illustrator 24.0.1, SVG Export Plug-In . SVG Version: 6.00 Build 0)  -->
<svg version="1.1" id="Capa_1" xmlns="http://www.w3.org/2000/svg" xmlns:xlink="http://www.w3.org/1999/xlink" x="0px" y="0px"
	 viewBox="0 0 70 50" style="enable-background:new 0 0 70 50;" xml:space="preserve">
<style type="text/css">
	.st0{fill-rule:evenodd;clip-rule:evenodd;fill:#BADDEE;}
</style>
<g>
	<g>
		<path class="st0" d="M61,22.5c-2.3-1.2-6.7-1.2-6.8-1.2c-0.5,0-1,0.5-1,1c0,0.5,0.5,1,1,1c1.1,0,4.4,0.2,5.9,1
			c0.1,0.1,0.3,0.1,0.4,0.1c0.4,0,0.7-0.2,0.9-0.6C61.7,23.3,61.5,22.8,61,22.5z"/>
	</g>
	<path class="st0" d="M61.1,31.5c-1.1,1-2.5,1.6-3.9,1.5C54.3,33,52,30.4,52,27.4v-1.9c0-0.2,0-0.3-0.1-0.4l-0.6-1.2
		c-0.2-0.5-0.3-1-0.3-1.5v-0.1c0-2.4,1.9-4.3,4.3-4.3h8.6v4.1c0,0.7-0.2,1.3-0.5,1.9l-0.5,1c-0.1,0.1-0.1,0.3-0.1,0.4v2.1
		C62.7,29.1,62.2,30.5,61.1,31.5z M57.3,38l-2.3-2.3c0-0.2,0.1-0.4,0.1-0.6v-0.4c0.6,0.2,1.3,0.3,2,0.4h0.2c0.7,0,1.5-0.1,2.2-0.3
		v0.4c0,0.2,0,0.4,0.1,0.6L57.3,38z M39.2,38.8C39.2,38.8,39.1,38.9,39.2,38.8c-0.1,0-0.1,0-0.1,0l-2.5-2.5l4.7-3.2l1,1L39.2,38.8z
		 M35,35l-5.4-3.7v-1.9c1.4,0.7,3,1.2,4.6,1.3c0.3,0,0.5,0,0.8,0c1.9,0,3.7-0.5,5.4-1.3v1.8L35,35z M31,38.8
		C31,38.9,30.9,38.9,31,38.8c-0.1,0-0.1,0-0.1,0l-3.1-4.7l1-1l4.7,3.2L31,38.8z M25.4,18.8v-2.5c0-0.1,0-0.3-0.1-0.4
		c-0.6-1.3-1-2.7-1-4.2V9.5c0-4.2,3.4-7.5,7.5-7.5h13.9v9.7c0,1.5-0.3,2.9-1,4.2c-0.1,0.1-0.1,0.3-0.1,0.4v2.8
		c0,2.7-1.1,5.2-3.1,7.1c-0.2,0.2-0.5,0.5-0.8,0.7l0,0c-1.8,1.4-4.1,2.1-6.5,1.9C29.3,28.5,25.4,24.1,25.4,18.8z M15.8,34.9v-1.2
		c1.2-0.8,2.1-1.9,2.6-3.3c0.1,0.9,0.3,1.7,0.6,2.4C18.6,33.4,17.6,34.3,15.8,34.9z M11.6,33.1c-3,0-5.4-2.4-5.4-5.4
		c0-0.5-0.4-1-1-1l-0.2,0l0-0.3c0-0.7,0-1.3,0.1-1.9c0.1-1.8,0.8-3.4,2-4.7c1.2-1.2,2.8-1.9,4.5-1.9c1.7,0,3.3,0.7,4.4,1.9
		c1.2,1.2,1.9,2.9,2,4.7c0,0.6,0.1,1.2,0.1,1.9v0.2c-1.1-1.7-2.8-2.9-4.9-3.6c-2-0.6-3.7-0.6-3.8-0.6c-0.3,0-0.5,0.1-0.7,0.3
		l-1.8,1.9c-0.4,0.4-0.4,1,0,1.4c0.4,0.4,1,0.4,1.4,0l1.5-1.6c1.3,0.1,5.4,0.5,7,4.1C16.5,31.1,14.3,33.1,11.6,33.1z M13.1,37.7
		c-0.8,0.8-2.2,0.8-3,0l-0.9-0.9c0.1-0.3,0.2-0.6,0.2-1v-1.1c0.7,0.2,1.4,0.3,2.2,0.3c0.8,0,1.5-0.1,2.2-0.3v1.1
		c0,0.3,0.1,0.7,0.2,1L13.1,37.7z M7.4,34.9c-1.9-0.7-2.8-1.6-3.2-2.1c0.3-0.7,0.4-1.5,0.6-2.4c0.5,1.3,1.5,2.4,2.6,3.3V34.9z
		 M66,36.7l-4.1-1.2c-0.2-0.1-0.3-0.2-0.3-0.4v-1.4c0.3-0.2,0.7-0.5,0.9-0.8c1.5-1.4,2.2-3.3,2.2-5.3v-1.9l0.4-0.8
		c0.4-0.9,0.7-1.9,0.7-2.8V17c0-0.5-0.4-1-1-1h-9.6c-3.5,0-6.3,2.8-6.3,6.3v0.1c0,0.8,0.2,1.6,0.5,2.4l0.5,1v1.6
		c0,2.6,1.3,4.9,3.2,6.3v1.4c0,0.2,0,0.3-0.8,0.5l-2,0.6l-5.8-2.1c0-0.3-0.1-0.6-0.3-0.8l-1.9-1.9v-3.3c0.2-0.2,0.4-0.3,0.6-0.5
		c2.3-2.2,3.7-5.3,3.7-8.5v-2.6c0.7-1.5,1.1-3.2,1.1-4.9V1c0-0.6-0.4-1-1-1H31.8c-5.2,0-9.5,4.3-9.5,9.5v2.1c0,1.7,0.3,3.3,1.1,4.9
		v2.3c0,3.7,1.7,7.1,4.3,9.3v3.4l-1.9,1.9c-0.2,0.2-0.3,0.5-0.3,0.8l-6.1,2.2c-0.4,0.2-0.9,0.4-1.2,0.7l-1-0.5
		c2.9-1.2,3.8-3,3.8-3.1c0.1-0.3,0.1-0.6,0-0.9c-0.7-1.4-0.8-4.1-0.9-6.2c0-0.7-0.1-1.4-0.1-2c-0.3-4.8-4-8.4-8.4-8.4
		c-4.5,0-8.1,3.6-8.5,8.4c0,0.6-0.1,1.3-0.1,2c-0.1,2.1-0.1,4.8-0.9,6.2c-0.1,0.3-0.1,0.6,0,0.9c0,0.1,0.9,1.9,3.8,3.1l-2.7,1.3
		C1.9,38.6,1,40,1,41.6V49c0,0.5,0.4,1,1,1c0.5,0,1-0.5,1-1v-7.4c0-0.8,0.5-1.6,1.2-2L7.5,38l1.2,1.1c0.8,0.8,1.9,1.2,2.9,1.2
		s2.1-0.4,2.9-1.2l1.2-1.1l1.1,0.5c-0.5,0.8-0.8,1.8-0.8,2.8V49c0,0.5,0.5,1,1,1c0.5,0,1-0.5,1-1v-7.7c0-1.4,0.9-2.6,2.1-3.1
		l6.5-2.4l2.7,4c0.3,0.5,0.9,0.9,1.5,0.9h0.2c0.5,0,1.1-0.2,1.5-0.6l1.6-1.6V49c0,0.5,0.5,1,1,1c0.5,0,1-0.5,1-1V38.6l1.6,1.6
		c0.4,0.4,0.9,0.6,1.5,0.6h0.2c0.6-0.1,1.2-0.4,1.5-0.9l2.7-4l6.5,2.4c1.3,0.5,2.1,1.7,2.1,3.1V49c0,0.6,0.5,1,1,1c0.5,0,1-0.4,1-1
		v-7.7c0-1.4-0.6-2.7-1.5-3.7l0.3-0.1c0.2-0.1,0.6-0.2,0.9-0.3l2.5,2.5V49c0,0.6,0.4,1,1,1c0.6,0,1-0.4,1-1v-9.2l2.5-2.5
		c0.1,0.1,0.3,0.1,0.4,0.2l4.1,1.2c0.9,0.3,1.6,1.1,1.6,2.1V49c0,0.6,0.4,1,1,1c0.6,0,1-0.4,1-1v-8.3C69,38.9,67.7,37.2,66,36.7z"/>
	<g>
		<path class="st0" d="M6.3,42.9c-0.5,0-1,0.5-1,1V49c0,0.5,0.4,1,1,1c0.6,0,1-0.5,1-1v-5.1C7.3,43.4,6.8,42.9,6.3,42.9z"/>
	</g>
	<g>
		<path class="st0" d="M43.2,12C39.4,8.3,31.5,9,28.3,9.5c-1,0.2-1.7,1-1.7,2.1v2.3c0,0.5,0.5,1,1,1c0.5,0,1-0.5,1-1v-2.3
			c0,0,0-0.1,0-0.1c1.3-0.2,3.8-0.5,6.5-0.3c3.1,0.2,5.3,1,6.7,2.3c0.4,0.4,1,0.4,1.4,0C43.6,13.1,43.6,12.4,43.2,12z"/>
	</g>
	<g>
		<path class="st0" d="M23.3,43.7c-0.5,0-1,0.5-1,1V49c0,0.5,0.4,1,1,1c0.6,0,1-0.5,1-1v-4.3C24.3,44.2,23.9,43.7,23.3,43.7z"/>
	</g>
	<g>
		<path class="st0" d="M46.7,43.7c-0.6,0-1,0.5-1,1V49c0,0.5,0.4,1,1,1c0.5,0,1-0.5,1-1v-4.3C47.7,44.2,47.3,43.7,46.7,43.7z"/>
	</g>
</g>
</svg>
