<?xml version="1.0" encoding="utf-8"?>
<!-- Generator: Adobe Illustrator 24.0.1, SVG Export Plug-In . SVG Version: 6.00 Build 0)  -->
<svg version="1.1" id="Capa_1" xmlns="http://www.w3.org/2000/svg" xmlns:xlink="http://www.w3.org/1999/xlink" x="0px" y="0px"
	 viewBox="0 0 70 65" style="enable-background:new 0 0 70 65;" xml:space="preserve">
<style type="text/css">
	.st0{fill-rule:evenodd;clip-rule:evenodd;fill:#BADDEE;}
</style>
<g>
	<path class="st0" d="M50.19,21.67c-1.8,0-3.25,1.45-3.25,3.25c0,1.79,1.45,3.24,3.25,3.24s3.25-1.45,3.25-3.24
		C53.44,23.12,51.99,21.67,50.19,21.67z M50.19,30.33c-3,0-5.43-2.43-5.43-5.41c0-3,2.43-5.43,5.43-5.43s5.43,2.43,5.43,5.43
		C55.6,27.91,53.19,30.33,50.19,30.33z"/>
	<path class="st0" d="M19.81,21.67c-1.79,0-3.25,1.45-3.25,3.25c0,1.79,1.47,3.24,3.25,3.24c1.8,0,3.25-1.45,3.25-3.24
		C23.07,23.12,21.61,21.67,19.81,21.67z M19.81,30.33c-2.99,0-5.41-2.43-5.41-5.41c0-3,2.43-5.43,5.41-5.43c3,0,5.43,2.43,5.43,5.43
		C25.24,27.91,22.81,30.33,19.81,30.33z"/>
	<path class="st0" d="M54.52,62.83h-3.25V47.67h-2.16v15.16h-3.25V34.99l-7.29,8.49c-0.28,0.33-0.79,0.4-1.16,0.16
		c-0.2-0.15-0.35-0.36-0.37-0.6c-0.04-0.25,0.03-0.49,0.19-0.69l8.07-9.85h10.75l8.4-7.45c0.19-0.16,0.43-0.24,0.68-0.21
		c0.24,0.04,0.47,0.17,0.6,0.39c0.24,0.35,0.19,0.83-0.13,1.11L54.52,36.36V62.83z M43.68,62.83H26.32V40.84l3.48,4.04
		c1,1.17,2.72,1.41,4.01,0.55l0.11-0.09v8.83h2.17v-8.81l0.12,0.09c1.28,0.85,3,0.61,4-0.56l3.47-4.04V62.83z M24.16,62.83h-3.25
		V47.67h-2.17v15.16h-3.25V36.36L4.43,26.32c-0.31-0.28-0.36-0.76-0.13-1.11c0.15-0.21,0.36-0.35,0.61-0.37
		c0.24-0.04,0.49,0.04,0.67,0.2l8.41,7.45h10.75l8.05,9.85c0.32,0.37,0.27,0.93-0.11,1.24c-0.37,0.31-0.93,0.27-1.24-0.11
		l-7.28-8.49V62.83z M36.08,2.16h14.11v8.67H36.08V2.16z M52.36,6.49h9.24l-1.73,4.33l1.73,4.33H49.11V13h3.25V6.49z M56.69,37.31
		l10.35-9.39c1.2-1.12,1.29-3,0.19-4.24c-1.11-1.23-2.99-1.35-4.24-0.25l-7.79,6.91H44.25l-8.16,9.97V13h10.84v4.33H64.8l-2.6-6.51
		l2.6-6.49H52.36V0H33.92v40.31l-8.16-9.97H14.81l-7.8-6.92c-1.24-1.08-3.13-0.96-4.24,0.27c-1.11,1.23-1.01,3.12,0.2,4.24
		l10.33,9.39v25.52H2.47V65h65.08v-2.17H56.69V37.31z"/>
</g>
<g>
</g>
<g>
</g>
<g>
</g>
<g>
</g>
<g>
</g>
<g>
</g>
<g>
</g>
<g>
</g>
<g>
</g>
<g>
</g>
<g>
</g>
<g>
</g>
<g>
</g>
<g>
</g>
<g>
</g>
</svg>
