<?xml version="1.0" encoding="utf-8"?>
<!-- Generator: Adobe Illustrator 24.0.1, SVG Export Plug-In . SVG Version: 6.00 Build 0)  -->
<svg version="1.1" id="Capa_1" xmlns="http://www.w3.org/2000/svg" xmlns:xlink="http://www.w3.org/1999/xlink" x="0px" y="0px"
	 viewBox="0 0 60 60" style="enable-background:new 0 0 60 60;" xml:space="preserve">
<style type="text/css">
	.st0{fill-rule:evenodd;clip-rule:evenodd;fill:#B5BE34;}
</style>
<path class="st0" d="M31.8,28.7c-0.1,0.1-0.3,0.1-0.4,0l-1.6-1.6l-0.2,0.7c0,0.1-0.2,0.2-0.3,0.2c-0.1,0-0.3-0.1-0.3-0.2l-1.2-3.1
	c0-0.1,0-0.3,0.1-0.3c0.1-0.1,0.2-0.1,0.3-0.1l3.1,1.2c0.1,0.1,0.2,0.2,0.2,0.3c0,0.1-0.1,0.3-0.2,0.3l-0.7,0.2l1.6,1.6
	c0.1,0.1,0.1,0.3,0,0.5L31.8,28.7z M39.2,21.4c0-0.2-0.1-0.3-0.3-0.3H21.1c-0.2,0-0.3,0.1-0.3,0.3v10.7c0,0.1,0.1,0.2,0.2,0.3h18
	c0.1-0.1,0.2-0.2,0.2-0.3V21.4z M27.1,39.3c0.1,0.1,0.1,0.1,0.2,0.1h5.5c0.1,0,0.2-0.1,0.2-0.2l0-0.1l-0.4-2.4
	c0-0.1-0.1-0.2-0.2-0.2h-4.6c-0.1,0-0.2,0.1-0.2,0.2l-0.4,2.4C27,39.2,27.1,39.2,27.1,39.3z M42.9,39.7c0,0.1,0,0.2,0.1,0.3
	c0,0.6-0.5,1.1-1.1,1.1H18.2c-0.3,0-0.6-0.2-0.9-0.4c-0.2-0.3-0.3-0.6-0.2-0.9l1.6-6.5c0-0.1,0.1-0.2,0.1-0.3
	c-0.1-0.3-0.1-0.5-0.1-0.8V21.4c0-1.3,1.1-2.4,2.4-2.4h17.8c1.3,0,2.4,1.1,2.4,2.4v10.7c0,0.3-0.1,0.6-0.1,0.8
	c0.1,0.1,0.1,0.2,0.1,0.3L42.9,39.7z"/>
<path class="st0" d="M30,59.5C13.7,59.5,0.5,46.3,0.5,30S13.7,0.5,30,0.5S59.5,13.7,59.5,30S46.3,59.5,30,59.5z M30,0.9
	C13.9,0.9,0.9,13.9,0.9,30S13.9,59.1,30,59.1S59.1,46.1,59.1,30S46.1,0.9,30,0.9z"/>
<path class="st0" d="M30,59.5C13.7,59.5,0.5,46.3,0.5,30c0-0.8,0.7-1.5,1.5-1.5s1.5,0.7,1.5,1.5c0,14.6,11.9,26.5,26.5,26.5
	S56.5,44.6,56.5,30S44.6,3.5,30,3.5c-0.8,0-1.5-0.7-1.5-1.5s0.7-1.5,1.5-1.5c16.3,0,29.5,13.2,29.5,29.5S46.3,59.5,30,59.5z"/>
</svg>
