<?xml version="1.0" encoding="utf-8"?>
<!-- Generator: Adobe Illustrator 24.0.1, SVG Export Plug-In . SVG Version: 6.00 Build 0)  -->
<svg version="1.1" id="Capa_1" xmlns="http://www.w3.org/2000/svg" xmlns:xlink="http://www.w3.org/1999/xlink" x="0px" y="0px"
	 viewBox="0 0 60 60" style="enable-background:new 0 0 60 60;" xml:space="preserve">
<style type="text/css">
	.st0{fill-rule:evenodd;clip-rule:evenodd;fill:#FFFFFF;}
</style>
<g>
	<path class="st0" d="M50.8,53.3H9.2c-1.4,0-2.5-1.1-2.5-2.5V16.7h46.7v34.2C53.3,52.2,52.2,53.3,50.8,53.3z M9.2,6.7h41.7
		c1.4,0,2.5,1.1,2.5,2.5V15H6.7V9.2C6.7,7.8,7.8,6.7,9.2,6.7z M50.8,5H9.2C6.9,5,5,6.9,5,9.2v41.7C5,53.1,6.9,55,9.2,55h41.7
		c2.3,0,4.2-1.9,4.2-4.2V9.2C55,6.9,53.1,5,50.8,5z"/>
	<path class="st0" d="M10.8,10c0.5,0,0.8,0.4,0.8,0.8c0,0.5-0.4,0.8-0.8,0.8c-0.5,0-0.8-0.4-0.8-0.8C10,10.4,10.4,10,10.8,10z
		 M10.8,13.3c1.4,0,2.5-1.1,2.5-2.5c0-1.4-1.1-2.5-2.5-2.5c-1.4,0-2.5,1.1-2.5,2.5C8.3,12.2,9.5,13.3,10.8,13.3z"/>
	<path class="st0" d="M17.5,10c0.5,0,0.8,0.4,0.8,0.8c0,0.5-0.4,0.8-0.8,0.8c-0.5,0-0.8-0.4-0.8-0.8C16.7,10.4,17,10,17.5,10z
		 M17.5,13.3c1.4,0,2.5-1.1,2.5-2.5c0-1.4-1.1-2.5-2.5-2.5c-1.4,0-2.5,1.1-2.5,2.5C15,12.2,16.1,13.3,17.5,13.3z"/>
	<path class="st0" d="M24.2,10c0.5,0,0.8,0.4,0.8,0.8c0,0.5-0.4,0.8-0.8,0.8c-0.5,0-0.8-0.4-0.8-0.8C23.3,10.4,23.7,10,24.2,10z
		 M24.2,13.3c1.4,0,2.5-1.1,2.5-2.5c0-1.4-1.1-2.5-2.5-2.5c-1.4,0-2.5,1.1-2.5,2.5C21.7,12.2,22.8,13.3,24.2,13.3z"/>
	<path class="st0" d="M20,32.5c-3.2,0-5.8-2.6-5.8-5.8s2.6-5.8,5.8-5.8s5.8,2.6,5.8,5.8S23.2,32.5,20,32.5z M20,19.2
		c-4.1,0-7.5,3.3-7.5,7.5s3.3,7.5,7.5,7.5s7.5-3.4,7.5-7.5C27.5,22.5,24.1,19.2,20,19.2z"/>
	<path class="st0" d="M20,49.2c-3.2,0-5.8-2.6-5.8-5.8c0-3.2,2.6-5.8,5.8-5.8s5.8,2.6,5.8,5.8C25.8,46.6,23.2,49.2,20,49.2z
		 M20,35.8c-4.1,0-7.5,3.4-7.5,7.5s3.3,7.5,7.5,7.5s7.5-3.3,7.5-7.5C27.5,39.2,24.1,35.8,20,35.8z"/>
	<path class="st0" d="M17.5,25.8c0-0.5-0.4-0.8-0.8-0.8c-0.5,0-0.8,0.4-0.8,0.8c0,0.5,0.4,0.8,0.8,0.8
		C17.1,26.7,17.5,26.3,17.5,25.8z"/>
	<path class="st0" d="M24.2,25.8c0-0.5-0.4-0.8-0.8-0.8c-0.5,0-0.8,0.4-0.8,0.8c0,0.5,0.4,0.8,0.8,0.8
		C23.8,26.7,24.2,26.3,24.2,25.8z"/>
	<path class="st0" d="M21.9,27.4c-0.4-0.2-0.9,0-1.1,0.4c-0.1,0.1-0.1,0.2-0.2,0.3c-0.1,0.1-0.2,0.1-0.3,0.2c-0.2,0.1-0.4,0.1-0.6,0
		c-0.2-0.1-0.4-0.2-0.5-0.4c-0.2-0.4-0.7-0.6-1.1-0.4c-0.4,0.2-0.6,0.7-0.4,1.1c0.1,0.3,0.3,0.6,0.5,0.8c0.5,0.5,1.1,0.7,1.8,0.7
		s1.3-0.3,1.8-0.7c0.2-0.2,0.4-0.5,0.5-0.8C22.5,28.1,22.3,27.6,21.9,27.4z"/>
	<path class="st0" d="M17.5,42.5c0-0.5-0.4-0.8-0.8-0.8c-0.5,0-0.8,0.4-0.8,0.8c0,0.5,0.4,0.8,0.8,0.8C17.1,43.3,17.5,43,17.5,42.5z
		"/>
	<path class="st0" d="M24.2,42.5c0-0.5-0.4-0.8-0.8-0.8c-0.5,0-0.8,0.4-0.8,0.8c0,0.5,0.4,0.8,0.8,0.8C23.8,43.3,24.2,43,24.2,42.5z
		"/>
	<path class="st0" d="M21.8,44.9c-0.2-0.2-0.5-0.4-0.8-0.5c-0.6-0.3-1.3-0.3-1.9,0c-0.3,0.1-0.6,0.3-0.8,0.5
		c-0.2,0.2-0.4,0.5-0.5,0.8c-0.2,0.4,0,0.9,0.4,1.1c0.4,0.2,0.9,0,1.1-0.4c0.1-0.1,0.1-0.2,0.2-0.3c0.1-0.1,0.2-0.1,0.3-0.2
		c0.2-0.1,0.4-0.1,0.6,0c0.2,0.1,0.4,0.3,0.5,0.5c0.2,0.4,0.7,0.6,1.1,0.4c0.4-0.2,0.6-0.7,0.4-1.1C22.2,45.4,22,45.1,21.8,44.9z"/>
	<path class="st0" d="M45,26.7c-0.5,0-0.8,0.4-0.8,0.8v3.3c0,0.5-0.4,0.8-0.8,0.8H35c-0.5,0-0.8-0.4-0.8-0.8v-8.3
		c0-0.5,0.4-0.8,0.8-0.8h8.3c0.5,0,0.8-0.4,0.8-0.8c0-0.5-0.4-0.8-0.8-0.8H35c-1.4,0-2.5,1.1-2.5,2.5v8.3c0,1.4,1.1,2.5,2.5,2.5h8.3
		c1.4,0,2.5-1.1,2.5-2.5v-3.3C45.8,27,45.5,26.7,45,26.7z"/>
	<path class="st0" d="M44.2,47.5c0,0.5-0.4,0.8-0.8,0.8H35c-0.5,0-0.8-0.4-0.8-0.8v-8.3c0-0.5,0.4-0.8,0.8-0.8h8.3
		c0.5,0,0.8,0.4,0.8,0.8V47.5z M43.3,36.7H35c-1.4,0-2.5,1.1-2.5,2.5v8.3c0,1.4,1.1,2.5,2.5,2.5h8.3c1.4,0,2.5-1.1,2.5-2.5v-8.3
		C45.8,37.8,44.7,36.7,43.3,36.7z"/>
	<path class="st0" d="M46.9,20.2L39.2,28l-1.9-1.9c-0.3-0.3-0.8-0.3-1.2,0c-0.3,0.3-0.3,0.8,0,1.2l2.5,2.5c0.2,0.1,0.4,0.2,0.6,0.2
		c0.2,0,0.4-0.1,0.6-0.2l8.3-8.3c0.3-0.3,0.3-0.9,0-1.2C47.8,19.9,47.2,19.9,46.9,20.2z"/>
</g>
</svg>
