<?xml version="1.0" encoding="utf-8"?>
<!-- Generator: Adobe Illustrator 24.0.1, SVG Export Plug-In . SVG Version: 6.00 Build 0)  -->
<svg version="1.1" id="Capa_1" xmlns="http://www.w3.org/2000/svg" xmlns:xlink="http://www.w3.org/1999/xlink" x="0px" y="0px"
	 viewBox="0 0 30 30" style="enable-background:new 0 0 30 30;" xml:space="preserve">
<style type="text/css">
	.st0{fill-rule:evenodd;clip-rule:evenodd;fill:#FFFFFF;}
</style>
<g>
	<path class="st0" d="M25.3,9.8h-2.6V7c0-0.2-0.2-0.5-0.4-0.5S21.9,6.7,21.9,7v2.8h-2.6c-0.2,0-0.4,0.2-0.4,0.5
		c0,0.2,0.2,0.5,0.4,0.5h2.6v2.8c0,0.2,0.2,0.5,0.4,0.5s0.4-0.2,0.4-0.5v-2.8h2.6c0.2,0,0.4-0.2,0.4-0.5C25.7,10,25.5,9.8,25.3,9.8z
		"/>
	<path class="st0" d="M22.3,17.6c-1.5,0-2.9-0.5-4.1-1.4l-0.1-0.1c-0.3-0.2-0.6-0.5-0.9-0.8c-2.2-2.5-2.5-6.4-0.6-9.2
		C18.5,3.2,22,2.1,25,3.5s4.7,4.8,4,8.2C28.3,15.1,25.5,17.6,22.3,17.6L22.3,17.6z M2.9,27.1c-0.4,0-0.9-0.1-1.2-0.4l5.1-5.6
		c0.1-0.1,0.1-0.3,0.1-0.4c0-0.2-0.2-0.3-0.3-0.3c-0.1,0-0.3,0-0.4,0.1L1.1,26c-0.2-0.3-0.3-0.7-0.3-1V13.5l8.8,8
		c1,0.9,2.4,0.9,3.4,0l4.9-4.5c1.2,0.8,2.5,1.3,3.9,1.4v6.5c0,0.4-0.1,0.7-0.2,1l-5.1-5.5c-0.2-0.2-0.4-0.2-0.6,0
		c-0.2,0.2-0.2,0.5,0,0.6l5.2,5.6c-0.3,0.3-0.8,0.4-1.2,0.4H2.9z M2.9,10.7h11.7c0.1,1.9,0.8,3.8,2.1,5.2c0.2,0.2,0.4,0.4,0.6,0.6
		l-4.8,4.3c-0.7,0.6-1.6,0.6-2.3,0l-9.3-8.4C1.1,11.4,1.9,10.7,2.9,10.7z M22.3,2c-4.1,0-7.5,3.4-7.7,7.7H2.9
		c-1.4,0-2.7,1.1-2.8,2.7c0,0.1,0,0.1,0,0.2v0.2v12.1c0,0.7,0.2,1.4,0.7,1.9c0,0.1,0.1,0.1,0.1,0.2C1.3,27.7,2.1,28,2.9,28h17
		c0.8,0,1.5-0.3,2.1-0.9L22,27c0,0,0.1-0.1,0.1-0.1c0.4-0.5,0.7-1.2,0.7-1.9v-6.5c4.1-0.2,7.3-3.8,7.3-8.2C30,5.7,26.5,2,22.3,2z"/>
</g>
</svg>
