<svg
 xmlns="http://www.w3.org/2000/svg"
 xmlns:xlink="http://www.w3.org/1999/xlink"
 width="55px" height="55px">
<path fill-rule="evenodd"  fill="rgb(181, 190, 52)"
 d="M50.417,7.333 L43.084,7.333 L43.084,9.166 L50.417,9.167 C51.935,9.167 53.167,10.398 53.167,11.917 L53.167,34.833 L1.834,34.833 L1.834,11.917 C1.834,10.398 3.065,9.167 4.584,9.167 L11.917,9.167 L11.917,7.333 L4.584,7.333 C2.053,7.336 0.003,9.386 -0.000,11.916 L-0.000,39.417 C0.003,41.947 2.053,43.997 4.584,44.000 L20.045,44.000 L19.358,49.500 L18.333,49.500 C17.321,49.500 16.500,50.321 16.500,51.333 L16.500,53.167 L14.667,53.167 L14.667,55.000 L40.334,55.000 L40.334,53.167 L38.500,53.167 L38.500,51.333 C38.500,50.321 37.679,49.500 36.667,49.500 L35.642,49.500 L34.955,44.000 L50.417,44.000 C52.947,43.997 54.997,41.947 55.000,39.417 L55.000,11.916 C54.997,9.386 52.947,7.336 50.417,7.333 L50.417,7.333 ZM36.667,53.167 L18.333,53.167 L18.333,51.333 L36.667,51.333 L36.667,53.167 L36.667,53.167 ZM33.795,49.500 L21.205,49.500 L21.893,44.000 L33.108,44.000 L33.795,49.500 L33.795,49.500 ZM50.417,42.166 L4.584,42.166 C3.065,42.166 1.834,40.935 1.834,39.417 L1.834,36.666 L53.167,36.667 L53.167,39.417 C53.167,40.935 51.935,42.166 50.417,42.166 L50.417,42.166 ZM50.417,42.166 L50.417,42.166 Z"/>
<path fill-rule="evenodd"  fill="rgb(181, 190, 52)"
 d="M48.584,38.500 L50.417,38.500 L50.417,40.333 L48.584,40.333 L48.584,38.500 ZM48.584,38.500 L48.584,38.500 Z"/>
<path fill-rule="evenodd"  fill="rgb(181, 190, 52)"
 d="M42.341,22.000 C42.669,22.000 42.971,21.825 43.135,21.542 C43.299,21.258 43.299,20.909 43.135,20.625 C42.039,18.724 40.047,17.516 37.855,17.423 C35.663,17.330 33.576,18.365 32.324,20.167 L22.676,20.167 C21.424,18.365 19.337,17.330 17.145,17.423 C14.953,17.516 12.961,18.724 11.865,20.625 C11.701,20.909 11.701,21.258 11.865,21.542 C12.029,21.825 12.331,22.000 12.659,22.000 L15.839,22.000 L16.450,23.833 L15.839,25.667 L12.659,25.667 C12.331,25.667 12.029,25.841 11.865,26.125 C11.701,26.409 11.701,26.758 11.865,27.042 C12.961,28.942 14.953,30.151 17.145,30.244 C19.337,30.337 21.424,29.301 22.676,27.500 L32.324,27.500 C33.576,29.301 35.663,30.337 37.855,30.244 C40.047,30.151 42.039,28.942 43.135,27.042 C43.299,26.758 43.299,26.409 43.135,26.125 C42.971,25.841 42.669,25.667 42.341,25.667 L39.161,25.667 L38.550,23.833 L39.161,22.000 L42.341,22.000 L42.341,22.000 ZM36.714,24.123 L37.631,26.873 C37.756,27.247 38.106,27.499 38.500,27.500 L40.324,27.500 C39.278,28.287 37.944,28.587 36.662,28.323 C35.379,28.061 34.271,27.260 33.618,26.125 C33.455,25.842 33.153,25.667 32.826,25.667 L22.174,25.667 C21.847,25.667 21.545,25.842 21.382,26.125 C20.729,27.260 19.621,28.061 18.338,28.323 C17.056,28.587 15.722,28.287 14.676,27.500 L16.500,27.500 C16.894,27.499 17.245,27.247 17.369,26.873 L18.286,24.123 C18.350,23.935 18.350,23.731 18.286,23.544 L17.369,20.793 C17.244,20.419 16.894,20.167 16.500,20.167 L14.676,20.167 C15.722,19.380 17.056,19.080 18.338,19.343 C19.621,19.606 20.729,20.406 21.382,21.542 C21.545,21.825 21.847,21.999 22.174,22.000 L32.826,22.000 C33.153,21.999 33.455,21.825 33.618,21.542 C34.271,20.407 35.379,19.606 36.662,19.343 C37.944,19.080 39.278,19.380 40.324,20.167 L38.500,20.167 C38.106,20.167 37.756,20.419 37.631,20.793 L36.714,23.544 C36.650,23.731 36.650,23.935 36.714,24.123 L36.714,24.123 ZM36.714,24.123 L36.714,24.123 Z"/>
<path fill-rule="evenodd"  fill="rgb(181, 190, 52)"
 d="M15.970,10.865 C15.739,11.341 15.538,11.831 15.368,12.332 L11.786,12.844 C11.335,12.908 11.000,13.294 11.000,13.750 L11.000,17.416 L12.834,17.417 L12.834,14.545 L16.197,14.064 C16.553,14.013 16.847,13.759 16.947,13.413 C17.168,12.649 17.471,11.912 17.852,11.213 C18.025,10.898 17.998,10.510 17.782,10.222 L15.747,7.508 L18.511,4.743 L21.225,6.783 C21.513,6.999 21.901,7.026 22.216,6.854 C22.915,6.473 23.653,6.170 24.417,5.949 C24.762,5.848 25.016,5.554 25.067,5.198 L25.545,1.833 L29.455,1.833 L29.934,5.196 C29.986,5.553 30.240,5.846 30.586,5.947 C31.349,6.168 32.087,6.472 32.786,6.852 C33.100,7.025 33.487,6.998 33.775,6.783 L36.489,4.748 L39.253,7.513 L37.217,10.225 C37.001,10.513 36.973,10.901 37.146,11.216 C37.527,11.914 37.830,12.652 38.051,13.416 C38.152,13.761 38.445,14.016 38.801,14.067 L42.165,14.548 L42.165,17.417 L43.998,17.417 L43.998,13.750 C43.998,13.294 43.663,12.907 43.212,12.842 L39.630,12.331 C39.460,11.830 39.259,11.340 39.028,10.864 L41.197,7.975 C41.471,7.610 41.435,7.100 41.113,6.777 L37.222,2.888 C36.900,2.567 36.390,2.530 36.025,2.803 L33.134,4.970 C32.658,4.739 32.168,4.538 31.667,4.368 L31.158,0.787 C31.093,0.335 30.707,-0.000 30.250,-0.000 L24.750,-0.000 C24.293,-0.000 23.907,0.335 23.842,0.787 L23.331,4.368 C22.830,4.538 22.340,4.739 21.864,4.970 L18.975,2.803 C18.610,2.530 18.100,2.567 17.778,2.888 L13.887,6.778 C13.565,7.100 13.529,7.611 13.803,7.976 L15.970,10.865 ZM15.970,10.865 L15.970,10.865 Z"/>
<path fill-rule="evenodd"  fill="rgb(181, 190, 52)"
 d="M26.584,3.666 L28.417,3.666 L28.417,5.500 L26.584,5.500 L26.584,3.666 ZM26.584,3.666 L26.584,3.666 Z"/>
<path fill-rule="evenodd"  fill="rgb(181, 190, 52)"
 d="M17.778,8.074 L19.074,6.777 L20.370,8.074 L19.074,9.370 L17.778,8.074 ZM17.778,8.074 L17.778,8.074 Z"/>
<path fill-rule="evenodd"  fill="rgb(181, 190, 52)"
 d="M34.630,8.074 L35.927,6.778 L37.223,8.074 L35.927,9.371 L34.630,8.074 ZM34.630,8.074 L34.630,8.074 Z"/>
<path fill-rule="evenodd"  fill="rgb(181, 190, 52)"
 d="M20.167,16.500 L22.000,16.500 C22.000,13.462 24.463,11.000 27.500,11.000 C30.538,11.000 33.000,13.462 33.000,16.500 L34.834,16.500 C34.834,12.450 31.550,9.166 27.500,9.166 C23.450,9.166 20.167,12.450 20.167,16.500 ZM20.167,16.500 L20.167,16.500 Z"/>
</svg>
