<?xml version="1.0" encoding="utf-8"?>
<!-- Generator: Adobe Illustrator 24.0.1, SVG Export Plug-In . SVG Version: 6.00 Build 0)  -->
<svg version="1.1" id="Capa_1" xmlns="http://www.w3.org/2000/svg" xmlns:xlink="http://www.w3.org/1999/xlink" x="0px" y="0px"
	 viewBox="0 0 55 55" style="enable-background:new 0 0 55 55;" xml:space="preserve">
<style type="text/css">
	.st0{fill-rule:evenodd;clip-rule:evenodd;fill:#B5BE34;}
</style>
<g>
	<g>
		<path class="st0" d="M49.5,14c-0.5-3.4-3.5-6-6.9-6C40.7,3.2,36.2,0,31,0c-4.8,0-9,2.7-11.1,6.8c-1.8-1-3.7-1.5-5.8-1.5
			C8.2,5.3,3.3,9.9,2.8,15.8C1,17.5,0,19.8,0,22.2C0,27.1,4,31,8.9,31v-1.8c-3.9,0-7.1-3.2-7.1-7.1c0-3.6,2.7-5.6,2.7-5.6
			C5,7.3,15.1,4.6,20.7,9.5c0,0,2.4-8,10.3-7.8C39.4,2,41.4,9.8,41.4,9.8c2.8-0.4,6.4,1,6.6,5.4c0,0,5.3,1.4,5.3,6.9
			c0,3.9-3.2,7.1-7.1,7.1V31c4.9,0,8.9-4,8.9-8.9C54.9,18.6,52.8,15.4,49.5,14z"/>
	</g>
	<g>
		<path class="st0" d="M25.7,31.9H11.5V21.3h14.2V31.9z M25.7,19.5H11.5c-1,0-1.8,0.8-1.8,1.8v10.6c0,1,0.8,1.8,1.8,1.8h14.2
			c1,0,1.8-0.8,1.8-1.8V21.3C27.5,20.3,26.7,19.5,25.7,19.5z"/>
	</g>
	<g>
		<path class="st0" d="M25.7,39.9H11.5v-3.5h14.2V39.9z M25.7,34.6H11.5c-1,0-1.8,0.8-1.8,1.8v3.5c0,1,0.8,1.8,1.8,1.8h14.2
			c1,0,1.8-0.8,1.8-1.8v-3.5C27.5,35.4,26.7,34.6,25.7,34.6z"/>
	</g>
	<g>
		<rect x="13.3" y="37.3" class="st0" width="7.1" height="1.8"/>
	</g>
	<g>
		<rect x="22.1" y="37.3" class="st0" width="1.8" height="1.8"/>
	</g>
	<g>
		<path class="st0" d="M45.2,45.2H31V34.6h14.2V45.2z M45.2,32.8H31c-1,0-1.8,0.8-1.8,1.8v10.6c0,1,0.8,1.8,1.8,1.8h14.2
			c1,0,1.8-0.8,1.8-1.8V34.6C46.9,33.6,46.1,32.8,45.2,32.8z"/>
	</g>
	<g>
		<path class="st0" d="M45.2,53.2H31v-3.5h14.2V53.2z M45.2,47.9H31c-1,0-1.8,0.8-1.8,1.8v3.5c0,1,0.8,1.8,1.8,1.8h14.2
			c1,0,1.8-0.8,1.8-1.8v-3.5C46.9,48.7,46.1,47.9,45.2,47.9z"/>
	</g>
	<g>
		<rect x="32.8" y="50.6" class="st0" width="7.1" height="1.8"/>
	</g>
	<g>
		<rect x="41.6" y="50.6" class="st0" width="1.8" height="1.8"/>
	</g>
	<g>
		<path class="st0" d="M40.1,26.9L39,28v-2.3c0-1.5-1.1-2.7-2.7-2.7h-3.5v1.8h3.5c0.5,0,0.9,0.4,0.9,0.9V28L36,26.9l-1.2,1.2
			l3.3,3.3l3.3-3.3L40.1,26.9z"/>
	</g>
	<g>
		<path class="st0" d="M19.5,51.5c-0.5,0-0.9-0.4-0.9-0.9v-2.3l1.1,1.2l1.2-1.2l-3.3-3.3l-3.3,3.3l1.2,1.2l1.1-1.2v2.3
			c0,1.5,1.1,2.7,2.7,2.7H23v-1.8H19.5z"/>
	</g>
</g>
</svg>
