<svg xmlns="http://www.w3.org/2000/svg" xmlns:xlink="http://www.w3.org/1999/xlink" x="0px" y="0px" viewBox="0 0 20 20" style="enable-background:new 0 0 20 20;" xml:space="preserve" fill="#0085CA">
	<g>
		<path d="M8.98,12.35c-0.29,0.29-0.29,0.76,0,1.05c0.29,0.29,0.76,0.29,1.05,0l2.87-2.87c0.29-0.29,0.29-0.76,0-1.05 L10.03,6.6c-0.29-0.29-0.76-0.29-1.05,0c-0.29,0.29-0.29,0.76,0,1.05l1.6,1.6H1.25C0.84,9.26,0.5,9.6,0.5,9.99 c0,0.41,0.34,0.75,0.75,0.75h9.34L8.98,12.35z"/>
		<path d="M16.59,0.79C16.45,0.61,16.23,0.5,16,0.5H6.81c-0.41,0-0.75,0.34-0.75,0.75S6.4,1.98,6.81,1.98h8.82 c1.63,2.24,2.39,5.18,2.39,8.01c0,2.85-0.76,5.78-2.39,8.02H6.81c-0.41,0-0.75,0.33-0.75,0.74S6.4,19.5,6.81,19.5H16 c0.23,0,0.45-0.11,0.59-0.29c1.97-2.55,2.91-5.91,2.91-9.22C19.5,6.7,18.56,3.33,16.59,0.79z"/>
	</g>
</svg>
