<?xml version="1.0" encoding="utf-8"?>
<!-- Generator: Adobe Illustrator 24.0.1, SVG Export Plug-In . SVG Version: 6.00 Build 0)  -->
<svg version="1.1" id="Capa_1" xmlns="http://www.w3.org/2000/svg" xmlns:xlink="http://www.w3.org/1999/xlink" x="0px" y="0px"
	 viewBox="0 0 60 60" style="enable-background:new 0 0 60 60;" xml:space="preserve">
<style type="text/css">
	.st0{fill-rule:evenodd;clip-rule:evenodd;fill:#FFFFFF;}
</style>
<g>
	<path class="st0" d="M43.8,53.2c0,1.2-1,2.1-2.2,2.1H18.3c-1.2,0-2.2-1-2.2-2.1v-2.3h27.7V53.2z M43.8,11.2v37.6H16.2V11.2H43.8z
		 M16.2,6.8c0-1.2,1-2.1,2.2-2.1h23.3c1.2,0,2.2,1,2.2,2.1v2.3H16.2V6.8z M41.7,2.5H18.3c-2.4,0-4.3,1.9-4.3,4.3v43.1v3.3
		c0,2.4,1.9,4.3,4.3,4.3h23.3c2.4,0,4.3-1.9,4.3-4.3v-3.3V6.8C46,4.4,44.1,2.5,41.7,2.5z"/>
	<path class="st0" d="M28.9,54.2h2.3c0.6,0,1.1-0.5,1.1-1.1c0-0.6-0.5-1.1-1.1-1.1h-2.3c-0.6,0-1.1,0.5-1.1,1.1
		C27.8,53.7,28.3,54.2,28.9,54.2z"/>
	<path class="st0" d="M33.5,5.8h-6.9c-0.6,0-1.1,0.5-1.1,1.1s0.5,1.1,1.1,1.1h6.9c0.6,0,1.1-0.5,1.1-1.1S34.1,5.8,33.5,5.8z"/>
	<path class="st0" d="M33.1,37.4c0,0,0.1-0.1,0.2-0.1l2.7,0c-2.9,2.8-2.7,2.7-2.9,2.8v-2.6C33,37.5,33.1,37.5,33.1,37.4z M24.6,42.7
		h7.1c1.2,0,2.3-0.4,3.1-1.2c3-2.9,2.8-2.7,3.1-3c0.7-0.8,1-1.8,1-2.8V21.8c0-1.9-1.6-3.4-3.5-3.4H24.6c-1.9,0-3.5,1.5-3.5,3.4v1
		c0,0.6,0.5,1.1,1.1,1.1c0.6,0,1.1-0.5,1.1-1.1v-1c0-0.7,0.6-1.3,1.3-1.3h10.8c0.7,0,1.3,0.6,1.3,1.3v13.5l-3.4,0h0
		c-0.7,0-1.3,0.2-1.7,0.7c-0.5,0.4-0.7,1.1-0.7,1.7v3h-6.3c-0.7,0-1.3-0.6-1.3-1.3v-7.9c0-0.6-0.5-1.1-1.1-1.1
		c-0.6,0-1.1,0.5-1.1,1.1v7.9C21.1,41.2,22.7,42.7,24.6,42.7L24.6,42.7z"/>
	<path class="st0" d="M27.3,25.2h5.3c0.6,0,1.1-0.5,1.1-1.1S33.2,23,32.7,23h-5.3c-0.6,0-1.1,0.5-1.1,1.1S26.8,25.2,27.3,25.2z"/>
	<path class="st0" d="M27.3,29.8h5.3c0.6,0,1.1-0.5,1.1-1.1c0-0.6-0.5-1.1-1.1-1.1h-5.3c-0.6,0-1.1,0.5-1.1,1.1
		C26.3,29.3,26.8,29.8,27.3,29.8L27.3,29.8z"/>
	<path class="st0" d="M27.3,34.3h5.3c0.6,0,1.1-0.5,1.1-1.1c0-0.6-0.5-1.1-1.1-1.1h-5.3c-0.6,0-1.1,0.5-1.1,1.1
		C26.3,33.8,26.8,34.3,27.3,34.3z"/>
	<path class="st0" d="M22.2,28.2c0.6,0,1.1-0.5,1.1-1.1S22.8,26,22.2,26c-0.6,0-1.1,0.5-1.1,1.1S21.6,28.2,22.2,28.2z"/>
</g>
</svg>
