<?xml version="1.0" encoding="utf-8"?>
<!-- Generator: Adobe Illustrator 24.0.1, SVG Export Plug-In . SVG Version: 6.00 Build 0)  -->
<svg version="1.1" id="Capa_1" xmlns="http://www.w3.org/2000/svg" xmlns:xlink="http://www.w3.org/1999/xlink" x="0px" y="0px"
	 viewBox="0 0 60 60" style="enable-background:new 0 0 60 60;" xml:space="preserve">
<style type="text/css">
	.st0{fill-rule:evenodd;clip-rule:evenodd;fill:#FFFFFF;}
</style>
<g>
	<path class="st0" d="M25.7,51.7L25.7,51.7c-0.5,0-0.9,0.4-0.9,0.9c0,0.5,0.4,0.9,0.9,0.9h0c0.5,0,0.9-0.4,0.9-0.9
		C26.6,52.1,26.2,51.7,25.7,51.7z"/>
	<path class="st0" d="M21.3,28.2c0,0.5,0.4,0.9,0.9,0.9H35c0.5,0,0.9-0.4,0.9-0.9c0-0.5-0.4-0.9-0.9-0.9H22.2
		C21.7,27.2,21.3,27.7,21.3,28.2z"/>
	<path class="st0" d="M50.9,16.6L40.4,37.6l-3.6-1.8L44.2,21l3.1-6.3c0.7-1.4,2-1.2,2.7-0.9C50.7,14.2,51.6,15.2,50.9,16.6z
		 M36.1,41.9l0.3-4.2l2.8,1.4L36.1,41.9z M39.2,13.6c-0.9,0-1.5-0.7-1.5-1.5V9.7l3.6,3.9H39.2z M50.8,12.3c-1.7-0.9-4-0.6-5.1,1.7
		l-1.4,2.8v-2.2c0-0.2-0.1-0.5-0.2-0.6l0,0l-6.7-7.1c-0.2-0.2-0.4-0.3-0.7-0.3H10.5C8.6,6.5,7,8.1,7,10.1v39.9c0,2,1.6,3.6,3.5,3.6
		H22c0.5,0,0.9-0.4,0.9-0.9c0-0.5-0.4-0.9-0.9-0.9H10.5c-0.9,0-1.7-0.8-1.7-1.7V10.1c0-0.9,0.8-1.7,1.7-1.7h25.3V12
		c0,1.9,1.5,3.4,3.4,3.4h3.3v5l-7.4,14.8l-0.1,0l-12.8,0c-0.5,0-0.9,0.4-0.9,0.9c0,0.5,0.4,0.9,0.9,0.9h12.5l-0.5,6.1h-12
		c-0.5,0-0.9,0.4-0.9,0.9s0.4,0.9,0.9,0.9H35c0.2,0,0.4-0.1,0.6-0.2l5.9-5.2c0.1-0.1,0.2-0.2,0.2-0.3h0v0l0.8-1.6v12.3
		c0,0.9-0.8,1.7-1.7,1.7H29.3c-0.5,0-0.9,0.4-0.9,0.9c0,0.5,0.4,0.9,0.9,0.9h11.5c1.9,0,3.5-1.6,3.5-3.6V34l8.3-16.6
		C53.7,15.2,52.5,13.1,50.8,12.3z"/>
	<path class="st0" d="M18.7,32.9c-0.4-0.3-1-0.2-1.3,0.2l-2.7,3.8l-0.7-0.7c-0.4-0.3-1-0.3-1.3,0.1c-0.3,0.4-0.3,1,0.1,1.3l1.5,1.3
		c0.2,0.2,0.4,0.2,0.6,0.2l0.1,0c0.3,0,0.5-0.2,0.6-0.4l3.3-4.6C19.3,33.8,19.2,33.2,18.7,32.9z"/>
	<path class="st0" d="M18.7,40.1c-0.4-0.3-1-0.2-1.3,0.2l-2.7,3.8l-0.7-0.7c-0.4-0.3-1-0.3-1.3,0.1c-0.3,0.4-0.3,1,0.1,1.3l1.5,1.3
		c0.2,0.1,0.4,0.2,0.6,0.2l0.1,0c0.3,0,0.5-0.2,0.6-0.4l3.3-4.6C19.3,41,19.2,40.4,18.7,40.1L18.7,40.1z"/>
	<path class="st0" d="M12.9,30.5l1.5,1.3c0.2,0.1,0.4,0.2,0.6,0.2h0.1c0.3,0,0.5-0.2,0.6-0.4L19,27c0.3-0.4,0.2-1-0.2-1.3
		c-0.4-0.3-1-0.2-1.3,0.2l-2.7,3.8l-0.7-0.7c-0.4-0.3-1-0.3-1.3,0.1C12.4,29.5,12.5,30.1,12.9,30.5z"/>
	<path class="st0" d="M29.6,16c0.1,0,0.1,0.1,0.1,0.1V18c0,0.1-0.1,0.1-0.1,0.1h-1.9c-0.5,0-0.9,0.4-0.9,0.9v2
		c0,0.1-0.1,0.1-0.1,0.1h-1.8c-0.1,0-0.1-0.1-0.1-0.1v-2c0-0.5-0.4-0.9-0.9-0.9h-1.9c-0.1,0-0.1-0.1-0.1-0.1v-1.9
		c0-0.1,0.1-0.1,0.1-0.1h1.9c0.5,0,0.9-0.4,0.9-0.9v-2c0-0.1,0.1-0.1,0.1-0.1h1.8c0.1,0,0.1,0.1,0.1,0.1v2c0,0.5,0.4,0.9,0.9,0.9
		H29.6z M26.6,11.2h-1.8c-1.1,0-2,0.9-2,2v1h-1c-1.1,0-2,0.9-2,2V18c0,1.1,0.9,2,2,2h1v1c0,1.1,0.9,2,2,2h1.8c1.1,0,2-0.9,2-2v-1h1
		c1.1,0,2-0.9,2-2v-1.9c0-1.1-0.9-2-2-2h-1v-1C28.6,12,27.7,11.2,26.6,11.2z"/>
</g>
<path class="st0" d="M-103.4,158.7l-0.4,1c-0.1,0.1-0.1,0.2-0.2,0.4c-0.6,2.6-2.6,5.5-4.8,8.4l-15.7-15.6l-8.3-0.1
	c-1.2,0-2.2-1-2.2-2.2c0-1.2,1-2.2,2.2-2.2l15.6-2.1l0.8-0.4c0.2-0.2,0.4-0.2,0.6-0.2c0.2,0,0.5,0.1,0.7,0.3l11.7,11.6
	C-103.1,157.9-103.1,158.4-103.4,158.7z M-107.2,172.9c0.9,0.9,0.9,2.5-0.2,3.3c-0.4,0.3-0.9,0.5-1.4,0.5c-0.6,0-1.2-0.2-1.7-0.7
	l-8.2-8.1c-0.2-0.2-0.5-0.3-0.8-0.3s-0.5,0.1-0.8,0.3c-0.4,0.4-0.4,1.1,0,1.5l10.5,10.4c0.9,0.9,0.9,2.5-0.2,3.3
	c-0.4,0.3-0.9,0.5-1.4,0.5c-0.6,0-1.2-0.2-1.7-0.7l-10.4-10.3c-0.2-0.2-0.5-0.3-0.8-0.3c-0.3,0-0.6,0.1-0.8,0.3
	c-0.4,0.4-0.4,1.1,0,1.5l8.2,8.1c0.9,0.9,0.9,2.5-0.2,3.3c-0.4,0.3-0.9,0.5-1.4,0.5c-0.6,0-1.2-0.2-1.7-0.7l-8.5-8.4
	c-0.1-0.7-0.5-1.3-1-1.8l0,0c-0.6-0.6-1.3-0.9-2.1-1.1c0.2-0.4,0.3-0.9,0.3-1.3c0-1-0.4-1.9-1.1-2.6l0,0l0,0
	c-0.7-0.7-1.6-1.1-2.6-1.1c-0.7,0-1.3,0.2-1.9,0.5c-0.2-0.7-0.5-1.2-1-1.7l0,0h0c-0.7-0.7-1.7-1.1-2.7-1.1s-1.9,0.4-2.6,1.1l0,0
	c-0.1-0.4-0.2-0.8-0.3-1.2c0-0.1-0.1-0.3-0.2-0.4l-5.3-5.8c-0.3-0.4-0.3-0.9,0.1-1.2l11.7-11.6c0.2-0.2,0.4-0.3,0.7-0.3
	c0.2,0,0.4,0.1,0.6,0.2l0.1,0.1c-0.8,0.8-1.3,1.8-1.3,3c0,2.3,1.9,4.2,4.2,4.2l7.5,0.1L-107.2,172.9z M-124.3,186.8
	c-0.5,0.6-1.1,0.8-1.8,0.8c-0.6,0-1.2-0.2-1.6-0.7l-0.2-0.2c0.2-0.1,0.4-0.3,0.6-0.5l0.9-0.9c0.7-0.7,1-1.5,1.1-2.3l0.7,0.7
	C-123.7,184.6-123.6,185.9-124.3,186.8z M-129.9,185.4c-0.4,0-0.9-0.2-1.2-0.5l0,0c-0.7-0.7-0.7-1.7,0-2.4l0.9-0.9
	c0.3-0.3,0.8-0.5,1.2-0.5c0.4,0,0.9,0.2,1.2,0.5l0,0c0.7,0.7,0.7,1.7,0,2.4l-0.9,0.9C-129.1,185.3-129.5,185.4-129.9,185.4z
	 M-132.9,181c-0.3,0.3-0.8,0.5-1.2,0.5s-0.9-0.2-1.2-0.5l0,0c-0.7-0.7-0.7-1.7,0-2.4l2.1-2c0.3-0.3,0.8-0.5,1.2-0.5
	c0.4,0,0.9,0.2,1.2,0.5l0,0c0.7,0.7,0.7,1.7,0,2.4L-132.9,181z M-137,177.1c-0.3,0.3-0.8,0.5-1.2,0.5s-0.9-0.2-1.2-0.5l0,0
	c-0.7-0.7-0.7-1.7,0-2.4l3.2-3.1c0.3-0.3,0.8-0.5,1.2-0.5c0.4,0,0.9,0.2,1.2,0.5l0,0c0.7,0.7,0.7,1.7,0,2.4L-137,177.1z
	 M-141.9,173.5c-0.4,0-0.9-0.2-1.2-0.5l0,0c-0.7-0.7-0.7-1.7,0-2.4l1.3-1.3c0.3-0.3,0.8-0.5,1.2-0.5s0.9,0.2,1.2,0.5l0,0
	c0.7,0.7,0.7,1.7,0,2.4l-1.3,1.3C-141,173.3-141.4,173.5-141.9,173.5z M-102,156.1l-11.7-11.6c-0.6-0.6-1.3-0.9-2.1-0.9
	c-0.6,0-1.2,0.2-1.7,0.6l-0.3,0.2l-15.1,2c-0.3,0-0.7,0.1-1,0.2l-0.5-0.5l-0.1-0.1c-0.5-0.5-1.2-0.7-1.9-0.7c-0.8,0-1.5,0.3-2.1,0.9
	l-11.7,11.6c-1.1,1-1.2,2.7-0.3,3.9l0.1,0.1l5,5.5c0.2,0.7,0.4,1.4,0.7,2.1c-1.2,1.4-1.1,3.6,0.2,5h0l0,0c0.7,0.7,1.6,1.1,2.6,1.1
	c0,0.1,0,0.3,0,0.5c0,1,0.4,1.9,1.1,2.6l0,0v0c0.7,0.7,1.7,1.1,2.6,1.1c0.1,0,0.2,0,0.3,0l0,0l0,0.1c0,1,0.4,1.9,1.1,2.6l0,0l0,0
	c0.7,0.7,1.6,1.1,2.6,1.1h0l0.3,0.3c0.1,0.9,0.4,1.8,1.1,2.5l0,0l0,0c0.7,0.7,1.5,1,2.5,1.1l1,1c0.8,0.8,1.9,1.2,3,1.2
	c1.3,0,2.5-0.6,3.3-1.6c0.4-0.6,0.7-1.2,0.8-1.9l0.6,0.6c0.8,0.8,1.9,1.3,3.1,1.3c0.9,0,1.9-0.3,2.6-0.9c0.8-0.6,1.4-1.6,1.6-2.6
	c0.8,0.7,1.8,1,2.9,1c0.9,0,1.9-0.3,2.6-0.9c1-0.7,1.5-1.9,1.6-3.1c0.1-1.1-0.3-2.2-1.1-3.1c0.7-0.1,1.3-0.4,1.9-0.8
	c1-0.7,1.5-1.9,1.6-3.1c0.1-1.2-0.4-2.4-1.2-3.2l-1.6-1.6l0.2-0.2c3-3.7,4.6-6.5,5.2-9c0-0.1,0.1-0.2,0.1-0.3l0.3-0.8
	C-100.9,158.5-101.1,157.1-102,156.1z"/>
</svg>
