<?xml version="1.0" encoding="utf-8"?>
<!-- Generator: Adobe Illustrator 24.0.1, SVG Export Plug-In . SVG Version: 6.00 Build 0)  -->
<svg version="1.1" id="Capa_1" xmlns="http://www.w3.org/2000/svg" xmlns:xlink="http://www.w3.org/1999/xlink" x="0px" y="0px"
	 viewBox="0 0 60 60" style="enable-background:new 0 0 60 60;" xml:space="preserve">
<style type="text/css">
	.st0{fill-rule:evenodd;clip-rule:evenodd;fill:#FFFFFF;}
</style>
<g>
	<path class="st0" d="M42.2,53.8L42.2,53.8c-0.4,0.5-0.9,0.9-1.5,1.2c-0.5,0.3-1.1,0.5-1.8,0.5l-0.3,0c-0.6,0-1.1-0.1-1.7-0.3
		c-0.5-0.2-1-0.5-1.4-0.9l-6.5-6.4c-0.2-0.2-0.4-0.6-0.4-0.9c0-0.3,0.1-0.7,0.4-0.9c0.2-0.3,0.6-0.4,0.9-0.4c0.3,0,0.7,0.1,0.9,0.4
		l6.5,6.4c0.2,0.2,0.5,0.3,0.7,0.4c0.3,0.1,0.6,0.1,0.8,0.1c0.2,0,0.5-0.1,0.7-0.2c0.2-0.1,0.4-0.2,0.6-0.5c3.3-3.8,7-9.9,10.1-14.2
		c0.2-0.3,0.5-0.4,0.8-0.5c0.3-0.1,0.7,0,0.9,0.2c0.3,0.2,0.5,0.5,0.5,0.8s0,0.7-0.2,1L42.2,53.8z M17.8,37.7
		c-0.2,0.2-0.5,0.4-0.9,0.4c-0.4,0-0.7-0.1-0.9-0.4c-0.2-0.2-0.4-0.6-0.4-0.9c0-0.3,0.1-0.7,0.4-0.9c0.2-0.2,0.5-0.4,0.9-0.4
		c0.3,0,0.7,0.1,0.9,0.4c0.2,0.2,0.4,0.6,0.4,0.9C18.1,37.1,18,37.4,17.8,37.7z M17.8,29.5c-0.2,0.2-0.5,0.4-0.9,0.4
		c-0.4,0-0.7-0.1-0.9-0.4s-0.4-0.5-0.4-0.9c0-0.4,0.1-0.7,0.4-0.9c0.2-0.2,0.5-0.4,0.9-0.4c0.3,0,0.7,0.1,0.9,0.4
		c0.2,0.2,0.4,0.6,0.4,0.9C18.1,28.9,18,29.2,17.8,29.5z M38.6,37.7c-0.2,0.2-0.5,0.4-0.9,0.4H24c-0.4,0-0.7-0.1-0.9-0.4
		c-0.2-0.2-0.4-0.6-0.4-0.9c0-0.3,0.1-0.7,0.4-0.9c0.2-0.2,0.5-0.4,0.9-0.4h13.8c0.3,0,0.7,0.1,0.9,0.4c0.2,0.2,0.4,0.6,0.4,0.9
		C39,37.1,38.9,37.4,38.6,37.7z M38.6,29.5c-0.2,0.2-0.5,0.4-0.9,0.4H23.9c-0.3,0-0.7-0.1-0.9-0.4c-0.2-0.2-0.4-0.6-0.4-0.9
		c0-0.4,0.1-0.7,0.4-0.9c0.2-0.2,0.5-0.4,0.9-0.4h13.9c0.3,0,0.7,0.1,0.9,0.4c0.2,0.2,0.4,0.6,0.4,0.9C39,28.9,38.9,29.2,38.6,29.5z
		 M25.3,7.1h4.8V14c0,0.8-0.3,1.5-0.8,2c-0.5,0.5-1.2,0.8-2,0.8c-0.8,0-1.5-0.3-2-0.8c-0.5-0.5-0.8-1.2-0.8-2V7.1H25.3z M26.3,52.9
		H14.8c-1.3,0-2.5-0.5-3.4-1.4c-0.9-0.9-1.4-2.1-1.4-3.4v-31c0-1.3,0.5-2.6,1.4-3.4c0.9-0.9,2.1-1.4,3.4-1.4H22V14
		c0,1.5,0.6,2.8,1.6,3.8c1,1,2.3,1.6,3.8,1.6c1.5,0,2.8-0.6,3.8-1.6s1.6-2.3,1.6-3.8v-1.8h7.1c1.3,0,2.5,0.5,3.4,1.4
		c0.9,0.9,1.4,2.1,1.4,3.4v15.6c0,0.3,0.1,0.7,0.4,0.9c0.2,0.2,0.5,0.4,0.9,0.4c0.3,0,0.7-0.1,0.9-0.4c0.2-0.2,0.4-0.6,0.4-0.9V17.1
		c0-2.1-0.8-3.9-2.2-5.3c-1.3-1.3-3.2-2.2-5.2-2.2h-7.1V5.8c0-0.3-0.1-0.7-0.4-0.9c-0.2-0.2-0.5-0.4-0.9-0.4h-8.1
		c-0.3,0-0.7,0.1-0.9,0.4C22.1,5.1,22,5.4,22,5.8v3.9h-7.1c-2,0-3.9,0.8-5.2,2.2c-1.3,1.3-2.2,3.2-2.2,5.3v31c0,2.1,0.8,3.9,2.2,5.3
		c1.3,1.3,3.2,2.2,5.2,2.2h11.5c0.3,0,0.7-0.1,0.9-0.4c0.2-0.2,0.4-0.6,0.4-0.9c0-0.4-0.1-0.7-0.4-0.9C27,53.1,26.7,52.9,26.3,52.9
		L26.3,52.9z"/>
</g>
<g>
	<path class="st0" d="M-75.2,65.4h4.9v0.8h-4.9V65.4z M-75.8,62.8h6.4v0.8h-6.4V62.8z M-69,60.1v0.8h-7.1v-0.8H-69z M-69.3,58.2
		h-6.9v-0.8h6.9V58.2z M-69.8,55.5h-5.4v-0.8h5.4V55.5z M-73.7,68.1h2.5V69h-2.5V68.1z M-71.5,52.6H-74v-0.8h2.5V52.6z M-59.9,77.2
		c-4.5,0-8.5-1.8-11.6-4.6c2.9-3.3,4.6-7.5,4.6-12.2s-1.8-9-4.6-12.2c3-2.9,7.1-4.6,11.6-4.6c9.3,0,16.9,7.5,16.9,16.8
		C-43,69.6-50.6,77.2-59.9,77.2z M-76.7,60.4c0-4.2,1.6-8.1,4.1-11c2.6,3,4.1,6.8,4.1,11s-1.6,8.1-4.1,11
		C-75.2,68.4-76.7,64.6-76.7,60.4z M-85.3,77.2c-9.3,0-16.9-7.5-16.9-16.8c0-9.3,7.6-16.8,16.9-16.8c4.5,0,8.5,1.8,11.6,4.6
		c-2.9,3.3-4.6,7.5-4.6,12.2s1.8,9,4.6,12.2C-76.8,75.4-80.8,77.2-85.3,77.2z M-59.9,41.8c-4.9,0-9.4,1.9-12.7,5.1
		c-3.3-3.1-7.8-5.1-12.7-5.1c-10.2,0-18.5,8.3-18.5,18.5s8.3,18.5,18.5,18.5c4.9,0,9.4-1.9,12.7-5.1c3.3,3.1,7.8,5.1,12.7,5.1
		c10.2,0,18.5-8.3,18.5-18.5S-49.7,41.8-59.9,41.8z"/>
</g>
<g>
	<path class="st0" d="M-129.5,109.3c-0.3,0-0.6,0.1-0.8,0.3c-0.2,0.2-0.3,0.5-0.3,0.8c0,0.3,0.1,0.6,0.3,0.8
		c0.2,0.2,0.5,0.3,0.8,0.3c0.3,0,0.6-0.1,0.8-0.3c0.2-0.2,0.3-0.5,0.3-0.8c0-0.3-0.1-0.6-0.3-0.8
		C-128.9,109.4-129.2,109.3-129.5,109.3z"/>
	<path class="st0" d="M-105.7,128.9c-0.3,0.6-0.9,1-1.5,1.2c-0.7,0.2-1.3,0.1-1.9-0.2c-1.2-0.7-1.6-2.2-0.9-3.4
		c0.6-1.1,1.2-2.3,1.6-3.5l1.2,0.2c0.1,0,0.1,0,0.2,0c0.5,0,0.9-0.3,1-0.8c0.1-0.5-0.1-1-0.6-1.2l-1.2-0.4c0.2-0.9,0.3-1.9,0.4-2.8
		h5.1C-102.7,121.7-103.8,125.5-105.7,128.9z M-109.6,108.3l4.4-2.5c1.3,2.5,2.1,5.2,2.5,8c0.1,0.7,0.1,1.4,0.2,2.1h-5.1
		c0-0.5-0.1-1-0.1-1.5C-108,112.2-108.6,110.2-109.6,108.3z M-116.2,100.9l2.5-4.4c1.5,0.9,2.8,2,4.1,3.3c1.3,1.3,2.4,2.6,3.3,4.1
		l-4.4,2.5c-0.7-1.1-1.5-2.1-2.5-3.1C-114.1,102.5-115.1,101.6-116.2,100.9z M-137.7,95.5c3.1-1.6,6.6-2.5,10.1-2.7v5.1
		c-2.7,0.1-5.3,0.8-7.6,2L-137.7,95.5z M-125.5,97.9v-5.1c3.6,0.1,7,1.1,10.1,2.7l-2.5,4.4C-120.3,98.7-122.9,98-125.5,97.9z
		 M-122,118.6L-122,118.6l-4.9-0.8c-0.2,0-0.4-0.2-0.5-0.3c-0.2-0.3-0.2-0.6-0.1-0.9c0.1-0.3,0.3-0.5,0.5-0.7c0.1,0,0.2-0.1,0.4-0.1
		c0.1,0,0.1,0,0.2,0l4.7,1.8l0,0l4.7,1.8L-122,118.6z M-129.5,119.8c-1.6-1.6-1.6-4.3,0-5.9c1.6-1.6,4.3-1.6,5.9,0
		c0.3,0.3,0.6,0.7,0.8,1.2l-2.9-1.1c-0.7-0.3-1.5-0.2-2.2,0.1c-0.8,0.4-1.4,1.1-1.6,2c-0.2,0.8-0.1,1.8,0.4,2.5
		c0.4,0.7,1.1,1.1,1.9,1.2l3.1,0.5C-125.8,121.4-128.1,121.3-129.5,119.8z M-145.4,114.4c-0.1,0.5-0.1,1-0.1,1.5h-5.1
		c0-0.7,0.1-1.4,0.2-2.1c0.4-2.8,1.2-5.5,2.5-8l4.4,2.5C-144.5,110.2-145.1,112.2-145.4,114.4z M-143,126.4c0.3,0.6,0.4,1.3,0.2,1.9
		c-0.2,0.7-0.6,1.2-1.2,1.5c-0.6,0.3-1.3,0.4-1.9,0.2c-0.7-0.2-1.2-0.6-1.5-1.2c-2-3.4-3.1-7.1-3.2-11h5.1
		C-145.4,120.8-144.5,123.8-143,126.4z M-100.7,113.5c-0.7-5.7-3.4-11-7.4-15.1c-4.9-4.9-11.5-7.7-18.5-7.7
		c-5.5,0-10.7,1.7-15.1,4.8c-0.5,0.3-0.6,1-0.2,1.4c0.3,0.5,1,0.6,1.4,0.3c0.3-0.2,0.7-0.5,1-0.7l2.5,4.4c-1.1,0.7-2.1,1.5-3.1,2.5
		c-0.9,0.9-1.8,2-2.5,3.1l-4.4-2.5c0.5-0.7,1-1.4,1.5-2.1c0.3-0.4,0.3-1.1-0.2-1.4c-0.4-0.4-1.1-0.3-1.4,0.2
		c-2.9,3.7-4.8,8.1-5.5,12.9c-0.7,5.7,0.4,11.5,3.3,16.4c0.6,1.1,1.6,1.8,2.8,2.1c0.4,0.1,0.8,0.2,1.2,0.2c0.8,0,1.6-0.2,2.3-0.6
		c1.1-0.6,1.8-1.6,2.1-2.8c0.3-1.2,0.2-2.4-0.5-3.5c-1.9-3.3-2.6-7-2.1-10.7c0.5-3.7,2.2-7.1,4.8-9.8c3.2-3.2,7.5-5,12-5
		c4.5,0,8.8,1.8,12,5c2.7,2.7,4.3,6.1,4.8,9.8c0.2,1.8,0.2,3.6-0.1,5.3l-10.5-4c-0.2-1.3-0.8-2.5-1.8-3.5c-2.4-2.4-6.4-2.4-8.8,0
		c-2.4,2.4-2.4,6.4,0,8.8c1.2,1.2,2.8,1.8,4.4,1.8c1.6,0,3.2-0.6,4.4-1.8c0.2-0.2,0.3-0.3,0.5-0.5l11.1,1.8c-0.3,1-0.8,1.9-1.3,2.8
		c-1.3,2.2-0.5,5,1.7,6.2c1.1,0.6,2.3,0.8,3.5,0.5c1.2-0.3,2.1-1.1,2.8-2.1C-101.1,124.9-99.9,119.1-100.7,113.5z"/>
	<path class="st0" d="M-121.5,130.1h-10.2v-1.2h10.2V130.1z M-120.4,126.9h-12.2c-0.6,0-1,0.5-1,1v3.3c0,0.6,0.5,1,1,1h12.2
		c0.6,0,1-0.5,1-1v-3.3C-119.4,127.3-119.9,126.9-120.4,126.9z"/>
	<path class="st0" d="M-141.6,115.8c-0.6,0-1,0.5-1,1c0,0.6,0.5,1,1,1h0c0.6,0,1-0.5,1-1C-140.6,116.3-141,115.8-141.6,115.8
		L-141.6,115.8z"/>
	<path class="st0" d="M-133.2,103.3L-133.2,103.3c-0.3-0.5-0.9-0.7-1.4-0.4c-0.5,0.3-0.7,0.9-0.4,1.4l0,0c0.2,0.3,0.5,0.5,0.9,0.5
		c0.2,0,0.3,0,0.5-0.1C-133.1,104.4-132.9,103.8-133.2,103.3z"/>
	<path class="st0" d="M-119,104.9c0.3,0,0.7-0.2,0.9-0.5l0,0c0.3-0.5,0.1-1.1-0.4-1.4c-0.5-0.3-1.1-0.1-1.4,0.4l0,0
		c-0.3,0.5-0.1,1.1,0.4,1.4C-119.4,104.8-119.2,104.9-119,104.9z"/>
	<path class="st0" d="M-111.5,117.9c0.6,0,1-0.5,1-1s-0.5-1-1-1h0c-0.6,0-1,0.5-1,1S-112.1,117.9-111.5,117.9L-111.5,117.9z"/>
	<path class="st0" d="M-130.1,133.2L-130.1,133.2c-0.6,0-1,0.5-1,1c0,0.6,0.5,1,1,1h0c0.6,0,1-0.5,1-1
		C-129.1,133.6-129.5,133.2-130.1,133.2z"/>
	<path class="st0" d="M-123,133.2h-4.2c-0.6,0-1,0.5-1,1c0,0.6,0.5,1,1,1h4.2c0.6,0,1-0.5,1-1C-122,133.6-122.4,133.2-123,133.2z"/>
</g>
<g>
	<path class="st0" d="M-69.4,137.4L-69.4,137.4c-0.5,0-0.9,0.4-0.9,0.9s0.4,0.9,0.9,0.9h0c0.5,0,0.9-0.4,0.9-0.9
		S-68.9,137.4-69.4,137.4z"/>
	<path class="st0" d="M-73.8,113.9c0,0.5,0.4,0.9,0.9,0.9h12.8c0.5,0,0.9-0.4,0.9-0.9s-0.4-0.9-0.9-0.9h-12.8
		C-73.4,113-73.8,113.4-73.8,113.9z"/>
	<path class="st0" d="M-44.1,102.4l-10.5,21.1l-3.6-1.8l7.4-14.8l3.1-6.3c0.7-1.4,2-1.2,2.7-0.9C-44.4,100-43.4,101-44.1,102.4z
		 M-59,127.7l0.3-4.2l2.8,1.4L-59,127.7z M-55.9,99.4c-0.9,0-1.5-0.7-1.5-1.5v-2.3l3.6,3.9H-55.9z M-44.2,98c-1.7-0.9-4-0.6-5.1,1.7
		l-1.4,2.8v-2.2c0-0.2-0.1-0.5-0.2-0.6l0,0l-6.7-7.1c-0.2-0.2-0.4-0.3-0.7-0.3h-26.2c-1.9,0-3.5,1.6-3.5,3.6v39.9
		c0,2,1.6,3.6,3.5,3.6h11.5c0.5,0,0.9-0.4,0.9-0.9s-0.4-0.9-0.9-0.9h-11.5c-0.9,0-1.7-0.8-1.7-1.7V95.8c0-0.9,0.8-1.7,1.7-1.7h25.3
		v3.7c0,1.9,1.5,3.4,3.4,3.4h3.3v5L-60,121l-0.1,0l-12.8,0c-0.5,0-0.9,0.4-0.9,0.9s0.4,0.9,0.9,0.9h12.5l-0.5,6.1h-12
		c-0.5,0-0.9,0.4-0.9,0.9s0.4,0.9,0.9,0.9h12.8c0.2,0,0.4-0.1,0.6-0.2l5.9-5.2c0.1-0.1,0.2-0.2,0.2-0.3h0v0l0.8-1.6v12.3
		c0,0.9-0.8,1.7-1.7,1.7h-11.5c-0.5,0-0.9,0.4-0.9,0.9s0.4,0.9,0.9,0.9h11.5c1.9,0,3.5-1.6,3.5-3.6v-16l8.3-16.6
		C-41.4,100.9-42.5,98.9-44.2,98z"/>
	<path class="st0" d="M-76.3,118.7c-0.4-0.3-1-0.2-1.3,0.2l-2.7,3.8L-81,122c-0.4-0.3-1-0.3-1.3,0.1c-0.3,0.4-0.3,1,0.1,1.3l1.5,1.3
		c0.2,0.2,0.4,0.2,0.6,0.2l0.1,0c0.3,0,0.5-0.2,0.6-0.4l3.3-4.6C-75.8,119.6-75.9,119-76.3,118.7z"/>
	<path class="st0" d="M-76.3,125.9c-0.4-0.3-1-0.2-1.3,0.2l-2.7,3.8l-0.7-0.7c-0.4-0.3-1-0.3-1.3,0.1c-0.3,0.4-0.3,1,0.1,1.3
		l1.5,1.3c0.2,0.1,0.4,0.2,0.6,0.2l0.1,0c0.3,0,0.5-0.2,0.6-0.4l3.3-4.6C-75.8,126.8-75.9,126.2-76.3,125.9L-76.3,125.9z"/>
	<path class="st0" d="M-82.2,116.2l1.5,1.3c0.2,0.1,0.4,0.2,0.6,0.2h0.1c0.3,0,0.5-0.2,0.6-0.4l3.3-4.6c0.3-0.4,0.2-1-0.2-1.3
		c-0.4-0.3-1-0.2-1.3,0.2l-2.7,3.8l-0.7-0.7c-0.4-0.3-1-0.3-1.3,0.1C-82.6,115.3-82.6,115.9-82.2,116.2z"/>
	<path class="st0" d="M-65.5,101.8c0.1,0,0.1,0.1,0.1,0.1v1.9c0,0.1-0.1,0.1-0.1,0.1h-1.9c-0.5,0-0.9,0.4-0.9,0.9v2
		c0,0.1-0.1,0.1-0.1,0.1h-1.8c-0.1,0-0.1-0.1-0.1-0.1v-2c0-0.5-0.4-0.9-0.9-0.9h-1.9c-0.1,0-0.1-0.1-0.1-0.1v-1.9
		c0-0.1,0.1-0.1,0.1-0.1h1.9c0.5,0,0.9-0.4,0.9-0.9v-2c0-0.1,0.1-0.1,0.1-0.1h1.8c0.1,0,0.1,0.1,0.1,0.1v2c0,0.5,0.4,0.9,0.9,0.9
		H-65.5z M-68.5,96.9h-1.8c-1.1,0-2,0.9-2,2v1h-1c-1.1,0-2,0.9-2,2v1.9c0,1.1,0.9,2,2,2h1v1c0,1.1,0.9,2,2,2h1.8c1.1,0,2-0.9,2-2v-1
		h1c1.1,0,2-0.9,2-2v-1.9c0-1.1-0.9-2-2-2h-1v-1C-66.5,97.8-67.4,96.9-68.5,96.9z"/>
</g>
<path class="st0" d="M-103.4,158.7l-0.4,1c-0.1,0.1-0.1,0.2-0.2,0.4c-0.6,2.6-2.6,5.5-4.8,8.4l-15.7-15.6l-8.3-0.1
	c-1.2,0-2.2-1-2.2-2.2c0-1.2,1-2.2,2.2-2.2l15.6-2.1l0.8-0.4c0.2-0.2,0.4-0.2,0.6-0.2c0.2,0,0.5,0.1,0.7,0.3l11.7,11.6
	C-103.1,157.9-103.1,158.4-103.4,158.7z M-107.2,172.9c0.9,0.9,0.9,2.5-0.2,3.3c-0.4,0.3-0.9,0.5-1.4,0.5c-0.6,0-1.2-0.2-1.7-0.7
	l-8.2-8.1c-0.2-0.2-0.5-0.3-0.8-0.3s-0.5,0.1-0.8,0.3c-0.4,0.4-0.4,1.1,0,1.5l10.5,10.4c0.9,0.9,0.9,2.5-0.2,3.3
	c-0.4,0.3-0.9,0.5-1.4,0.5c-0.6,0-1.2-0.2-1.7-0.7l-10.4-10.3c-0.2-0.2-0.5-0.3-0.8-0.3c-0.3,0-0.6,0.1-0.8,0.3
	c-0.4,0.4-0.4,1.1,0,1.5l8.2,8.1c0.9,0.9,0.9,2.5-0.2,3.3c-0.4,0.3-0.9,0.5-1.4,0.5c-0.6,0-1.2-0.2-1.7-0.7l-8.5-8.4
	c-0.1-0.7-0.5-1.3-1-1.8l0,0c-0.6-0.6-1.3-0.9-2.1-1.1c0.2-0.4,0.3-0.9,0.3-1.3c0-1-0.4-1.9-1.1-2.6l0,0l0,0
	c-0.7-0.7-1.6-1.1-2.6-1.1c-0.7,0-1.3,0.2-1.9,0.5c-0.2-0.7-0.5-1.2-1-1.7l0,0h0c-0.7-0.7-1.7-1.1-2.7-1.1s-1.9,0.4-2.6,1.1l0,0
	c-0.1-0.4-0.2-0.8-0.3-1.2c0-0.1-0.1-0.3-0.2-0.4l-5.3-5.8c-0.3-0.4-0.3-0.9,0.1-1.2l11.7-11.6c0.2-0.2,0.4-0.3,0.7-0.3
	c0.2,0,0.4,0.1,0.6,0.2l0.1,0.1c-0.8,0.8-1.3,1.8-1.3,3c0,2.3,1.9,4.2,4.2,4.2l7.5,0.1L-107.2,172.9z M-124.3,186.8
	c-0.5,0.6-1.1,0.8-1.8,0.8c-0.6,0-1.2-0.2-1.6-0.7l-0.2-0.2c0.2-0.1,0.4-0.3,0.6-0.5l0.9-0.9c0.7-0.7,1-1.5,1.1-2.3l0.7,0.7
	C-123.7,184.6-123.6,185.9-124.3,186.8z M-129.9,185.4c-0.4,0-0.9-0.2-1.2-0.5l0,0c-0.7-0.7-0.7-1.7,0-2.4l0.9-0.9
	c0.3-0.3,0.8-0.5,1.2-0.5c0.4,0,0.9,0.2,1.2,0.5l0,0c0.7,0.7,0.7,1.7,0,2.4l-0.9,0.9C-129.1,185.3-129.5,185.4-129.9,185.4z
	 M-132.9,181c-0.3,0.3-0.8,0.5-1.2,0.5s-0.9-0.2-1.2-0.5l0,0c-0.7-0.7-0.7-1.7,0-2.4l2.1-2c0.3-0.3,0.8-0.5,1.2-0.5
	c0.4,0,0.9,0.2,1.2,0.5l0,0c0.7,0.7,0.7,1.7,0,2.4L-132.9,181z M-137,177.1c-0.3,0.3-0.8,0.5-1.2,0.5s-0.9-0.2-1.2-0.5l0,0
	c-0.7-0.7-0.7-1.7,0-2.4l3.2-3.1c0.3-0.3,0.8-0.5,1.2-0.5c0.4,0,0.9,0.2,1.2,0.5l0,0c0.7,0.7,0.7,1.7,0,2.4L-137,177.1z
	 M-141.9,173.5c-0.4,0-0.9-0.2-1.2-0.5l0,0c-0.7-0.7-0.7-1.7,0-2.4l1.3-1.3c0.3-0.3,0.8-0.5,1.2-0.5s0.9,0.2,1.2,0.5l0,0
	c0.7,0.7,0.7,1.7,0,2.4l-1.3,1.3C-141,173.3-141.4,173.5-141.9,173.5z M-102,156.1l-11.7-11.6c-0.6-0.6-1.3-0.9-2.1-0.9
	c-0.6,0-1.2,0.2-1.7,0.6l-0.3,0.2l-15.1,2c-0.3,0-0.7,0.1-1,0.2l-0.5-0.5l-0.1-0.1c-0.5-0.5-1.2-0.7-1.9-0.7c-0.8,0-1.5,0.3-2.1,0.9
	l-11.7,11.6c-1.1,1-1.2,2.7-0.3,3.9l0.1,0.1l5,5.5c0.2,0.7,0.4,1.4,0.7,2.1c-1.2,1.4-1.1,3.6,0.2,5h0l0,0c0.7,0.7,1.6,1.1,2.6,1.1
	c0,0.1,0,0.3,0,0.5c0,1,0.4,1.9,1.1,2.6l0,0v0c0.7,0.7,1.7,1.1,2.6,1.1c0.1,0,0.2,0,0.3,0l0,0l0,0.1c0,1,0.4,1.9,1.1,2.6l0,0l0,0
	c0.7,0.7,1.6,1.1,2.6,1.1h0l0.3,0.3c0.1,0.9,0.4,1.8,1.1,2.5l0,0l0,0c0.7,0.7,1.5,1,2.5,1.1l1,1c0.8,0.8,1.9,1.2,3,1.2
	c1.3,0,2.5-0.6,3.3-1.6c0.4-0.6,0.7-1.2,0.8-1.9l0.6,0.6c0.8,0.8,1.9,1.3,3.1,1.3c0.9,0,1.9-0.3,2.6-0.9c0.8-0.6,1.4-1.6,1.6-2.6
	c0.8,0.7,1.8,1,2.9,1c0.9,0,1.9-0.3,2.6-0.9c1-0.7,1.5-1.9,1.6-3.1c0.1-1.1-0.3-2.2-1.1-3.1c0.7-0.1,1.3-0.4,1.9-0.8
	c1-0.7,1.5-1.9,1.6-3.1c0.1-1.2-0.4-2.4-1.2-3.2l-1.6-1.6l0.2-0.2c3-3.7,4.6-6.5,5.2-9c0-0.1,0.1-0.2,0.1-0.3l0.3-0.8
	C-100.9,158.5-101.1,157.1-102,156.1z"/>
</svg>
