<svg xmlns="http://www.w3.org/2000/svg" xmlns:xlink="http://www.w3.org/1999/xlink" x="0px" y="0px" viewBox="0 0 90 90" style="enable-background:new 0 0 90 90;" xml:space="preserve">
<style type="text/css">
	.st0{fill-rule:evenodd;clip-rule:evenodd;fill:#C861AE;}
	.st1{fill-rule:evenodd;clip-rule:evenodd;fill:#FFFFFF;}
</style>
<g>
	<g>
		<path class="st1" d="M55.04,25H26.56C24.6,25,23,26.6,23,28.59v22.93c0,1.63,1.09,3.05,2.67,3.47l0.36-1.39 c-0.95-0.24-1.6-1.11-1.6-2.08V28.59c0-1.19,0.95-2.15,2.13-2.15h28.48c1.17,0,2.13,0.96,2.13,2.15v0.71l1.43,0.01v-0.72 C58.59,26.6,57,25,55.04,25z"/>
	</g>
	<g>
		<rect x="25.85" y="27.87" class="st1" width="1.41" height="1.44"/>
	</g>
	<g>
		<rect x="28.69" y="27.87" class="st1" width="1.43" height="1.44"/>
	</g>
	<g>
		<rect x="31.55" y="27.87" class="st1" width="1.41" height="1.44"/>
	</g>
	<g>
		<path class="st1" d="M62.15,66.27l-5.99-6.03c0.39-0.37,0.75-0.77,1.08-1.19l6.04,6.08L62.15,66.27z M49.33,61.55 c-4.71,0-8.53-3.85-8.53-8.6s3.83-8.6,8.53-8.6c4.72,0,8.55,3.85,8.55,8.6S54.05,61.55,49.33,61.55z M64.79,64.63l-6.75-6.8 c0.36-0.64,0.64-1.31,0.84-2.01h1.13v-1.43h-0.83c0.27-1.73,0.07-3.52-0.59-5.13V42.2h-1.43v4.56c-0.43-0.55-0.91-1.04-1.43-1.48 v-5.95h-1.43v4.95c-0.45-0.27-0.93-0.51-1.43-0.69v-7.12h-1.41v6.69c-0.48-0.11-0.95-0.17-1.43-0.21v-5.05h-1.43v5.05 c-0.48,0.04-0.96,0.11-1.43,0.21v-2.4h-1.41v2.83c-0.49,0.19-0.97,0.43-1.43,0.69v-4.23h-1.43v5.23c-0.52,0.44-1,0.93-1.43,1.48 v-5.28h-1.43v7.77c-0.65,1.61-0.87,3.4-0.59,5.13h-9.37v1.43h9.67c1.57,5.31,7.11,8.33,12.37,6.76c1.03-0.31,2.01-0.79,2.89-1.41 l6.6,6.63c0.28,0.28,0.72,0.28,1,0l2.13-2.15C65.07,65.36,65.07,64.91,64.79,64.63z"/>
	</g>
	<g>
		<path class="st1" d="M43.83,54.39c-0.57-2.19,0.2-4.51,1.95-5.91l0.01,4.47h1.41v-5.31c0.47-0.19,0.93-0.31,1.43-0.37v5.68h1.43 v-5.68c0.48,0.07,0.96,0.19,1.43,0.37v5.31h1.41v-4.47c1.76,1.4,2.52,3.72,1.96,5.91H43.83z M49.33,58.68 c-2.03,0-3.91-1.09-4.92-2.87h9.85C53.25,57.59,51.37,58.68,49.33,58.68z M49.33,45.79c-3.92,0-7.11,3.2-7.11,7.16 s3.19,7.17,7.11,7.17c3.93,0,7.12-3.21,7.12-7.17C56.45,49,53.27,45.79,49.33,45.79z"/>
	</g>
	<g>
		<path class="st1" d="M59.31,30.73H30.83c-1.96,0-3.55,1.6-3.56,3.59v22.93c0.01,1.97,1.6,3.57,3.56,3.57h9.25V59.4h-9.25 c-1.17,0-2.13-0.96-2.13-2.15V34.32c0-1.19,0.96-2.15,2.13-2.15h28.48c1.17,0,2.13,0.96,2.13,2.15v22.93 c0,0.52-0.19,1.03-0.53,1.41l1.07,0.95c0.57-0.65,0.89-1.49,0.89-2.36V34.32C62.87,32.33,61.27,30.73,59.31,30.73z"/>
	</g>
	<g>
		<rect x="30.12" y="33.6" class="st1" width="1.43" height="1.43"/>
	</g>
	<g>
		<rect x="32.96" y="33.6" class="st1" width="1.43" height="1.43"/>
	</g>
	<g>
		<rect x="35.81" y="33.6" class="st1" width="1.43" height="1.43"/>
	</g>
	<g>
		<rect x="31.55" y="48.65" class="st1" width="1.41" height="4.29"/>
	</g>
	<g>
		<rect x="34.39" y="44.35" class="st1" width="1.43" height="8.6"/>
	</g>
	<g>
		<rect x="37.24" y="46.51" class="st1" width="1.43" height="6.44"/>
	</g>
</g>
</svg>
