<?xml version="1.0" encoding="utf-8"?>
<!-- Generator: Adobe Illustrator 24.0.1, SVG Export Plug-In . SVG Version: 6.00 Build 0)  -->
<svg version="1.1" id="Capa_1" xmlns="http://www.w3.org/2000/svg" xmlns:xlink="http://www.w3.org/1999/xlink" x="0px" y="0px"
	 viewBox="0 0 60 60" style="enable-background:new 0 0 60 60;" xml:space="preserve">
<style type="text/css">
	.st0{fill:#FFFFFF;}
</style>
<g>
	<path class="st0" d="M37.4,9.5H32c-0.7,0-1.3-0.6-1.3-1.3c0-0.7,0.6-1.3,1.3-1.3h5.4c0.7,0,1.3,0.6,1.3,1.3
		C38.7,8.9,38.1,9.5,37.4,9.5z M18.9,14.8h-2.4c-0.7,0-1.3-0.6-1.3-1.3c0-0.7,0.6-1.3,1.3-1.3h2.4c0.7,0,1.3,0.6,1.3,1.3
		C20.2,14.3,19.6,14.8,18.9,14.8z M27,4.6c-0.9,0-1.5,0.7-1.5,1.5v6.7c0,0.8,0.7,1.5,1.5,1.5h11.1c0.4,0,0.7,0.1,1,0.4l2.1,2.3v-11
		c0-0.8-0.7-1.5-1.5-1.5H27z M42.5,21.7c-0.4,0-0.7-0.1-1-0.4l-4-4.4H27c-2.3,0-4.1-1.8-4.1-4.1V6.1C22.9,3.8,24.7,2,27,2h12.6
		c2.3,0,4.1,1.8,4.1,4.1v14.3c0,0.5-0.3,1-0.8,1.2C42.8,21.7,42.7,21.7,42.5,21.7z M11.7,24.4c-0.2,0-0.5-0.1-0.7-0.2
		c-0.4-0.2-0.6-0.7-0.6-1.1V11.5c0-2.3,1.9-4.1,4.1-4.1h4.6c0.7,0,1.3,0.6,1.3,1.3c0,0.7-0.6,1.3-1.3,1.3h-4.6
		c-0.8,0-1.5,0.7-1.5,1.5v9.4l1.8-1c0.2-0.1,0.4-0.2,0.6-0.2h11.3c0.7,0,1.3,0.6,1.3,1.3c0,0.7-0.6,1.3-1.3,1.3H15.8l-3.4,1.9
		C12.1,24.3,11.9,24.4,11.7,24.4z M40.2,27.9c-1.1,0.7-1.8,1.9-1.8,3.3c0,2.2,1.8,4.1,4.1,4.1c2.3,0,4.1-1.8,4.1-4.1
		c0-1.7-1-3.1-2.5-3.7c-0.5,0.7-1.2,1.3-2,1.7c-0.6,0.3-1.4,0.1-1.8-0.5C40.2,28.5,40.1,28.2,40.2,27.9z M42.5,37.9
		c-3.7,0-6.7-3-6.7-6.6s3-6.6,6.7-6.6c0.4,0,0.9,0,1.3,0.1l0.1,0c3,0.6,5.3,3.3,5.3,6.5C49.2,34.9,46.2,37.9,42.5,37.9z M17.5,27.7
		c0.6,1.3,1.9,2.3,3.5,2.3C20.4,28.7,19.1,27.7,17.5,27.7z M15,28.4c-1,0.7-1.7,1.9-1.7,3.2c0,2.2,1.8,4,4,4c1.9,0,3.4-1.3,3.9-3
		C18.4,32.6,16,30.9,15,28.4z M17.3,38.2c-3.6,0-6.6-2.9-6.6-6.5c0-3,2-5.5,4.7-6.3h0c0.4-0.1,0.9-0.2,1.3-0.2l0,0h0h0l0,0h0l0,0h0
		H17l0,0h0l0,0h0h0l0,0h0l0,0l0,0h0h0.2l0,0h0h0h0h0h0c3.2,0,5.9,2.3,6.5,5.5c0.1,0.4,0.1,0.7,0.1,1.1C23.9,35.2,21,38.2,17.3,38.2z
		 M48.4,48.6c-0.7,0-1.3-0.6-1.3-1.3v-0.2c0-0.7,0.6-1.3,1.3-1.3s1.3,0.6,1.3,1.3v0.2C49.7,48,49.1,48.6,48.4,48.6z M22.6,58H8.8
		c-0.7,0-1.3-0.6-1.3-1.3c0-0.7,0.6-1.3,1.3-1.3h13.8c0.7,0,1.3,0.6,1.3,1.3C23.9,57.4,23.3,58,22.6,58z M15.6,42.6l1.7,2.3l1.7-2.3
		H15.6z M3.3,58c-0.2,0-0.3,0-0.5-0.1c-0.7-0.3-1-1-0.7-1.7l3.3-7.9c1.4-3.5,4-8.2,9.8-8.2h4.3c3.1,0,5.7,1.4,7.7,4.1l0.3,0.5
		l0.9,1.1c0.4,0.6,0.2,1.4-0.4,1.8c-0.6,0.4-1.4,0.2-1.8-0.4l-0.8-1.1L25,45.7c-0.9-1.3-1.9-2.1-3.1-2.6l-3.6,4.9
		c-0.2,0.3-0.6,0.5-1,0.5s-0.8-0.2-1.1-0.5l-3.6-4.9c-2,0.8-3.6,2.8-5,6.2l-3.2,7.9C4.3,57.7,3.8,58,3.3,58z M42.1,44.4h0.9l0.4-2
		h-1.7L42.1,44.4z M41.4,53.7l1.1,0.9l1.1-0.9L42.8,47h-0.7L41.4,53.7z M56.7,58c-0.5,0-1-0.3-1.2-0.8l-3.3-8.1
		c-1.7-4.1-3.6-6.1-6.2-6.6l-0.7,3.2l0.9,8.4c0.1,0.4-0.1,0.9-0.5,1.2l-2.1,1.7c-0.2,0.2-0.5,0.3-0.8,0.3h-0.7
		c-0.3,0-0.6-0.1-0.8-0.3l-2.1-1.7c-0.3-0.3-0.5-0.7-0.5-1.2l0.9-8.4L39,42.5c-2.7,0.5-4.6,2.5-6.3,6.6l-3.3,8.1
		c-0.3,0.7-1,1-1.7,0.7s-1-1-0.7-1.7l3.3-8.1c1.4-3.5,4-8.1,9.5-8.3l0.1,0H45l0.1,0c5.6,0.2,8.1,4.8,9.5,8.3l3.3,8.1
		c0.3,0.7-0.1,1.4-0.7,1.7C57,58,56.9,58,56.7,58z"/>
</g>
</svg>
