<?xml version="1.0" encoding="utf-8"?>
<!-- Generator: Adobe Illustrator 24.0.1, SVG Export Plug-In . SVG Version: 6.00 Build 0)  -->
<svg version="1.1" id="Capa_1" xmlns="http://www.w3.org/2000/svg" xmlns:xlink="http://www.w3.org/1999/xlink" x="0px" y="0px"
	 viewBox="0 0 60 60" style="enable-background:new 0 0 60 60;" xml:space="preserve">
<style type="text/css">
	.st0{fill-rule:evenodd;clip-rule:evenodd;fill:#B5BE34;}
</style>
<g>
	<path class="st0" d="M30,59C14,59,1,46,1,30S14,1,30,1s29,13,29,29S46,59,30,59z M30,1.4C14.2,1.4,1.4,14.2,1.4,30
		S14.2,58.6,30,58.6S58.6,45.8,58.6,30S45.8,1.4,30,1.4z"/>
	<path class="st0" d="M30,59C14,59,1,46,1,30c0-0.8,0.7-1.5,1.5-1.5S4,29.2,4,30c0,14.3,11.7,26,26,26s26-11.7,26-26S44.3,4,30,4
		c-0.8,0-1.5-0.7-1.5-1.5S29.2,1,30,1c16,0,29,13,29,29S46,59,30,59z"/>
	<path class="st0" d="M26.9,40c1.1,0,2.1-0.9,2.1-2c0-1.1-0.9-2.1-2-2.1c-1.1,0-2.1,0.9-2.1,2C24.9,39,25.8,40,26.9,40z M21.9,36.8
		l0.5-0.1c0.1-0.4,0.3-0.8,0.5-1.1l-0.3-0.4c-0.2-0.3-0.2-0.8,0.1-1l0.6-0.6c0.3-0.3,0.7-0.3,1,0l0.4,0.3c0.4-0.2,0.8-0.4,1.2-0.5
		l0.1-0.5c0.1-0.4,0.4-0.7,0.8-0.7h0.8c0.4,0,0.7,0.3,0.8,0.7l0.1,0.5c0.4,0.1,0.8,0.3,1.1,0.5l0.4-0.3c0.3-0.2,0.8-0.2,1,0.1
		l0.6,0.6c0.3,0.3,0.3,0.7,0.1,1L31,35.7c0.2,0.3,0.3,0.7,0.4,1.1l0.5,0.1c0.4,0,0.7,0.4,0.7,0.8l0,0.8c0,0.4-0.3,0.7-0.7,0.8
		l-0.5,0.1c-0.1,0.4-0.3,0.7-0.5,1.1l0.3,0.4c0.2,0.3,0.2,0.8-0.1,1l-0.6,0.6c-0.3,0.3-0.7,0.3-1,0.1l-0.4-0.4
		c-0.3,0.2-0.7,0.3-1.1,0.4L28,43.1c-0.1,0.4-0.4,0.7-0.8,0.7l-0.8,0c-0.4,0-0.7-0.3-0.8-0.7l-0.1-0.6c-0.4-0.1-0.7-0.3-1-0.5
		l-0.5,0.4c-0.3,0.2-0.8,0.2-1-0.1l-0.6-0.6c-0.3-0.3-0.3-0.7-0.1-1l0.4-0.5c-0.2-0.3-0.3-0.7-0.4-1l-0.6-0.1
		c-0.4-0.1-0.7-0.4-0.7-0.8l0-0.8C21.2,37.1,21.5,36.8,21.9,36.8z M24.1,20.3c-1.7,0-3.1,1.4-3.1,3.1s1.4,3.1,3.1,3.1
		c1.7,0,3.1-1.4,3.1-3.1S25.8,20.3,24.1,20.3z M32,25.1l-1.1,0.1c-0.2,0.6-0.4,1.1-0.7,1.7l0.7,0.9c0.2,0.3,0.2,0.8-0.1,1.1
		l-1.3,1.3c-0.3,0.3-0.7,0.3-1.1,0.1l-0.9-0.7c-0.5,0.3-1.1,0.5-1.7,0.7l-0.1,1.2c-0.1,0.4-0.4,0.7-0.8,0.7h-1.9
		c-0.4,0-0.7-0.3-0.8-0.7l-0.1-1.2c-0.5-0.2-1.1-0.4-1.6-0.7l-1,0.8c-0.3,0.3-0.8,0.2-1-0.1l-1.3-1.3c-0.3-0.3-0.3-0.7-0.1-1.1
		l0.8-1c-0.3-0.5-0.5-1-0.6-1.5l-1.2-0.1c-0.4-0.1-0.7-0.4-0.7-0.8v-1.9c0-0.4,0.3-0.7,0.7-0.8l1.1-0.1c0.1-0.6,0.4-1.1,0.6-1.7
		l-0.7-0.9C17,18.7,17,18.3,17.3,18l1.3-1.3c0.3-0.3,0.7-0.3,1-0.1l0.9,0.7c0.6-0.3,1.1-0.6,1.8-0.7l0.1-1.1
		c0.1-0.4,0.4-0.7,0.8-0.7h1.9c0.4,0,0.7,0.3,0.8,0.7l0.1,1.1c0.6,0.2,1.2,0.4,1.7,0.7l0.8-0.7c0.3-0.3,0.8-0.2,1.1,0.1l1.3,1.3
		c0.3,0.3,0.3,0.7,0.1,1.1l-0.7,0.9c0.3,0.5,0.5,1.1,0.7,1.6l1.1,0.1c0.4,0.1,0.7,0.4,0.7,0.8v1.9C32.7,24.8,32.4,25.1,32,25.1z
		 M40,30.5c-0.1-1.4-1.3-2.4-2.7-2.3c-1.4,0.1-2.4,1.3-2.3,2.7c0.1,1.4,1.3,2.4,2.7,2.3C39.1,33.2,40.1,31.9,40,30.5z M43.9,31.7
		l-0.8,0.2c-0.1,0.5-0.2,1-0.5,1.4l0.6,0.6c0.3,0.3,0.3,0.7,0,1l-0.8,1c-0.3,0.3-0.7,0.4-1,0.2l-0.7-0.5c-0.4,0.3-0.9,0.5-1.3,0.7
		l0,0.9c0,0.4-0.3,0.7-0.7,0.7L37.4,38c-0.4,0-0.8-0.2-0.8-0.6l-0.2-0.9c-0.5-0.1-0.9-0.2-1.3-0.4l-0.6,0.6c-0.3,0.3-0.7,0.3-1,0
		l-1-0.8c-0.3-0.3-0.4-0.7-0.2-1l0.5-0.7c-0.2-0.4-0.5-0.8-0.6-1.2l-0.9,0c-0.4,0-0.7-0.3-0.7-0.7l-0.1-1.3c0-0.4,0.2-0.8,0.6-0.8
		l0.8-0.2c0.1-0.5,0.2-0.9,0.4-1.4l-0.6-0.6c-0.3-0.3-0.3-0.7,0-1l0.8-1c0.3-0.3,0.7-0.4,1-0.2l0.6,0.4c0.4-0.3,0.9-0.6,1.4-0.7
		l0-0.8c0-0.4,0.3-0.7,0.7-0.7l1.3-0.1c0.4,0,0.7,0.2,0.8,0.6l0.2,0.7c0.5,0.1,1,0.3,1.4,0.5l0.5-0.5c0.3-0.3,0.7-0.3,1,0l1,0.8
		c0.3,0.3,0.4,0.7,0.1,1l-0.4,0.7c0.3,0.4,0.5,0.8,0.7,1.3l0.8,0c0.4,0,0.7,0.3,0.7,0.7l0.1,1.3C44.5,31.2,44.3,31.6,43.9,31.7z"/>
</g>
</svg>
