<?xml version="1.0" encoding="utf-8"?>
<!-- Generator: Adobe Illustrator 24.0.1, SVG Export Plug-In . SVG Version: 6.00 Build 0)  -->
<svg version="1.1" id="Capa_1" xmlns="http://www.w3.org/2000/svg" xmlns:xlink="http://www.w3.org/1999/xlink" x="0px" y="0px"
	 viewBox="0 0 60 60" style="enable-background:new 0 0 60 60;" xml:space="preserve">
<style type="text/css">
	.st0{fill-rule:evenodd;clip-rule:evenodd;fill:#FFFFFF;}
</style>
<g>
	<path class="st0" d="M34.4,22.6c-1.2,0.3-2.5,0.1-3.6-0.4L26.2,20c-0.6-0.3-1.1-0.8-1.3-1.5c-0.2-0.7-0.1-1.4,0.3-2
		c0.6-1,1.9-1.4,3-0.9l5.6,2.7c0.4,0.2,0.9,0,1.1-0.4c0.2-0.4,0-0.9-0.4-1.1l-5.6-2.7c-1.8-0.9-4-0.3-5.1,1.5c-0.5,0.9-0.7,2-0.5,3
		H8.9c-1.1,0-2-0.8-2.3-1.8C6.4,15.8,7,14.7,8,14.3L24.5,7c1-0.4,2.1-0.5,3.1-0.3l16.1,2.8v11L34.4,22.6z M38,30
		c0,3.4-2.2,6.5-5.4,7.6l-2.7-1.3c-1.5-0.7-3.1-0.9-4.7-0.5L24.6,36c-1.7-1.5-2.7-3.7-2.7-6c0-3.4,2.2-6.5,5.4-7.6l2.8,1.3
		c0.9,0.5,2,0.7,3.1,0.7c0.5,0,1.1-0.1,1.6-0.2l0.6-0.1C37.1,25.6,38,27.7,38,30z M35.1,41.4c0.2,0.7,0.1,1.4-0.3,2
		c-0.6,1-1.9,1.4-3,0.9l-5.6-2.7c-0.4-0.2-0.9,0-1.1,0.4c-0.2,0.4,0,0.9,0.4,1.1l5.6,2.7c1.8,0.9,4,0.3,5.1-1.5c0.5-0.9,0.7-2,0.5-3
		h14.4c1.1,0,2,0.8,2.3,1.8c0.2,1.1-0.3,2.2-1.3,2.6L35.5,53c-1,0.4-2.1,0.5-3.1,0.3l-16.1-2.8v-11l9.3-2.1c1.2-0.3,2.5-0.1,3.6,0.4
		l4.6,2.2C34.4,40.2,34.9,40.8,35.1,41.4z M14.7,51.8H6.6V38.1h8.1V51.8z M45.3,8.2h8.1v13.7h-8.1V8.2z M44.5,23.5h9.7
		c0.4,0,0.8-0.4,0.8-0.8V7.4c0-0.4-0.4-0.8-0.8-0.8h-9.7c-0.5,0-0.8,0.4-0.8,0.8v0.5L27.9,5.1c-1.3-0.2-2.7-0.1-4,0.5L7.3,12.8
		c-1.7,0.7-2.6,2.6-2.3,4.4c0.4,1.8,2,3.1,3.8,3.1h15.2c0.4,0.5,0.8,0.9,1.4,1.1c-3.1,1.7-5.1,5-5.1,8.5c0,2.4,0.9,4.6,2.4,6.4
		l-6.5,1.5v-0.6c0-0.5-0.4-0.8-0.8-0.8H5.8c-0.4,0-0.8,0.4-0.8,0.8v15.3c0,0.4,0.4,0.8,0.8,0.8h9.7c0.5,0,0.8-0.4,0.8-0.8v-0.5
		l15.8,2.8c1.3,0.2,2.7,0.1,4-0.5l16.6-7.2c1.7-0.7,2.6-2.6,2.3-4.4c-0.4-1.8-2-3.1-3.8-3.1H35.9c-0.4-0.5-0.8-0.9-1.4-1.1
		c2.6-1.4,4.4-3.9,4.9-6.8s-0.3-5.9-2.3-8.1l6.5-1.5v0.6c0,0.2,0.1,0.4,0.2,0.6C44.1,23.5,44.3,23.5,44.5,23.5z"/>
	<path class="st0" d="M30,26.8c0.8,0,1.6,0.5,1.6,1c0,0.5,0.4,0.8,0.8,0.8c0.4,0,0.8-0.4,0.8-0.8c-0.1-1.3-1.1-2.3-2.4-2.5v-0.1
		c0-0.4-0.4-0.8-0.8-0.8c-0.5,0-0.8,0.4-0.8,0.8v0.1c-1.3,0.2-2.2,1.3-2.3,2.6c0,1.7,1.5,2.3,2.7,2.9c1.1,0.5,1.8,0.9,1.8,1.5
		c0,0.6-0.7,1.1-1.5,1.1c-0.8,0-1.6-0.5-1.6-1c0-0.5-0.4-0.8-0.8-0.8c-0.4,0-0.8,0.4-0.8,0.8c0.1,1.3,1.1,2.3,2.4,2.5v0.1
		c0,0.4,0.4,0.8,0.8,0.8c0.4,0,0.8-0.4,0.8-0.8v-0.1c1.3-0.2,2.2-1.3,2.3-2.6c0-1.7-1.5-2.4-2.8-2.9c-1.1-0.5-1.8-0.8-1.8-1.4
		C28.5,27.3,29.2,26.8,30,26.8z"/>
</g>
</svg>
