<?xml version="1.0" encoding="utf-8"?>
<!-- Generator: Adobe Illustrator 24.0.1, SVG Export Plug-In . SVG Version: 6.00 Build 0)  -->
<svg version="1.1" id="Capa_1" xmlns="http://www.w3.org/2000/svg" xmlns:xlink="http://www.w3.org/1999/xlink" x="0px" y="0px"
	 viewBox="0 0 60 60" style="enable-background:new 0 0 60 60;" xml:space="preserve">
<style type="text/css">
	.st0{fill-rule:evenodd;clip-rule:evenodd;fill:#FFFFFF;}
</style>
<g>
	<path class="st0" d="M46.8,39.3H34.7c-0.3,0-0.7,0.1-0.9,0.4c-0.2,0.2-0.4,0.5-0.4,0.9l0,0.3h-6.8v-0.3c0-0.3-0.1-0.7-0.4-0.9
		c-0.2-0.2-0.5-0.4-0.9-0.4H13.3c-0.3,0-0.7,0.1-0.9,0.4c-0.2,0.2-0.4,0.5-0.4,0.9c0,0.3,0.1,0.7,0.4,0.9c0.2,0.2,0.5,0.4,0.9,0.4
		h11.1l0,0c0.2,0.5,0.5,0.8,0.9,1.1c0.4,0.3,0.9,0.4,1.4,0.4h6.7c0.5,0,1-0.2,1.4-0.4c0.4-0.3,0.7-0.7,0.9-1.1l0,0h11.1
		c0.3,0,0.7-0.1,0.9-0.4c0.2-0.2,0.4-0.5,0.4-0.9v0c0-0.3-0.1-0.7-0.4-0.9C47.4,39.4,47.1,39.3,46.8,39.3L46.8,39.3z"/>
	<path class="st0" d="M53.5,43c0,0.7-0.3,1.3-0.7,1.8c-0.5,0.5-1.1,0.7-1.7,0.7H9c-0.7,0-1.3-0.3-1.8-0.7c-0.4-0.5-0.7-1.1-0.7-1.8
		v-1.2H9c0.3,0,0.7-0.1,0.9-0.4s0.4-0.5,0.4-0.9V15.4c0-0.2,0.1-0.5,0.3-0.6c0.2-0.2,0.4-0.3,0.6-0.3h37.6c0.2,0,0.5,0.1,0.6,0.3
		c0.2,0.2,0.3,0.4,0.3,0.7c0.8,5,0,19.1,0,25.1c0,0.3,0.1,0.7,0.4,0.9c0.2,0.2,0.5,0.4,0.9,0.4h2.5V43z M54.8,39.3h-2.5V15.4
		c0,0,0-0.1,0-0.1v0c-0.1-0.9-0.5-1.7-1.1-2.3c-0.6-0.6-1.4-0.9-2.3-0.9H11.1c-0.9,0-1.8,0.4-2.4,1c-0.6,0.6-1,1.5-1,2.4v23.9H5.3
		c-0.3,0-0.7,0.1-0.9,0.4C4.1,39.9,4,40.2,4,40.5V43c0,1.4,0.6,2.6,1.5,3.5C6.3,47.4,7.6,48,9,48H51c1.4,0,2.6-0.6,3.5-1.5
		c0.9-0.9,1.5-2.1,1.5-3.5v-2.5c0-0.3-0.1-0.6-0.3-0.8C55.4,39.4,55.1,39.3,54.8,39.3L54.8,39.3z"/>
	<path class="st0" d="M21.9,20.7v6.6c0,0.3,0.1,0.7,0.4,0.9c0.2,0.2,0.5,0.4,0.9,0.4h6.6l0,0.1c-0.3,1.6-1.2,2.9-2.3,3.9
		c-1.2,1-2.7,1.5-4.3,1.5c-1.9,0-3.5-0.8-4.8-2c-1.2-1.2-2-2.9-2-4.8c0-1.6,0.6-3.1,1.5-4.3C18.9,21.8,20.3,21,21.9,20.7L21.9,20.7
		L21.9,20.7z M24.5,20.6c1.3,0.3,2.5,0.9,3.5,1.9c0.9,0.9,1.6,2.1,1.9,3.5l0,0.1h-5.4L24.5,20.6L24.5,20.6z M23.2,36.6
		c2.5,0,4.9-1,6.5-2.7c1.7-1.7,2.7-4,2.7-6.6s-1-4.9-2.7-6.6c-1.7-1.7-4-2.7-6.5-2.7s-4.9,1-6.5,2.7c-1.7,1.7-2.7,4-2.7,6.6
		c0,2.6,1,4.9,2.7,6.6C18.3,35.5,20.6,36.6,23.2,36.6z"/>
	<path class="st0" d="M36.1,28.5h7.5c0.3,0,0.7-0.1,0.9-0.4c0.2-0.2,0.4-0.5,0.4-0.9s-0.1-0.7-0.4-0.9c-0.2-0.2-0.5-0.4-0.9-0.4
		h-7.5c-0.3,0-0.7,0.1-0.9,0.4c-0.2,0.2-0.4,0.5-0.4,0.9s0.1,0.7,0.4,0.9C35.4,28.4,35.7,28.5,36.1,28.5z"/>
	<path class="st0" d="M36.1,22.4h7.5c0.3,0,0.7-0.1,0.9-0.4s0.4-0.5,0.4-0.9c0-0.4-0.1-0.7-0.4-0.9c-0.2-0.2-0.5-0.4-0.9-0.4h-7.5
		c-0.3,0-0.7,0.1-0.9,0.4c-0.2,0.2-0.4,0.5-0.4,0.9c0,0.3,0.1,0.7,0.4,0.9C35.4,22.2,35.7,22.4,36.1,22.4z"/>
	<path class="st0" d="M36.1,34.7h3.7c0.3,0,0.7-0.1,0.9-0.4c0.2-0.2,0.4-0.5,0.4-0.9c0-0.3-0.1-0.7-0.4-0.9
		c-0.2-0.2-0.5-0.4-0.9-0.4h-3.7c-0.3,0-0.7,0.1-0.9,0.4c-0.2,0.2-0.4,0.5-0.4,0.9c0,0.3,0.1,0.7,0.4,0.9
		C35.4,34.6,35.7,34.7,36.1,34.7z"/>
</g>
</svg>
