<svg xmlns="http://www.w3.org/2000/svg" xmlns:xlink="http://www.w3.org/1999/xlink" x="0px" y="0px" viewBox="0 0 90 90" style="enable-background:new 0 0 90 90;" xml:space="preserve">
<style type="text/css">
	.st1{fill-rule:evenodd;clip-rule:evenodd;fill:#FFFFFF;}
</style>
<g>
	<path class="st1" d="M65.84,41.8c0.11-0.65,0.16-1.32,0.16-2c0-2.35-0.63-4.6-1.75-6.55c-1.12-1.93-2.75-3.59-4.75-4.72 c-2.32-1.31-5.01-1.76-7.6-1.43c-2.61,0.33-5.11,1.47-7.03,3.32l-0.23,0.23l-0.24-0.23c-1.92-1.85-4.43-2.99-7.03-3.32 c-2.6-0.33-5.28,0.12-7.6,1.43c-2,1.13-3.63,2.77-4.75,4.72c-1.12,1.95-1.75,4.2-1.75,6.53c0,0.68,0.05,1.35,0.15,1.99 c0.11,0.65,0.25,1.27,0.45,1.84v0.04c0.08,0.32,0.17,0.65,0.28,1c0.11,0.33,0.24,0.69,0.39,1.05l0.2,0.47h-4.68 c-0.29,0-0.56,0.13-0.76,0.33c-0.2,0.2-0.32,0.48-0.32,0.79c0,0.31,0.12,0.57,0.32,0.77c0.2,0.21,0.47,0.33,0.76,0.33h16.57 c0.23,0,0.43-0.07,0.6-0.19c0.17-0.11,0.31-0.28,0.4-0.48l1.92-4.53l2.15,9.29c0.05,0.23,0.16,0.41,0.32,0.56 c0.15,0.15,0.35,0.25,0.56,0.28l0.09,0.01h0.08c0.19,0,0.37-0.05,0.53-0.13c0.15-0.09,0.29-0.23,0.39-0.4l4.19-7.05h4.55 c0.29,0,0.56-0.12,0.76-0.32c0.2-0.2,0.32-0.48,0.32-0.79c0-0.31-0.12-0.59-0.32-0.79c-0.2-0.2-0.47-0.32-0.76-0.32h-5.16 c-0.19,0-0.37,0.05-0.52,0.13c-0.16,0.09-0.31,0.23-0.4,0.4l-3.13,5.28c-0.44-1.92-2.29-8.72-2.29-9.92 c-0.05-0.23-0.17-0.43-0.33-0.59c-0.17-0.15-0.39-0.24-0.63-0.25v-0.01c-0.23-0.01-0.45,0.04-0.64,0.15 c-0.19,0.12-0.35,0.31-0.44,0.52l-2.93,6.92h-8.72L27.13,46c-0.27-0.49-0.51-0.99-0.69-1.48c-0.2-0.49-0.36-0.97-0.47-1.47 c-0.17-0.53-0.31-1.08-0.39-1.63c-0.09-0.55-0.13-1.09-0.13-1.64c0-1.93,0.52-3.79,1.44-5.4c0.93-1.61,2.28-2.96,3.93-3.91 c2.12-1.2,4.59-1.52,6.91-1.07c2.33,0.45,4.52,1.69,6.07,3.6c0.04,0.04,0.08,0.09,0.12,0.12c0.2,0.17,0.47,0.25,0.73,0.25 c0.25,0,0.51-0.08,0.71-0.25c0.04-0.03,0.08-0.07,0.12-0.12c1.55-1.91,3.73-3.15,6.07-3.6c2.32-0.45,4.79-0.13,6.91,1.08 c1.65,0.93,3,2.29,3.92,3.89c0.93,1.61,1.45,3.48,1.45,5.41c0,0.55-0.05,1.11-0.15,1.67c-0.08,0.56-0.23,1.13-0.41,1.73 c-0.6,2.72-2.84,5.79-5.65,8.72c-4.17,4.35-9.61,8.41-12.79,10.53l-0.17,0.12l-0.19-0.12c-0.79-0.55-2.12-1.47-3.73-2.68 c-1.61-1.2-3.49-2.68-5.36-4.32c-0.23-0.2-0.52-0.28-0.79-0.25c-0.28,0.01-0.55,0.15-0.75,0.37c-0.19,0.24-0.28,0.53-0.25,0.81 c0.03,0.28,0.15,0.56,0.37,0.76c4.77,4.19,9.49,7.28,10.05,7.65l0.05,0.03c0.08,0.07,0.17,0.11,0.27,0.13 c0.09,0.03,0.2,0.04,0.31,0.04s0.21-0.01,0.31-0.04s0.19-0.08,0.28-0.13c0.37-0.24,4.92-3.2,9.63-7.25 c4.68-4.04,9.51-9.16,10.51-13.77v-0.04C65.57,43.12,65.73,42.47,65.84,41.8z"/>
</g>
<path class="st1" d="M4069.63,4050.35c0.08-0.49,0.12-0.99,0.12-1.5c0-1.76-0.47-3.45-1.31-4.91c-0.84-1.45-2.06-2.69-3.56-3.54 c-1.74-0.98-3.76-1.32-5.7-1.07c-1.96,0.25-3.83,1.1-5.27,2.49l-0.17,0.17l-0.18-0.17c-1.44-1.39-3.32-2.24-5.27-2.49 s-3.96,0.09-5.7,1.07c-1.5,0.85-2.72,2.08-3.56,3.54s-1.31,3.15-1.31,4.9c0,0.51,0.04,1.01,0.11,1.49c0.08,0.49,0.19,0.95,0.34,1.38 v0.03c0.06,0.24,0.13,0.49,0.21,0.75c0.08,0.25,0.18,0.52,0.29,0.79l0.15,0.35h-3.51c-0.22,0-0.42,0.1-0.57,0.25 c-0.15,0.15-0.24,0.36-0.24,0.59s0.09,0.43,0.24,0.58c0.15,0.16,0.35,0.25,0.57,0.25h12.43c0.17,0,0.32-0.05,0.45-0.14 c0.13-0.08,0.23-0.21,0.3-0.36l1.44-3.4l1.61,6.97c0.04,0.17,0.12,0.31,0.24,0.42c0.11,0.11,0.26,0.19,0.42,0.21l0.07,0.01h0.06 c0.14,0,0.28-0.04,0.4-0.1c0.11-0.07,0.22-0.17,0.29-0.3l3.14-5.29h3.41c0.22,0,0.42-0.09,0.57-0.24c0.15-0.15,0.24-0.36,0.24-0.59 s-0.09-0.44-0.24-0.59c-0.15-0.15-0.35-0.24-0.57-0.24h-3.87c-0.14,0-0.28,0.04-0.39,0.1c-0.12,0.07-0.23,0.17-0.3,0.3l-2.35,3.96 c-0.33-1.44-1.72-6.54-1.72-7.44c-0.04-0.17-0.13-0.32-0.25-0.44c-0.13-0.11-0.29-0.18-0.47-0.19v-0.01 c-0.17-0.01-0.34,0.03-0.48,0.11c-0.14,0.09-0.26,0.23-0.33,0.39l-2.2,5.19h-6.54l-0.07-0.13c-0.2-0.37-0.38-0.74-0.52-1.11 c-0.15-0.37-0.27-0.73-0.35-1.1c-0.13-0.4-0.23-0.81-0.29-1.22c-0.07-0.41-0.1-0.82-0.1-1.23c0-1.45,0.39-2.84,1.08-4.05 c0.7-1.21,1.71-2.22,2.95-2.93c1.59-0.9,3.44-1.14,5.18-0.8c1.75,0.34,3.39,1.27,4.55,2.7c0.03,0.03,0.06,0.07,0.09,0.09 c0.15,0.13,0.35,0.19,0.55,0.19c0.19,0,0.38-0.06,0.53-0.19c0.03-0.02,0.06-0.05,0.09-0.09c1.16-1.43,2.8-2.36,4.55-2.7 c1.74-0.34,3.59-0.1,5.18,0.81c1.24,0.7,2.25,1.72,2.94,2.92c0.7,1.21,1.09,2.61,1.09,4.06c0,0.41-0.04,0.83-0.11,1.25 c-0.06,0.42-0.17,0.85-0.31,1.3c-0.45,2.04-2.13,4.34-4.24,6.54c-3.13,3.26-7.21,6.31-9.59,7.9l-0.13,0.09l-0.14-0.09 c-0.59-0.41-1.59-1.1-2.8-2.01c-1.21-0.9-2.62-2.01-4.02-3.24c-0.17-0.15-0.39-0.21-0.59-0.19c-0.21,0.01-0.41,0.11-0.56,0.28 c-0.14,0.18-0.21,0.4-0.19,0.61s0.11,0.42,0.28,0.57c3.58,3.14,7.12,5.46,7.54,5.74l0.04,0.02c0.06,0.05,0.13,0.08,0.2,0.1 s0.15,0.03,0.23,0.03s0.16-0.01,0.23-0.03s0.14-0.06,0.21-0.1c0.28-0.18,3.69-2.4,7.22-5.44c3.51-3.03,7.13-6.87,7.88-10.33v-0.03 C4069.43,4051.34,4069.55,4050.85,4069.63,4050.35z"/>
</svg>
