<?xml version="1.0" encoding="utf-8"?>
<!-- Generator: Adobe Illustrator 24.0.1, SVG Export Plug-In . SVG Version: 6.00 Build 0)  -->
<svg version="1.1" id="Capa_1" xmlns="http://www.w3.org/2000/svg" xmlns:xlink="http://www.w3.org/1999/xlink" x="0px" y="0px"
	 viewBox="0 0 60 60" style="enable-background:new 0 0 60 60;" xml:space="preserve">
<style type="text/css">
	.st0{fill-rule:evenodd;clip-rule:evenodd;fill:#B5BE34;}
</style>
<path class="st0" d="M30,59C14,59,1,46,1,30S14,1,30,1s29,13,29,29S46,59,30,59z M30,1.4C14.2,1.4,1.4,14.2,1.4,30
	S14.2,58.6,30,58.6S58.6,45.8,58.6,30S45.8,1.4,30,1.4z"/>
<path class="st0" d="M30,59C14,59,1,46,1,30c0-0.8,0.7-1.5,1.5-1.5S4,29.2,4,30c0,14.3,11.7,26,26,26s26-11.7,26-26S44.3,4,30,4
	c-0.8,0-1.5-0.7-1.5-1.5S29.2,1,30,1c16,0,29,13,29,29S46,59,30,59z"/>
<path class="st0" d="M18.4,25.2c0.2,0.2,0.2,0.5,0,0.6c-0.1,0.1-0.2,0.1-0.3,0.1s-0.2,0-0.3-0.1c-2.1-2.1-2.1-5.5,0-7.5
	c0.2-0.2,0.5-0.2,0.6,0c0.2,0.2,0.2,0.5,0,0.6C16.7,20.7,16.7,23.5,18.4,25.2z M20.4,24.8c-0.1,0.1-0.2,0.1-0.3,0.1
	c-0.1,0-0.2,0-0.3-0.1c-0.7-0.7-1.2-1.7-1.2-2.8c0-1,0.4-2,1.2-2.8c0.2-0.2,0.5-0.2,0.6,0s0.2,0.5,0,0.6c-0.6,0.6-0.9,1.3-0.9,2.1
	c0,0.8,0.3,1.6,0.9,2.1C20.5,24.3,20.5,24.6,20.4,24.8z M30,39.6c0.5,0,0.9,0.4,0.9,0.9s-0.4,0.9-0.9,0.9c-0.5,0-0.9-0.4-0.9-0.9
	S29.5,39.6,30,39.6z M36.9,19.9H23.1v17.5h13.8V19.9z M31.8,17.6h-0.5c-0.3,0-0.5,0.2-0.5,0.5c0,0.3,0.2,0.5,0.5,0.5h0.5
	c0.3,0,0.5-0.2,0.5-0.5C32.3,17.8,32.1,17.6,31.8,17.6z M30,17.6h-1.8c-0.2,0-0.5,0.2-0.5,0.5c0,0.3,0.2,0.5,0.5,0.5H30
	c0.2,0,0.5-0.2,0.5-0.5C30.5,17.8,30.2,17.6,30,17.6z M30,42.4c1,0,1.8-0.8,1.8-1.8c0-1-0.8-1.8-1.8-1.8c-1,0-1.8,0.8-1.8,1.8
	C28.2,41.6,29,42.4,30,42.4z M35.8,43.8H24.2c-1.1,0-2-0.9-2-2V18.3c0-1.1,0.9-2,2-2h11.6c1.1,0,2,0.9,2,2v23.5
	C37.8,42.9,36.9,43.8,35.8,43.8z M40.3,24.9c-0.1,0.1-0.2,0.1-0.3,0.1s-0.2,0-0.3-0.1c-0.2-0.2-0.2-0.5,0-0.7
	c0.6-0.6,0.9-1.3,0.9-2.1c0-0.8-0.3-1.6-0.9-2.1c-0.2-0.2-0.2-0.5,0-0.6c0.2-0.2,0.5-0.2,0.7,0c0.7,0.7,1.1,1.7,1.1,2.8
	C41.4,23.2,41,24.2,40.3,24.9z M42.2,25.8C42.1,25.9,42,26,41.9,26c-0.1,0-0.2,0-0.3-0.1c-0.2-0.2-0.2-0.5,0-0.6
	c1.7-1.7,1.7-4.5,0-6.2c-0.2-0.2-0.2-0.5,0-0.6c0.2-0.2,0.5-0.2,0.7,0C44.3,20.4,44.3,23.8,42.2,25.8z"/>
</svg>
