<?xml version="1.0" encoding="utf-8"?>
<!-- Generator: Adobe Illustrator 24.0.1, SVG Export Plug-In . SVG Version: 6.00 Build 0)  -->
<svg version="1.1" id="Capa_1" xmlns="http://www.w3.org/2000/svg" xmlns:xlink="http://www.w3.org/1999/xlink" x="0px" y="0px"
	 viewBox="0 0 60 60" style="enable-background:new 0 0 60 60;" xml:space="preserve">
<style type="text/css">
	.st0{fill-rule:evenodd;clip-rule:evenodd;fill:#FFFFFF;}
</style>
<g>
	<path class="st0" d="M6.9,51.2H30v-1.8H6.9c-1.5,0-2.7-1.2-2.7-2.7V7.9c0-1.5,1.2-2.7,2.7-2.7h39c1.5,0,2.7,1.2,2.7,2.7v20.3h1.8
		V7.9c0-2.4-2-4.4-4.4-4.4h-39c-2.5,0-4.4,2-4.4,4.4v38.9C2.5,49.2,4.5,51.2,6.9,51.2z"/>
	<rect x="6" y="7" class="st0" width="1.8" height="1.8"/>
	<rect x="9.6" y="7" class="st0" width="1.8" height="1.8"/>
	<rect x="13.1" y="7" class="st0" width="1.8" height="1.8"/>
	<rect x="6" y="10.6" class="st0" width="40.8" height="1.8"/>
	<path class="st0" d="M10.5,22.9c-1.5,0-2.7-1.2-2.7-2.6c0-1.5,1.2-2.7,2.7-2.7c0.4,0,0.8,0.1,1.1,0.3l-1.8,1.8l1.3,1.3l1.8-1.8
		c0.2,0.3,0.3,0.7,0.3,1.1C13.1,21.7,12,22.9,10.5,22.9z M15.2,14.4l-2.3,2.3C11,15.4,8.5,15.7,7,17.5c-1.4,1.8-1.3,4.3,0.3,5.9
		c1.6,1.6,4.2,1.7,6,0.3c1.8-1.4,2.2-4,0.9-5.9l2.3-2.2L15.2,14.4z"/>
	<rect x="17.6" y="17.6" class="st0" width="15.1" height="1.8"/>
	<rect x="17.6" y="21.2" class="st0" width="6.2" height="1.8"/>
	<rect x="25.6" y="21.2" class="st0" width="12.4" height="1.8"/>
	<rect x="34.4" y="17.6" class="st0" width="8.9" height="1.8"/>
	<path class="st0" d="M10.5,33.5c-1.5,0-2.7-1.2-2.7-2.6c0-1.5,1.2-2.7,2.7-2.7c0.4,0,0.8,0.1,1.1,0.3l-1.8,1.8l1.3,1.2l1.8-1.7
		c0.2,0.3,0.3,0.7,0.3,1.1C13.1,32.3,12,33.5,10.5,33.5z M15.2,25l-2.3,2.3C11,25.9,8.5,26.3,7,28.1c-1.4,1.8-1.3,4.3,0.3,5.9
		c1.6,1.6,4.2,1.7,6,0.3c1.8-1.4,2.2-4,0.9-5.9l2.3-2.2L15.2,25z"/>
	<rect x="17.6" y="28.2" class="st0" width="15.1" height="1.8"/>
	<rect x="17.6" y="31.8" class="st0" width="6.2" height="1.8"/>
	<rect x="25.6" y="31.8" class="st0" width="7.1" height="1.8"/>
	<rect x="34.4" y="28.2" class="st0" width="3.5" height="1.8"/>
	<path class="st0" d="M10.5,44.1c-1.5,0-2.7-1.2-2.7-2.6c0-1.5,1.2-2.7,2.7-2.7c0.4,0,0.8,0.1,1.1,0.3l-1.8,1.8l1.3,1.3l1.8-1.8
		c0.2,0.3,0.3,0.7,0.3,1.1C13.1,42.9,12,44.1,10.5,44.1z M15.2,35.6l-2.3,2.3C11,36.5,8.5,36.9,7,38.7c-1.4,1.8-1.3,4.3,0.3,5.9
		c1.6,1.6,4.2,1.7,6,0.3s2.2-4,0.9-5.9l2.3-2.2L15.2,35.6z"/>
	<rect x="17.6" y="38.8" class="st0" width="11.5" height="1.8"/>
	<rect x="17.6" y="42.4" class="st0" width="6.2" height="1.8"/>
	<rect x="25.6" y="42.4" class="st0" width="3.5" height="1.8"/>
	<path class="st0" d="M44.2,31.8c6.4,0,11.5,5.1,11.5,11.5c0,6.3-5.2,11.5-11.5,11.5s-11.5-5.1-11.5-11.5
		C32.7,36.9,37.8,31.8,44.2,31.8z M44.2,56.5c7.3,0,13.3-5.9,13.3-13.3S51.5,30,44.2,30s-13.3,5.9-13.3,13.3
		C30.9,50.6,36.8,56.5,44.2,56.5z"/>
	<path class="st0" d="M38.8,43.7l-1.6,0.8l1.8,3.5c0.1,0.3,0.4,0.4,0.7,0.5l0.1,0c0.2,0,0.5-0.1,0.6-0.3L51,37.7l-1.3-1.2L40,46.2
		L38.8,43.7z"/>
</g>
</svg>
