<?xml version="1.0" encoding="utf-8"?>
<!-- Generator: Adobe Illustrator 24.0.1, SVG Export Plug-In . SVG Version: 6.00 Build 0)  -->
<svg version="1.1" id="Capa_1" xmlns="http://www.w3.org/2000/svg" xmlns:xlink="http://www.w3.org/1999/xlink" x="0px" y="0px"
	 viewBox="0 0 60 60" style="enable-background:new 0 0 60 60;" xml:space="preserve">
<style type="text/css">
	.st0{fill-rule:evenodd;clip-rule:evenodd;fill:#0083C1;}
	.st1{fill:#0083C1;}
</style>
<g>
	<path class="st0" d="M30,58.8c-16,0-29-13-29-29s13-29,29-29s29,13,29,29S46,58.8,30,58.8z M30,1.2C14.2,1.2,1.4,14.1,1.4,29.8
		S14.2,58.5,30,58.5s28.6-12.8,28.6-28.6S45.8,1.2,30,1.2z"/>
	<path class="st0" d="M30,59.2c-16,0-29-13-29-29c0-0.8,0.7-1.5,1.5-1.5S4,29.4,4,30.2c0,14.3,11.7,26,26,26s26-11.7,26-26
		s-11.7-26-26-26c-0.8,0-1.5-0.7-1.5-1.5s0.7-1.5,1.5-1.5c16,0,29,13,29,29S46,59.2,30,59.2z"/>
	<path class="st1" d="M24.3,31c0,0.4,0.3,0.6,0.6,0.6h0.2c0.4-1.1,1.4-1.3,1.4-1.3h-1.6C24.6,30.4,24.3,30.7,24.3,31z M35.3,27.3
		c0-0.3-0.3-0.6-0.6-0.6h-9.7c-0.4,0-0.6,0.3-0.6,0.6c0,0.4,0.3,0.6,0.6,0.6h9.7C35,27.9,35.3,27.6,35.3,27.3z M34.6,22.9h-9.7
		c-0.4,0-0.6,0.3-0.6,0.6c0,0.4,0.3,0.6,0.6,0.6h9.7c0.4,0,0.6-0.3,0.6-0.6C35.3,23.2,35,22.9,34.6,22.9z M34,20.8h1.6L34,19.1V20.8
		z M22.2,36.6c0-4.5,0-18,0-18c0-0.7,0.6-1.2,1.3-1.2h10c0.2,0,0.3,0.1,0.4,0.2l3.2,3.5c0.1,0.1,0.2,0.2,0.2,0.4v9h-1v-8.2
		c0-0.1-0.1-0.3-0.3-0.3h-2.5c-0.3,0-0.5-0.2-0.5-0.5v-2.7c0-0.1-0.1-0.3-0.3-0.3h-9.3c-0.1,0-0.2,0.1-0.2,0.2v16.9L22.5,37
		C22.5,37,22.2,37,22.2,36.6z M45.3,32.5l-4.8,9c-0.2,0.4-0.9,0.9-1.4,0.9H19.9c-0.4,0-0.8-0.2-1.1-0.4c-0.3-0.3-0.5-0.7-0.5-1.1
		V26.2c0-0.8,0.7-1.5,1.5-1.5l1.4,0V26h-0.9c-0.2,0-0.4,0.1-0.5,0.2c-0.1,0.1-0.2,0.3-0.2,0.5v13.8c0,0.4,0.3,0.7,0.7,0.7h1l4.5-9.1
		c0.3-0.5,0.7-0.9,1.3-0.9h11.1l0-3.6c0.7,0.1,1.3,0.7,1.3,1.4v2.3h5.1C45.2,31.1,45.7,31.7,45.3,32.5z"/>
</g>
</svg>
