<?xml version="1.0" standalone="no"?>
<!DOCTYPE svg PUBLIC "-//W3C//DTD SVG 20010904//EN"
 "http://www.w3.org/TR/2001/REC-SVG-20010904/DTD/svg10.dtd">
<svg version="1.0" xmlns="http://www.w3.org/2000/svg"
 width="700.000000pt" height="700.000000pt" viewBox="0 0 700.000000 700.000000"
 preserveAspectRatio="xMidYMid meet">
<metadata>
Created by potrace 1.11, written by Peter Selinger 2001-2013
</metadata>
<g transform="translate(0.000000,700.000000) scale(0.100000,-0.100000)"
fill="#000000" stroke="none">
<path d="M3279 6829 c-995 -64 -1913 -578 -2502 -1401 -584 -817 -763 -1876
-482 -2854 324 -1130 1245 -2021 2385 -2309 448 -113 974 -131 1415 -49 695
130 1307 458 1802 967 513 528 828 1194 919 1942 23 189 23 560 0 750 -89 744
-405 1412 -916 1939 -596 614 -1350 962 -2205 1016 -177 11 -231 11 -416 -1z
m1147 -1758 c89 -40 145 -125 152 -228 l4 -63 -49 0 -50 0 -6 50 c-8 63 -32
105 -77 133 l-35 22 -1090 3 -1090 2 -44 -22 c-25 -13 -54 -36 -65 -51 -21
-28 -21 -38 -24 -915 -2 -604 0 -899 8 -924 9 -32 44 -71 92 -103 13 -9 13
-16 1 -57 l-14 -48 -37 16 c-52 21 -119 90 -139 144 -17 42 -18 111 -18 955
l0 910 27 50 c32 62 70 98 128 124 44 20 60 21 1165 21 1071 0 1122 -1 1161
-19z m334 -436 c60 -33 112 -98 130 -163 6 -24 10 -349 10 -918 0 -943 0 -940
-50 -1004 l-19 -25 -37 36 c-36 36 -36 36 -20 67 15 29 16 120 14 934 l-3 903
-22 31 c-49 68 25 64 -1185 64 -1045 0 -1095 -1 -1128 -19 -19 -10 -45 -33
-57 -51 l-23 -33 0 -902 0 -902 23 -33 c12 -18 35 -43 50 -54 27 -20 41 -21
398 -24 l369 -3 0 -49 0 -50 -372 0 c-353 0 -375 2 -418 21 -55 25 -105 71
-133 124 l-22 40 -3 909 c-3 1034 -7 972 78 1057 83 83 0 78 1255 76 l1110 -2
55 -30z m-600 -657 l0 -263 47 -20 c26 -11 51 -21 55 -23 4 -2 8 78 8 177 l0
181 50 0 50 0 0 -218 0 -218 55 -54 55 -54 0 167 0 167 50 0 50 0 0 -257 c0
-236 2 -264 22 -323 15 -47 22 -100 26 -192 l4 -127 27 -3 c24 -3 26 -7 29
-55 l3 -53 -45 0 c-30 0 -46 -4 -46 -12 0 -7 -13 -41 -29 -75 l-30 -62 252
-257 c139 -141 256 -263 260 -270 13 -22 -16 -64 -101 -146 -54 -53 -87 -78
-103 -78 -18 0 -89 65 -274 250 l-250 250 -90 -45 c-218 -110 -445 -114 -660
-11 -166 79 -320 251 -374 419 l-13 37 -359 0 -360 0 3 53 3 52 345 5 345 5 0
115 c0 91 5 130 23 187 21 67 22 89 22 357 l0 286 55 0 55 0 0 -190 0 -190 50
52 50 52 0 193 0 193 55 0 55 0 0 -156 c0 -86 3 -154 8 -152 4 2 26 12 49 22
l42 18 3 106 3 107 50 0 50 0 3 -89 3 -88 31 6 c17 3 39 6 49 6 18 0 19 11 19
190 l0 190 55 0 55 0 0 -190 c0 -174 1 -190 18 -190 9 0 34 -3 55 -6 l37 -7 0
247 0 246 50 0 50 0 0 -262z m-1270 -638 l0 -320 -50 0 -50 0 0 320 0 320 50
0 50 0 0 -320z m210 -80 l0 -240 -50 0 -50 0 0 240 0 240 50 0 50 0 0 -240z
m-420 -80 l0 -160 -50 0 -50 0 0 160 0 160 50 0 50 0 0 -160z"/>
<path d="M3760 3645 c-36 -8 -101 -33 -145 -55 -312 -158 -440 -536 -286 -845
113 -226 321 -358 566 -358 281 0 522 180 607 453 30 96 32 263 4 355 -51 170
-175 320 -326 394 -139 68 -277 86 -420 56z m264 -110 c94 -25 166 -66 237
-135 212 -208 214 -542 4 -754 -204 -207 -534 -205 -742 3 -194 195 -204 511
-22 724 67 78 186 147 294 170 48 11 175 6 229 -8z"/>
<path d="M3773 3429 l-33 -10 0 -199 0 -200 -55 0 -55 0 0 168 -1 167 -44 -48
c-80 -87 -126 -226 -108 -332 l8 -50 412 -3 412 -2 6 55 c15 114 -28 243 -110
332 l-44 48 -1 -168 0 -168 -52 3 -53 3 -3 197 -2 197 -38 11 c-66 18 -62 29
-62 -200 l0 -210 -55 0 -55 0 0 210 c0 233 5 220 -67 199z"/>
<path d="M3552 2778 c41 -59 100 -108 167 -141 62 -30 72 -32 176 -32 105 0
114 2 178 33 66 33 153 107 176 150 l12 22 -366 0 -366 0 23 -32z"/>
<path d="M4447 2530 c-21 -22 -37 -43 -37 -48 0 -4 99 -106 220 -227 l220
-220 39 40 39 40 -222 228 -223 228 -36 -41z"/>
</g>
</svg>
