<svg xmlns="http://www.w3.org/2000/svg" xmlns:xlink="http://www.w3.org/1999/xlink" x="0px" y="0px" viewBox="0 0 200 30" style="enable-background:new 0 0 200 30;" xml:space="preserve">
	<style>
		.st0{fill:#5E6369;}
		.st1{fill:#019BD9;}
		.st2{fill:#C5D82E;}
		.st3{fill:#AA208F;}
	</style>
	<g>
		<path class="st0" d="M50.4,28.48c3.87-9.08,7.75-18.17,11.63-27.25c1.09,0,2.18,0,3.27,0c4.05,9.08,8.1,18.17,12.14,27.25 c-1.64,0-3.27,0.01-4.91,0c-1.16-2.58-2.31-5.16-3.48-7.74c-3.49,0.01-6.99,0-10.48,0c-1.09,2.58-2.17,5.16-3.27,7.74 C53.67,28.48,52.03,28.48,50.4,28.48z M63.64,8.71c-1.06,2.58-2.13,5.15-3.19,7.72c2.21,0,4.42,0,6.63,0 C65.94,13.86,64.79,11.28,63.64,8.71z"/>
		<path class="st0" d="M0,1.35c7.66,0,15.32,0,22.98,0c-0.67,1.43-1.34,2.87-2,4.3c-2.38,0-4.75,0-7.12,0c0,7.61,0,15.22,0,22.82 c-1.58,0-3.15,0-4.73,0c0-7.61,0-15.21,0-22.82c-3.04,0-6.07-0.01-9.11,0C-0.01,4.22,0.01,2.79,0,1.35z"/>
		<path class="st0" d="M29.95,1.38c2.23,0.01,4.46,0,6.68,0.01c2.07,0.04,4.21,0.54,5.89,1.8c1.15,0.84,1.94,2.09,2.38,3.44 c0.67,2.07,0.59,4.35-0.11,6.39c-0.68,1.99-2.49,3.52-4.54,3.92c2.46,3.84,4.92,7.69,7.38,11.54c-1.78,0-3.56,0-5.34,0 c-2.23-3.47-4.46-6.93-6.68-10.4c-1.88-0.01-3.77,0.01-5.66,0c0-1.44,0-2.87,0-4.31c1.66,0,3.33,0,4.99,0 c0.82,0,1.64,0.01,2.45-0.1c1.04-0.14,2.07-0.69,2.6-1.62c0.41-0.79,0.51-1.72,0.52-2.6c-0.05-0.97-0.22-2.05-0.94-2.76 c-0.5-0.52-1.2-0.8-1.89-0.95c-0.68-0.15-1.38-0.2-2.08-0.2c-1.88,0-3.77,0-5.66,0C29.95,4.16,29.95,2.77,29.95,1.38z"/>
		<path class="st0" d="M111.24,1.35c1.58,0,3.15-0.01,4.73,0c-0.02,9.04,0.02,18.09-0.02,27.13c-1.57-0.02-3.14,0.01-4.71-0.02 C111.24,19.43,111.24,10.39,111.24,1.35z"/>
		<path class="st0" d="M120.1,5.65c0-1.43-0.01-2.87,0.01-4.31c7.66,0.01,15.32,0,22.98,0c-0.67,1.43-1.34,2.87-2,4.3 c-2.37,0-4.75,0-7.12,0c0,7.6-0.01,15.21,0,22.81c-1.58,0.02-3.17,0.02-4.75,0c0.02-7.6,0-15.21,0.01-22.81 C126.18,5.65,123.14,5.66,120.1,5.65z"/>
		<path class="st0" d="M147.55,1.35c0.84,0,1.69,0,2.54,0c0,5.21,0,10.42,0,15.63c0.03,1.22,0.08,2.46,0.4,3.65 c0.16,0.61,0.47,1.18,0.89,1.65c1.13,1.29,2.82,1.98,4.51,2.16c1.84,0.19,3.79-0.02,5.41-0.96c1.2-0.68,2.17-1.82,2.47-3.19 c0.24-1.15,0.28-2.33,0.29-3.5c0-5.15,0-10.29,0-15.44c1.58,0,3.16,0,4.75,0c0,5.21,0.01,10.42,0,15.62 c-0.02,1.37-0.07,2.75-0.38,4.09c-0.36,1.4-0.93,2.77-1.88,3.88c-1.09,1.29-2.53,2.26-4.09,2.88c-1.88,0.75-3.93,0.99-5.95,0.93 c-1.93-0.06-3.88-0.42-5.63-1.27c-1.5-0.72-2.84-1.79-3.77-3.17c-0.98-1.46-1.51-3.2-1.64-4.95c-0.16-2.05-0.08-4.11-0.1-6.16 c0-2.32,0-4.65,0-6.97c-0.02-0.24,0.13-0.45,0.22-0.66C146.23,4.18,146.88,2.76,147.55,1.35z"/>
		<path class="st0" d="M195.3,1.38c1.56,0,3.12,0,4.69,0c0.02,9.03,0,18.07,0.01,27.1c-1.58,0-3.16,0-4.73,0c0-6.47,0-12.94,0-19.41 c-2.43,3.07-4.87,6.12-7.29,9.18c-0.4,0-0.79,0.01-1.18,0c-2.46-3.07-4.93-6.12-7.39-9.18c-0.02-2.35,0-4.7-0.01-7.05 c-0.03-0.18,0.04-0.32,0.17-0.45c2.38,3.07,4.82,6.09,7.22,9.13c0.22,0.24,0.37,0.56,0.65,0.75C190.04,8.08,192.68,4.73,195.3,1.38 z"/>
		<path class="st0" d="M85.17,1.38c1.78,0.01,3.55-0.01,5.33,0.01c1.21,0.03,2.42,0.03,3.62,0.21c2.97,0.57,5.81,2.02,7.84,4.29 c2.5,2.7,3.75,6.48,3.43,10.14c-0.23,3.08-1.54,6.07-3.67,8.31c-1.15,1.2-2.54,2.17-4.07,2.83c-1.48,0.62-3.07,0.95-4.67,1.14 c-2.17,0.25-4.36,0.15-6.55,0.17c-0.43-0.01-0.85,0.02-1.28-0.02c0.01-1.43,0.01-2.86,0-4.29c1.71-0.03,3.43,0,5.14-0.02 c1.16-0.03,2.34-0.04,3.47-0.32c1.6-0.42,3.12-1.21,4.29-2.38c1.28-1.24,2.12-2.91,2.39-4.67c0.28-1.82,0.12-3.73-0.55-5.44 c-0.74-1.88-2.14-3.5-3.93-4.45c-0.78-0.4-1.62-0.67-2.47-0.86c-1.42-0.3-2.88-0.32-4.32-0.33c-1.33,0-2.67,0-4,0 C85.16,4.25,85.18,2.82,85.17,1.38z"/>
	</g>
	<g>
		<path class="st1" d="M27.1,0.76c0.84,0,1.68,0,2.51,0c0,1.39,0,2.78,0,4.17c0,2.74,0,5.48,0,8.23c0,1.44,0,2.87,0,4.31 c0,3.46,0,6.93,0,10.39c-1.57,0-3.14,0-4.71,0c0.01-7.47-0.02-14.94,0.01-22.41C25.63,3.88,26.36,2.32,27.1,0.76z"/>
	</g>
	<g>
		<path class="st2" d="M80.12,0.77c1.56,0,3.13-0.02,4.69,0.01c0.01,7.59,0.01,15.18,0.01,22.77c0.01,1.43,0.01,2.86,0,4.29 c-0.84,0.03-1.67,0-2.51,0.02c-0.7-1.44-1.35-2.9-2.04-4.35c-0.07-0.15-0.16-0.3-0.15-0.47C80.12,15.62,80.13,8.2,80.12,0.77z"/>
	</g>
	<g>
		<path class="st3" d="M176.53,0.77c0.85,0,1.7,0,2.55,0c-0.06,1.09-0.02,2.18-0.03,3.26c0.01,7.94,0.01,15.89,0.01,23.83 c-1.57,0-3.13,0-4.7,0c0.01-7.47-0.01-14.94,0.01-22.41C175.06,3.88,175.81,2.33,176.53,0.77z"/>
	</g>
</svg>
