<?xml version="1.0" encoding="utf-8"?>
<!-- Generator: Adobe Illustrator 24.0.1, SVG Export Plug-In . SVG Version: 6.00 Build 0)  -->
<svg version="1.1" id="Capa_1" xmlns="http://www.w3.org/2000/svg" xmlns:xlink="http://www.w3.org/1999/xlink" x="0px" y="0px"
	 viewBox="0 0 60 60" style="enable-background:new 0 0 60 60;" xml:space="preserve">
<style type="text/css">
	.st0{fill:#B5BE34;}
	.st1{fill-rule:evenodd;clip-rule:evenodd;fill:#B5BE34;}
</style>
<g>
	<path class="st0" d="M35.7,25.1c0,0.8-0.7,1.5-1.5,1.5h-9.1c-0.8,0-1.5-0.7-1.5-1.5v-1.6c0-0.8,0.7-1.5,1.5-1.5h9.1
		c0.9,0,1.5,0.7,1.5,1.5V25.1z M35.7,30.3c0,0.5-0.4,0.9-0.9,0.9h-1.4c-0.5,0-0.9-0.4-0.9-0.9v-1.5c0-0.5,0.4-0.9,0.9-0.9h1.4
		c0.5,0,0.9,0.4,0.9,0.9V30.3z M35.7,34.7c0,0.5-0.4,0.9-0.9,0.9h-1.4c-0.5,0-0.9-0.4-0.9-0.9v-1.5c0-0.5,0.4-0.9,0.9-0.9h1.4
		c0.5,0,0.9,0.4,0.9,0.9V34.7z M35.7,39.2c0,0.5-0.4,0.9-0.9,0.9h-1.4c-0.5,0-0.9-0.4-0.9-0.9v-1.5c0-0.5,0.4-0.9,0.9-0.9h1.4
		c0.5,0,0.9,0.4,0.9,0.9V39.2z M31.3,30.3c0,0.5-0.4,0.9-0.9,0.9h-1.4c-0.5,0-0.9-0.4-0.9-0.9v-1.5c0-0.5,0.4-0.9,0.9-0.9h1.4
		c0.5,0,0.9,0.4,0.9,0.9V30.3z M31.3,34.7c0,0.5-0.4,0.9-0.9,0.9h-1.4c-0.5,0-0.9-0.4-0.9-0.9v-1.5c0-0.5,0.4-0.9,0.9-0.9h1.4
		c0.5,0,0.9,0.4,0.9,0.9V34.7z M31.3,39.2c0,0.5-0.4,0.9-0.9,0.9h-1.4c-0.5,0-0.9-0.4-0.9-0.9v-1.5c0-0.5,0.4-0.9,0.9-0.9h1.4
		c0.5,0,0.9,0.4,0.9,0.9V39.2z M26.8,30.3c0,0.5-0.4,0.9-0.9,0.9h-1.4c-0.5,0-0.9-0.4-0.9-0.9v-1.5c0-0.5,0.4-0.9,0.9-0.9h1.4
		c0.5,0,0.9,0.4,0.9,0.9V30.3z M26.8,34.7c0,0.5-0.4,0.9-0.9,0.9h-1.4c-0.5,0-0.9-0.4-0.9-0.9v-1.5c0-0.5,0.4-0.9,0.9-0.9h1.4
		c0.5,0,0.9,0.4,0.9,0.9V34.7z M26.8,39.2c0,0.5-0.4,0.9-0.9,0.9h-1.4c-0.5,0-0.9-0.4-0.9-0.9v-1.5c0-0.5,0.4-0.9,0.9-0.9h1.4
		c0.5,0,0.9,0.4,0.9,0.9V39.2z M26.2,18.7v-2.1v-0.8h3.3v0.8v2.1v1.9h-3.3V18.7z M32,18.7v-2.1v-0.8h1v0.8v2.1v1.9h-1V18.7z
		 M36.6,16.6h-1.8v-1.7c0-0.5-0.4-0.9-0.9-0.9h-8.6c-0.5,0-0.9,0.4-0.9,0.9v1.7h-1.8c-1.1,0-2.1,0.9-2.1,2.1v20.9
		c0,1.1,0.9,2.1,2.1,2.1h14c1.1,0,2.1-0.9,2.1-2.1V18.7C38.7,17.5,37.8,16.6,36.6,16.6z"/>
	<path class="st1" d="M30,59C14,59,1,46,1,30S14,1,30,1s29,13,29,29S46,59,30,59z M30,1.4C14.2,1.4,1.4,14.2,1.4,30
		S14.2,58.6,30,58.6S58.6,45.8,58.6,30S45.8,1.4,30,1.4z"/>
	<path class="st1" d="M30,59C14,59,1,46,1,30c0-0.8,0.7-1.5,1.5-1.5S4,29.2,4,30c0,14.3,11.7,26,26,26s26-11.7,26-26S44.3,4,30,4
		c-0.8,0-1.5-0.7-1.5-1.5S29.2,1,30,1c16,0,29,13,29,29S46,59,30,59z"/>
</g>
</svg>
