<?xml version="1.0" encoding="utf-8"?>
<!-- Generator: Adobe Illustrator 24.0.1, SVG Export Plug-In . SVG Version: 6.00 Build 0)  -->
<svg version="1.1" id="Capa_1" xmlns="http://www.w3.org/2000/svg" xmlns:xlink="http://www.w3.org/1999/xlink" x="0px" y="0px"
	 viewBox="0 0 70 50" style="enable-background:new 0 0 70 50;" xml:space="preserve">
<style type="text/css">
	.st0{fill-rule:evenodd;clip-rule:evenodd;fill:#BADDEE;}
</style>
<path class="st0" d="M61.11,31.55c-1.05,1.03-2.45,1.56-3.92,1.52c-2.88-0.08-5.23-2.63-5.23-5.67v-1.87c0-0.16-0.04-0.31-0.11-0.44
	l-0.61-1.24c-0.23-0.45-0.35-0.96-0.35-1.47v-0.05c0-2.39,1.95-4.33,4.33-4.33h8.59v4.15c0,0.67-0.16,1.33-0.45,1.93l-0.51,1.01
	c-0.07,0.13-0.11,0.28-0.11,0.44v2.13C62.75,29.15,62.16,30.52,61.11,31.55z M57.35,37.99l-2.25-2.27c0.04-0.17,0.07-0.37,0.07-0.59
	v-0.43c0.63,0.21,1.28,0.33,1.96,0.36h0.24c0.75,0,1.49-0.12,2.19-0.33v0.4c0,0.2,0.03,0.4,0.08,0.59L57.35,37.99z M39.16,38.83
	c0,0.01-0.01,0.03-0.04,0.04c-0.04,0-0.05-0.01-0.07-0.03l-2.49-2.49l4.71-3.21l1,1.04L39.16,38.83z M35.01,34.99l-5.4-3.69v-1.85
	c1.4,0.75,2.96,1.23,4.63,1.33c0.27,0.01,0.52,0.03,0.79,0.03c1.91,0,3.73-0.45,5.37-1.32v1.81L35.01,34.99z M30.97,38.84
	c-0.01,0.01-0.03,0.03-0.07,0.03c-0.03-0.01-0.04-0.03-0.04-0.04l-3.11-4.65l1-1.04l4.69,3.21L30.97,38.84z M25.36,18.77v-2.48
	c0-0.15-0.04-0.31-0.11-0.44c-0.64-1.32-0.96-2.73-0.96-4.19V9.53c0-4.16,3.37-7.53,7.52-7.53h13.92v9.67
	c0,1.45-0.32,2.87-0.97,4.19c-0.05,0.13-0.09,0.29-0.09,0.44v2.84c0,2.71-1.08,5.21-3.05,7.05c-0.24,0.23-0.51,0.45-0.76,0.65
	l-0.03,0.01c-1.84,1.4-4.09,2.08-6.45,1.93C29.32,28.45,25.36,24.05,25.36,18.77z M15.77,34.95v-1.19c1.16-0.8,2.08-1.92,2.63-3.25
	c0.12,0.87,0.29,1.68,0.57,2.39C18.57,33.37,17.64,34.28,15.77,34.95z M11.59,33.07c-2.97,0-5.4-2.43-5.4-5.4c0-0.55-0.44-1-1-1
	l-0.16,0.01l0.01-0.25c0.01-0.68,0.04-1.33,0.08-1.89c0.13-1.79,0.84-3.44,2.01-4.65C8.32,18.67,9.89,18,11.59,18
	c1.68,0,3.27,0.67,4.44,1.88c1.17,1.21,1.89,2.87,2.01,4.65c0.04,0.56,0.07,1.21,0.09,1.89v0.17c-1.08-1.67-2.76-2.91-4.92-3.6
	c-2-0.64-3.72-0.6-3.79-0.6c-0.27,0.01-0.51,0.12-0.69,0.31l-1.8,1.87c-0.37,0.4-0.36,1.03,0.03,1.41c0.4,0.39,1.03,0.37,1.41-0.03
	l1.49-1.56c1.29,0.07,5.43,0.55,7.04,4.11C16.51,31.12,14.25,33.07,11.59,33.07z M13.09,37.65c-0.84,0.8-2.17,0.8-3.03,0l-0.92-0.88
	c0.15-0.29,0.24-0.63,0.24-0.97v-1.07c0.69,0.21,1.43,0.33,2.2,0.33c0.76,0,1.49-0.12,2.2-0.33v1.07c0,0.35,0.08,0.68,0.24,0.97
	L13.09,37.65z M7.39,34.95c-1.85-0.67-2.8-1.56-3.19-2.05c0.27-0.71,0.44-1.53,0.56-2.39c0.55,1.32,1.47,2.44,2.63,3.25V34.95z
	 M65.96,36.71l-4.12-1.17c-0.17-0.05-0.29-0.21-0.29-0.4v-1.37c0.33-0.24,0.65-0.49,0.95-0.79c1.45-1.4,2.24-3.29,2.24-5.31v-1.89
	l0.4-0.8c0.44-0.88,0.67-1.85,0.67-2.83V17c0-0.55-0.44-1-0.99-1h-9.59c-3.49,0-6.32,2.84-6.32,6.33v0.05
	c0,0.81,0.19,1.63,0.55,2.36l0.52,1.03v1.63c0,2.59,1.27,4.89,3.19,6.29v1.44c0,0.23,0,0.32-0.83,0.55l-2,0.57l-5.81-2.11
	c0.03-0.28-0.07-0.56-0.27-0.77l-1.85-1.95v-3.28c0.2-0.16,0.39-0.32,0.57-0.51c2.35-2.19,3.68-5.29,3.68-8.51v-2.61
	c0.71-1.55,1.07-3.17,1.07-4.85V1c0-0.56-0.44-1-0.99-1H31.81c-5.24,0-9.51,4.28-9.51,9.53v2.13c0,1.68,0.35,3.31,1.05,4.85v2.25
	c0,3.72,1.67,7.08,4.27,9.29v3.36l-1.85,1.95c-0.2,0.21-0.29,0.49-0.28,0.77l-6.12,2.23c-0.44,0.16-0.85,0.39-1.24,0.65l-0.96-0.49
	c2.87-1.24,3.77-3,3.81-3.08c0.15-0.29,0.15-0.61,0-0.89c-0.71-1.44-0.8-4.08-0.87-6.2c-0.03-0.71-0.05-1.37-0.09-1.96
	c-0.33-4.79-3.97-8.4-8.44-8.4c-4.48,0-8.12,3.61-8.45,8.4c-0.04,0.59-0.07,1.25-0.09,1.96c-0.07,2.12-0.15,4.76-0.87,6.2
	c-0.15,0.28-0.15,0.6,0,0.88c0.04,0.09,0.95,1.85,3.81,3.09l-2.67,1.35C1.89,38.59,1,40.03,1,41.63V49c0,0.55,0.44,1,1,1
	c0.55,0,0.99-0.45,0.99-1v-7.37c0-0.84,0.47-1.59,1.23-1.96L7.53,38l1.16,1.09c0.81,0.77,1.85,1.16,2.89,1.16s2.07-0.39,2.88-1.16
	L15.63,38l1.08,0.53c-0.51,0.83-0.8,1.79-0.8,2.79V49c0,0.55,0.45,1,1,1c0.55,0,1-0.45,1-1v-7.68c0-1.36,0.85-2.6,2.15-3.07
	l6.45-2.36l2.69,4.04c0.35,0.52,0.89,0.85,1.52,0.92h0.2c0.55,0,1.07-0.21,1.45-0.6l1.64-1.64V49c0,0.55,0.45,1,1,1
	c0.55,0,1-0.45,1-1V38.61l1.64,1.64c0.39,0.39,0.91,0.6,1.45,0.6h0.2c0.63-0.07,1.17-0.4,1.52-0.92l2.68-4.04l6.47,2.36
	c1.28,0.47,2.15,1.71,2.15,3.07V49c0,0.56,0.45,1,1,1c0.55,0,1-0.44,1-1v-7.68c0-1.39-0.56-2.68-1.48-3.65l0.25-0.07
	c0.24-0.07,0.59-0.16,0.92-0.33l2.55,2.55V49c0,0.56,0.44,1,0.99,1c0.56,0,1-0.44,1-1v-9.19l2.53-2.53
	c0.13,0.08,0.27,0.13,0.41,0.17l4.12,1.17c0.93,0.27,1.6,1.15,1.6,2.12V49c0,0.56,0.44,1,0.99,1c0.56,0,1-0.44,1-1v-8.25
	C69,38.88,67.75,37.23,65.96,36.71z"/>
<g>
</g>
<g>
</g>
<g>
</g>
<g>
</g>
<g>
</g>
<g>
</g>
<g>
</g>
<g>
</g>
<g>
</g>
<g>
</g>
<g>
</g>
<g>
</g>
<g>
</g>
<g>
</g>
<g>
</g>
</svg>
