<?xml version="1.0" encoding="utf-8"?>
<!-- Generator: Adobe Illustrator 24.0.1, SVG Export Plug-In . SVG Version: 6.00 Build 0)  -->
<svg version="1.1" id="Capa_1" xmlns="http://www.w3.org/2000/svg" xmlns:xlink="http://www.w3.org/1999/xlink" x="0px" y="0px"
	 viewBox="0 0 60 60" style="enable-background:new 0 0 60 60;" xml:space="preserve">
<style type="text/css">
	.st0{fill-rule:evenodd;clip-rule:evenodd;fill:#0083C1;}
</style>
<g>
	<path class="st0" d="M30,58.8c-16,0-29-13-29-29s13-29,29-29s29,13,29,29S46,58.8,30,58.8z M30,1.2C14.2,1.2,1.4,14.1,1.4,29.8
		S14.2,58.5,30,58.5s28.6-12.8,28.6-28.6S45.8,1.2,30,1.2z"/>
	<path class="st0" d="M30,59.2c-16,0-29-13-29-29c0-0.8,0.7-1.5,1.5-1.5S4,29.4,4,30.2c0,14.3,11.7,26,26,26s26-11.7,26-26
		s-11.7-26-26-26c-0.8,0-1.5-0.7-1.5-1.5s0.7-1.5,1.5-1.5c16,0,29,13,29,29S46,59.2,30,59.2z"/>
	<path class="st0" d="M32.1,26c-0.2,0.1-0.4,0.1-0.6,0.1c-0.5,0-1-0.3-1.2-0.7c-0.7-1.5-2.2-2.4-3.9-2.4c-0.7,0-1.4-0.6-1.4-1.3
		s0.6-1.3,1.4-1.3c2.7,0,5.2,1.5,6.3,3.9C33.1,24.8,32.8,25.6,32.1,26z M27.1,19c-4.9,0-8.9,3.9-8.9,8.6c0,4.8,4,8.7,8.9,8.7
		c2.2,0,4.2-0.8,5.7-2.1c0.5-0.4,0.9-0.8,1.3-1.3c1.2-1.5,1.9-3.3,1.9-5.3C36,22.9,32,19,27.1,19z M41.1,41
		c-0.3,0.3-0.8,0.5-1.2,0.5S39,41.3,38.7,41l-4.5-4.4c-2,1.5-4.4,2.4-7.1,2.4c-6.4,0-11.6-5.1-11.6-11.3s5.2-11.3,11.6-11.3
		s11.6,5.1,11.6,11.3c0,2.4-0.8,4.7-2.2,6.5l4.5,4.4C41.8,39.3,41.8,40.3,41.1,41z"/>
</g>
</svg>
