<?xml version="1.0" encoding="utf-8"?>
<!-- Generator: Adobe Illustrator 24.0.1, SVG Export Plug-In . SVG Version: 6.00 Build 0)  -->
<svg version="1.1" id="Capa_1" xmlns="http://www.w3.org/2000/svg" xmlns:xlink="http://www.w3.org/1999/xlink" x="0px" y="0px"
	 viewBox="0 0 60 60" style="enable-background:new 0 0 60 60;" xml:space="preserve">
<style type="text/css">
	.st0{fill-rule:evenodd;clip-rule:evenodd;fill:#FFFFFF;}
</style>
<g>
	<path class="st0" d="M18.4,14.9h23.2c0.3,0,0.6,0.1,0.8,0.3c0.2,0.2,0.3,0.5,0.3,0.8c0,0.3-0.1,0.6-0.3,0.8
		c-0.2,0.2-0.5,0.3-0.8,0.3H18.4c-0.3,0-0.6-0.1-0.8-0.3s-0.3-0.5-0.3-0.8c0-0.3,0.1-0.6,0.3-0.8C17.8,15,18.1,14.9,18.4,14.9z
		 M18.4,18.4L18.4,18.4h23.2c0.3,0,0.6,0.1,0.8,0.3c0.2,0.2,0.3,0.5,0.3,0.8c0,0.3-0.1,0.6-0.3,0.8c-0.2,0.2-0.5,0.3-0.8,0.3H18.4
		c-0.3,0-0.6-0.2-0.8-0.3c-0.2-0.2-0.3-0.5-0.3-0.8c0-0.3,0.1-0.6,0.3-0.8C17.8,18.5,18.1,18.4,18.4,18.4z M51.5,57L51.5,57
		c0.4-0.4,0.7-1,0.7-1.6V32.5c0-0.7-0.3-1.3-0.7-1.7c-0.4-0.4-1-0.7-1.6-0.7H30.1c-0.8,0-1.5-0.2-2.1-0.5c-0.6-0.3-1.2-0.8-1.6-1.5
		l-1.4-2.1c-0.2-0.3-0.5-0.6-0.8-0.8c-0.3-0.2-0.7-0.3-1.1-0.3h-13c-0.6,0-1.2,0.3-1.6,0.7c-0.4,0.4-0.6,1-0.6,1.6v28.1
		c0,0.6,0.3,1.2,0.6,1.6c0.4,0.4,1,0.7,1.6,0.7h39.7C50.5,57.7,51.1,57.4,51.5,57z M30.1,27.8L30.1,27.8c-0.4,0-0.8-0.1-1.1-0.3
		c-0.3-0.2-0.6-0.5-0.8-0.8l-1.4-2.1c-0.4-0.6-1-1.1-1.6-1.5c-0.6-0.3-1.4-0.5-2.1-0.5H13v-18C13,4,13.2,3.4,13.6,3
		c0.4-0.4,1-0.7,1.6-0.7h29.6c0.6,0,1.2,0.3,1.6,0.7C46.8,3.4,47,4,47,4.6v20.3c0,0.3,0.1,0.6,0.3,0.8c0.2,0.2,0.5,0.3,0.8,0.3
		c0.3,0,0.6-0.1,0.8-0.3c0.2-0.2,0.3-0.5,0.3-0.8V4.6c0-1.3-0.5-2.4-1.3-3.2C47.2,0.5,46,0,44.8,0H15.2c-1.2,0-2.3,0.5-3.1,1.4
		c-0.8,0.8-1.3,2-1.3,3.2v18h-0.6c-1.2,0-2.4,0.5-3.2,1.4c-0.8,0.8-1.3,2-1.3,3.3v28.1c0,1.3,0.5,2.4,1.3,3.2
		c0.8,0.8,1.9,1.4,3.2,1.4h39.7c1.2,0,2.4-0.5,3.2-1.4c0.8-0.8,1.3-2,1.3-3.2V32.5c0-1.3-0.5-2.4-1.3-3.3c-0.8-0.8-1.9-1.4-3.2-1.4
		H30.1z M40.5,9.6L40.5,9.6L40.5,9.6V7.5l0,0l0,0H19.5v0h0v2.1h0l0,0H40.5L40.5,9.6z M42,5.9L42,5.9c0.4,0.4,0.7,1,0.7,1.6v2.1
		c0,0.6-0.3,1.2-0.7,1.6c-0.4,0.4-0.9,0.7-1.6,0.7H19.5c-0.6,0-1.2-0.3-1.6-0.7c-0.4-0.4-0.7-1-0.7-1.6V7.5c0-0.6,0.3-1.2,0.7-1.6
		c0.4-0.4,0.9-0.7,1.6-0.7h20.9C41.1,5.2,41.6,5.5,42,5.9z M24.5,34L24.5,34c1.6-1,3.5-1.5,5.5-1.5c3,0,5.8,1.3,7.8,3.4
		c2,2.1,3.2,4.9,3.2,8.1c0,3.1-1.2,6-3.2,8.1c-2,2.1-4.8,3.3-7.8,3.3s-5.8-1.3-7.8-3.3c-2-2.1-3.2-4.9-3.2-8.1c0-0.3,0-0.5,0-0.8
		c0-0.2,0-0.5,0-0.7l0,0c0-0.3,0.2-0.6,0.4-0.8c0.2-0.2,0.5-0.3,0.8-0.3l0,0c0.3,0,0.5,0.2,0.7,0.4c0.2,0.2,0.3,0.5,0.2,0.8v0
		c0,0.2,0,0.4,0,0.6c0,0.2,0,0.4,0,0.6c0,2.5,1,4.8,2.6,6.5C25.4,52,27.6,53,30,53c2.4,0,4.6-1,6.2-2.7c1.6-1.6,2.6-3.9,2.6-6.5
		c0-2.5-1-4.8-2.6-6.5c-1.6-1.7-3.8-2.7-6.2-2.7c-1.6,0-3.1,0.5-4.4,1.2c-1.3,0.8-2.4,1.9-3.2,3.3c-0.2,0.3-0.4,0.5-0.7,0.5
		c-0.3,0.1-0.5,0-0.8-0.1h-0.1c-0.3-0.2-0.4-0.5-0.5-0.7c0-0.3,0-0.5,0.1-0.8l0,0C21.5,36.4,22.9,35,24.5,34z"/>
	<path class="st0" d="M29.4,38.5h1.3c0.3,0,0.6,0.1,0.8,0.3s0.3,0.5,0.3,0.8v2.1h2c0.3,0,0.6,0.1,0.8,0.3c0.2,0.2,0.3,0.5,0.3,0.8
		v1.4c0,0.3-0.1,0.6-0.3,0.8c-0.2,0.2-0.5,0.3-0.8,0.3h-2v2.1c0,0.3-0.1,0.6-0.3,0.8c-0.2,0.2-0.5,0.4-0.8,0.4h-1.3
		c-0.3,0-0.6-0.2-0.8-0.4c-0.2-0.2-0.3-0.5-0.3-0.8v-2.1h-2c-0.3,0-0.6-0.1-0.8-0.3c-0.2-0.2-0.3-0.5-0.3-0.8V43
		c0-0.3,0.1-0.6,0.3-0.8c0.2-0.2,0.5-0.3,0.8-0.3h2v-2.1c0-0.3,0.1-0.6,0.3-0.8S29.1,38.5,29.4,38.5z"/>
</g>
</svg>
