<?xml version="1.0" encoding="utf-8"?>
<!-- Generator: Adobe Illustrator 24.0.1, SVG Export Plug-In . SVG Version: 6.00 Build 0)  -->
<svg version="1.1" id="Capa_1" xmlns="http://www.w3.org/2000/svg" xmlns:xlink="http://www.w3.org/1999/xlink" x="0px" y="0px"
	 viewBox="0 0 60 60" style="enable-background:new 0 0 60 60;" xml:space="preserve">
<style type="text/css">
	.st0{fill-rule:evenodd;clip-rule:evenodd;fill:#FFFFFF;}
</style>
<g>
	<path class="st0" d="M5,22.6c0.6,0,1-0.4,1-1v-11C6,9.4,7,8.5,8.1,8.5h43.8c1.1,0,2.1,0.9,2.1,2.1v11c0,0.6,0.5,1,1,1
		c0.6,0,1-0.4,1-1v-11c0-2.2-1.8-4.1-4.1-4.1H8.1C5.8,6.5,4,8.3,4,10.6v11C4,22.1,4.5,22.6,5,22.6z"/>
	<path class="st0" d="M6,40.1H54v0.5c0,1.1-0.9,2.1-2.1,2.1H8.1C7,42.7,6,41.7,6,40.6V40.1z M21.9,51.5c1-1.8,1.6-4.2,1.9-6.8h12.5
		c0.2,2.6,0.9,5,1.9,6.8H21.9z M8.1,44.7h13.6c-0.3,3-1.2,5.6-2.5,7.2c-0.3,0.3-0.3,0.7-0.1,1.1c0.2,0.3,0.5,0.6,0.9,0.6H40
		c0.4,0,0.7-0.2,0.9-0.6c0.2-0.3,0.1-0.8-0.1-1.1c-1.3-1.6-2.2-4.2-2.5-7.2h13.6c2.3,0,4.1-1.8,4.1-4.1v-11c0-0.6-0.5-1-1-1
		c-0.6,0-1,0.4-1,1v8.5H6v-8.5c0-0.6-0.5-1-1-1s-1,0.4-1,1v11C4,42.8,5.8,44.7,8.1,44.7z"/>
	<path class="st0" d="M49.2,20H10.8V15h38.3V20z M51.2,14c0-0.6-0.5-1-1-1H9.8c-0.6,0-1,0.5-1,1V21c0,0.6,0.5,1,1,1h40.4
		c0.6,0,1-0.4,1-1V14z"/>
	<path class="st0" d="M13.2,18.5H15c0.6,0,1-0.5,1-1c0-0.5-0.5-1-1-1h-1.9c-0.6,0-1,0.5-1,1C12.1,18,12.6,18.5,13.2,18.5z"/>
	<path class="st0" d="M50.2,26.6h-18c-0.6,0-1,0.5-1,1c0,0.6,0.5,1,1,1h18c0.6,0,1-0.5,1-1C51.2,27.1,50.7,26.6,50.2,26.6z"/>
	<path class="st0" d="M27.8,26.6h-18c-0.6,0-1,0.5-1,1c0,0.6,0.5,1,1,1h18c0.6,0,1-0.5,1-1C28.8,27.1,28.4,26.6,27.8,26.6z"/>
	<path class="st0" d="M27.8,31.4h-18c-0.6,0-1,0.5-1,1c0,0.6,0.5,1,1,1h18c0.6,0,1-0.5,1-1C28.8,31.8,28.4,31.4,27.8,31.4z"/>
	<path class="st0" d="M50.2,31.4h-18c-0.6,0-1,0.5-1,1c0,0.6,0.5,1,1,1h18c0.6,0,1-0.5,1-1C51.2,31.8,50.7,31.4,50.2,31.4z"/>
	<path class="st0" d="M18.5,18.5h1.9c0.6,0,1-0.5,1-1c0-0.5-0.5-1-1-1h-1.9c-0.6,0-1,0.5-1,1C17.4,18,17.9,18.5,18.5,18.5z"/>
	<path class="st0" d="M23.7,18.5h1.9c0.6,0,1-0.5,1-1c0-0.5-0.5-1-1-1h-1.9c-0.6,0-1,0.5-1,1C22.7,18,23.2,18.5,23.7,18.5z"/>
	<path class="st0" d="M29,18.5h1.9c0.6,0,1-0.5,1-1c0-0.5-0.5-1-1-1H29c-0.6,0-1,0.5-1,1C28,18,28.5,18.5,29,18.5z"/>
	<path class="st0" d="M5,24.6c-0.6,0-1,0.5-1,1c0,0.6,0.5,1,1,1s1-0.5,1-1C6,25,5.6,24.6,5,24.6z"/>
	<path class="st0" d="M55,24.6c-0.6,0-1,0.5-1,1c0,0.6,0.5,1,1,1c0.6,0,1-0.5,1-1C56,25,55.5,24.6,55,24.6z"/>
</g>
</svg>
