<?xml version="1.0" encoding="utf-8"?>
<!-- Generator: Adobe Illustrator 24.0.1, SVG Export Plug-In . SVG Version: 6.00 Build 0)  -->
<svg version="1.1" id="Capa_1" xmlns="http://www.w3.org/2000/svg" xmlns:xlink="http://www.w3.org/1999/xlink" x="0px" y="0px"
	 viewBox="0 0 60 60" style="enable-background:new 0 0 60 60;" xml:space="preserve">
<style type="text/css">
	.st0{fill-rule:evenodd;clip-rule:evenodd;fill:#B5BE34;}
	.st1{fill:#B5BE34;}
</style>
<path class="st0" d="M30,59C14,59,1,46,1,30S14,1,30,1s29,13,29,29S46,59,30,59z M30,1.4C14.2,1.4,1.4,14.2,1.4,30
	S14.2,58.6,30,58.6S58.6,45.8,58.6,30S45.8,1.4,30,1.4z"/>
<path class="st0" d="M30,59C14,59,1,46,1,30c0-0.8,0.7-1.5,1.5-1.5S4,29.2,4,30c0,14.3,11.7,26,26,26s26-11.7,26-26S44.3,4,30,4
	c-0.8,0-1.5-0.7-1.5-1.5S29.2,1,30,1c16,0,29,13,29,29S46,59,30,59z"/>
<g>
	<g>
		<path class="st1" d="M37,34.4c-0.9-0.9-2-0.9-2.9,0c-0.7,0.7-1.3,1.3-2,2c-0.2,0.2-0.3,0.2-0.6,0.1c-0.4-0.2-0.9-0.4-1.3-0.7
			c-1.9-1.2-3.6-2.8-5-4.6c-0.7-0.9-1.3-1.8-1.8-2.9c-0.1-0.2-0.1-0.4,0.1-0.5c0.7-0.6,1.3-1.3,2-2c0.9-0.9,0.9-2,0-2.9
			c-0.5-0.5-1-1-1.6-1.6c-0.5-0.5-1.1-1.1-1.6-1.6c-0.9-0.9-2-0.9-2.9,0c-0.7,0.7-1.3,1.3-2,2c-0.6,0.6-1,1.3-1,2.2
			c-0.1,1.4,0.2,2.7,0.7,4c1,2.7,2.5,5,4.3,7.2c2.5,2.9,5.4,5.3,8.9,6.9c1.6,0.8,3.2,1.3,4.9,1.4c1.2,0.1,2.2-0.2,3.1-1.2
			c0.6-0.6,1.2-1.2,1.8-1.8c0.9-0.9,0.9-2,0-2.9C39.2,36.5,38.1,35.4,37,34.4z"/>
		<path class="st1" d="M36,29.9l2.1-0.4c-0.3-1.9-1.2-3.6-2.6-5c-1.4-1.4-3.3-2.4-5.3-2.6L29.9,24c1.6,0.2,3,0.9,4.1,2
			C35,27.1,35.7,28.4,36,29.9z"/>
		<path class="st1" d="M39.2,20.9c-2.4-2.4-5.4-3.9-8.8-4.4l-0.3,2.1c2.9,0.4,5.5,1.7,7.6,3.8c2,2,3.2,4.4,3.7,7.2l2.1-0.4
			C43,26,41.5,23.1,39.2,20.9z"/>
	</g>
</g>
</svg>
