<?xml version="1.0" encoding="utf-8"?>
<!-- Generator: Adobe Illustrator 24.0.1, SVG Export Plug-In . SVG Version: 6.00 Build 0)  -->
<svg version="1.1" id="Capa_1" xmlns="http://www.w3.org/2000/svg" xmlns:xlink="http://www.w3.org/1999/xlink" x="0px" y="0px"
	 viewBox="0 0 60 60" style="enable-background:new 0 0 60 60;" xml:space="preserve">
<style type="text/css">
	.st0{fill-rule:evenodd;clip-rule:evenodd;fill:#FFFFFF;}
</style>
<g>
	<path class="st0" d="M54,11.3H25.8C25.2,7.7,22.2,5,18.5,5H6C5.5,5,5,5.5,5,6V54c0,0.6,0.5,1,1,1h26v-2.1h-25V7.1h11.5
		c2.5,0,4.6,1.8,5.1,4.2H13.3v2.1h11.5h28.1v8.3H55v-9.4C55,11.7,54.5,11.3,54,11.3z"/>
	<path class="st0" d="M36.3,52.9V42.5c0-2.3,1.5-4.2,3.6-4.9l3.7,9.3v4h2.1v-4l3.7-9.3c2.1,0.7,3.6,2.6,3.6,4.9v10.4H36.3z
		 M47.2,37.3l-2.6,6.6L42,37.3h2.4h0.3H47.2z M38.3,28.7v-1.3l3.2-2.4c1.2,0.6,4.2,1.7,9.3,1.9v0V29v0.2c-0.1,3.3-2.8,6-6.1,6.1
		h-0.4C40.9,35,38.3,32.1,38.3,28.7z M44.6,20.6c2.7,0,5,1.7,5.9,4.1c-5.8-0.2-8.4-1.9-8.4-1.9c-0.4-0.2-0.9-0.2-1.2,0l-2,1.5
		C39.8,22.2,42,20.6,44.6,20.6z M49.7,35.5c1.9-1.5,3.2-3.9,3.2-6.5v-2.1c0-4.6-3.7-8.3-8.3-8.3s-8.3,3.7-8.3,8.3v1.8
		c0,2.8,1.2,5.2,3.3,6.8c-3.1,0.8-5.3,3.7-5.4,7V54c0,0.6,0.5,1,1.1,1H54c0.6,0,1-0.5,1-1V42.5C55,39.2,52.8,36.4,49.7,35.5z"/>
	<path class="st0" d="M45.6,30c0,0.6-0.5,1-1,1s-1-0.5-1-1h-2.1c0,1.7,1.4,3.1,3.1,3.1c1.7,0,3.1-1.4,3.1-3.1H45.6z"/>
	<rect x="13.3" y="16.5" class="st0" width="12.5" height="2.1"/>
	<rect x="13.3" y="21.7" class="st0" width="12.5" height="2.1"/>
	<rect x="13.3" y="26.9" class="st0" width="12.5" height="2.1"/>
	<path class="st0" d="M11.3,48.7v-3.1H9.2v4.2c0,0.6,0.5,1.1,1,1.1h4.2v-2.1H11.3z"/>
	<rect x="16.5" y="48.7" class="st0" width="2.1" height="2.1"/>
	<rect x="27.9" y="16.5" class="st0" width="2.1" height="2.1"/>
	<rect x="27.9" y="21.7" class="st0" width="2.1" height="2.1"/>
	<rect x="27.9" y="26.9" class="st0" width="2.1" height="2.1"/>
	<rect x="9.2" y="11.3" class="st0" width="2.1" height="2.1"/>
	<path class="st0" d="M23.7,40.4h-8.3v-6.2h8.3V40.4z M24.8,32.1H14.4c-0.6,0-1,0.5-1,1v8.3c0,0.6,0.5,1,1,1h10.4c0.6,0,1-0.5,1-1
		v-8.3C25.8,32.5,25.4,32.1,24.8,32.1z"/>
</g>
</svg>
