<?xml version="1.0" encoding="utf-8"?>
<!-- Generator: Adobe Illustrator 24.0.1, SVG Export Plug-In . SVG Version: 6.00 Build 0)  -->
<svg version="1.1" id="Capa_1" xmlns="http://www.w3.org/2000/svg" xmlns:xlink="http://www.w3.org/1999/xlink" x="0px" y="0px"
	 viewBox="0 0 60 60" style="enable-background:new 0 0 60 60;" xml:space="preserve">
<style type="text/css">
	.st0{fill-rule:evenodd;clip-rule:evenodd;fill:#FFFFFF;}
</style>
<g>
	<path class="st0" d="M41.5,45.2l0.8-1.4L39.6,42c0-0.3,0-0.6,0-0.8c0-0.3,0-0.6,0-0.9l2.7-1.9l-4.1-7.2l-2.8,1.9
		c-0.4-0.3-0.8-0.5-1.3-0.7v-3.7h-8.3v3.7c-0.4,0.2-0.9,0.5-1.3,0.7l-2.8-1.9l-4.1,7.2l2.7,1.9c0,0.3,0,0.6,0,0.9c0,0.3,0,0.5,0,0.8
		l-2.7,1.9l0.8,1.4H9.3V23h41.5v22.2H41.5z M36.9,41.1c0,0.8-0.2,1.5-0.3,2.1l2.1,1.4L37.3,47l-2.1-1.4c-0.6,0.4-1.3,1.4-2.9,1.9
		l-0.9,0.3v2.9h-2.8v-2.9l-0.9-0.3c-1.6-0.6-2.4-1.5-2.9-1.9L22.7,47l-1.4-2.4l2.1-1.4c-0.1-0.7-0.3-1.3-0.3-2.1
		c0-0.8,0.2-1.5,0.3-2.1l-2.1-1.4l1.4-2.4l2.1,1.4c0.6-0.4,1.3-1.4,2.9-1.9l0.9-0.3v-2.9h2.8v2.9l0.9,0.3c1.6,0.6,2.4,1.5,2.9,1.9
		l2.1-1.4l1.4,2.4L36.6,39C36.7,39.6,36.9,40.3,36.9,41.1L36.9,41.1z M20.7,9.3l2.8,8.3h27.2v2.8H9.3v-11H20.7z M48,12v2.8H25.5
		L24.6,12H48z M50.7,14.8V9.3H23.6l-0.9-2.8H6.5V48h13.6l1.7,3l2.8-1.9c0.4,0.3,0.8,0.5,1.3,0.7v3.7h8.3v-3.7
		c0.4-0.2,0.9-0.5,1.3-0.7l2.8,1.9l1.7-3h13.6V14.8H50.7z"/>
	<path class="st0" d="M30,42.5c-0.8,0-1.4-0.6-1.4-1.4c0-0.8,0.6-1.4,1.4-1.4c0.7,0,1.4,0.6,1.4,1.4C31.4,41.9,30.8,42.5,30,42.5z
		 M30,37c-2.3,0-4.1,1.9-4.1,4.1c0,2.3,1.9,4.1,4.1,4.1c2.3,0,4.1-1.9,4.1-4.1C34.1,38.8,32.3,37,30,37z"/>
</g>
</svg>
