<?xml version="1.0" encoding="utf-8"?>
<!-- Generator: Adobe Illustrator 24.0.1, SVG Export Plug-In . SVG Version: 6.00 Build 0)  -->
<svg version="1.1" id="Capa_1" xmlns="http://www.w3.org/2000/svg" xmlns:xlink="http://www.w3.org/1999/xlink" x="0px" y="0px"
	 viewBox="0 0 75 60" style="enable-background:new 0 0 75 60;" xml:space="preserve">
<style type="text/css">
	.st0{fill-rule:evenodd;clip-rule:evenodd;fill:#F4F4F4;}
	.st1{fill-rule:evenodd;clip-rule:evenodd;fill:#545454;}
	.st2{fill-rule:evenodd;clip-rule:evenodd;fill:#0083C0;}
	.st3{fill-rule:evenodd;clip-rule:evenodd;fill:#B5BE34;}
	.st4{fill-rule:evenodd;clip-rule:evenodd;fill:#B11E8C;}
</style>
<g>
	<polygon class="st0" points="0.8,46.3 54,46.3 54,59.4 0.8,59.4 4.2,53.3 	"/>
	<g>
		<path class="st1" d="M12.9,51.9l0.8,2.2h-1.5L12.9,51.9z M15.4,56l-1.9-5.4h-1.3L10.4,56h1.1l0.3-1.1H14l0.3,1.1H15.4z"/>
		<path class="st1" d="M21.6,54.3l-2.4-3.7h-1.1V56h1.1v-3.7l2.4,3.7h1.1v-5.4h-1.1V54.3z M19,50.2h0.5h0.3h0.4h0.5
			c0.5,0,0.8-0.3,0.9-0.8h-0.6c0,0.1-0.1,0.1-0.3,0.1c-0.1,0-0.2,0-0.4-0.1c-0.2,0-0.4,0-0.5,0C19.4,49.4,19.1,49.7,19,50.2z"/>
		<path class="st1" d="M30.1,55.2c0.5-0.5,0.8-1.2,0.8-1.9s-0.3-1.4-0.8-1.9c-0.5-0.5-1.2-0.8-1.9-0.8c-0.8,0-1.4,0.3-2,0.8
			c-0.5,0.5-0.8,1.2-0.8,1.9s0.3,1.4,0.8,1.9c0.5,0.5,1.2,0.8,2,0.8C28.9,56,29.6,55.7,30.1,55.2z M28.2,55.1
			c-0.5,0-0.9-0.2-1.2-0.5c-0.3-0.3-0.4-0.8-0.4-1.3s0.1-1,0.4-1.3c0.3-0.3,0.7-0.5,1.2-0.5c0.5,0,0.9,0.2,1.2,0.5
			c0.3,0.3,0.5,0.8,0.5,1.3s-0.2,1-0.5,1.3C29,54.9,28.6,55.1,28.2,55.1z"/>
		<path class="st1" d="M36,51.6c0.1,0.1,0.2,0.3,0.2,0.5h1.2c0-0.5-0.2-0.9-0.6-1.2c-0.3-0.3-0.8-0.4-1.3-0.4c-0.6,0-1,0.1-1.4,0.4
			c-0.3,0.3-0.5,0.7-0.5,1.1c0,0.4,0.1,0.6,0.3,0.8c0.2,0.2,0.4,0.4,0.7,0.5c0.3,0.1,0.5,0.2,0.8,0.2c0.3,0.1,0.5,0.1,0.7,0.3
			c0.2,0.1,0.3,0.3,0.3,0.5c0,0.2-0.1,0.4-0.2,0.5c-0.1,0.1-0.3,0.2-0.6,0.2c-0.5,0-0.8-0.2-0.8-0.7h-1.2c0,0.5,0.2,0.9,0.5,1.1
			c0.4,0.3,0.8,0.4,1.4,0.4c0.6,0,1-0.2,1.4-0.5c0.3-0.3,0.5-0.7,0.5-1.1c0-0.3,0-0.5-0.1-0.7c-0.1-0.2-0.2-0.3-0.4-0.4
			c-0.2-0.1-0.4-0.2-0.5-0.2C36.2,53,36,53,35.8,52.9c-0.2,0-0.4-0.1-0.5-0.2c-0.2-0.1-0.3-0.1-0.4-0.2c-0.1-0.1-0.1-0.2-0.1-0.5
			c0-0.2,0.1-0.3,0.2-0.4c0.1-0.1,0.3-0.2,0.5-0.2C35.7,51.5,35.9,51.5,36,51.6z"/>
	</g>
	<path class="st2" d="M23.8,38.5c0,2.4,0.4,4,1.1,4.9c0.7,0.9,2,1.4,3.8,1.4v1.8c-6.2-0.2-10.2-0.4-12-0.4c-2,0-6.5,0.1-13.4,0.3
		l-2.5,0.1v-1.8c2.5,0,4.3-0.5,5.6-1.6c1.2-1,1.9-2.9,1.9-5.6V16.3c0-2.8-0.2-4.8-0.6-6.1C7.1,8.9,6.4,8,5.4,7.6
		c-1-0.4-2.6-0.7-4.6-0.7V5c5.6-0.1,10.2-0.5,13.7-1.2c3.6-0.7,6.7-1.7,9.3-3.2V38.5z"/>
	<path class="st3" d="M74.2,3.4c-0.5,1.1-1.9,3.6-4.1,7.6c-2.4,4.3-4.3,7.9-5.8,11c-1.5,3-2.8,6.5-3.9,10.5c-1.1,3.9-1.7,8-1.7,12.2
		c0.1,0.6,0.2,1.6,0.3,3.1c0.1,1.5,0.2,2.8,0.2,4c0,2.1-0.7,3.9-2,5.4c-1.3,1.5-3.3,2.3-5.9,2.3c-2.6,0-4.6-0.8-5.9-2.5
		c-1.3-1.7-2-4-2-6.9c0-3.1,0.8-6.3,2.5-9.6c1.7-3.3,3.7-6.5,6-9.4c2.3-2.9,5.3-6.5,9.1-10.7c1.5-1.7,3.2-3.6,5.2-5.9H41.6
		c-1.6,0-2.7,0.1-3.5,0.3c-0.8,0.2-1.3,0.6-1.6,1.1c-0.3,0.5-0.5,1.2-0.7,2.2h-2c0-7.9-0.1-13.4-0.3-16.8c1.3,0.3,5.6,0.4,12.9,0.4
		h27.9V3.4z"/>
	<path class="st4" d="M74.2,3.4c-0.5,1.1-1.9,3.6-4.1,7.6c-2.4,4.3-4.3,7.9-5.8,11c-1.5,3-2.8,6.5-3.9,10.5c-1.1,3.9-1.7,8-1.7,12.2
		c0.1,0.6,0.2,1.6,0.3,3.1c0.1,1.5,0.2,2.8,0.2,4c0,2.1-0.7,3.9-2,5.4c-1.3,1.5-3.3,2.3-5.9,2.3c-2.6,0-4.6-0.8-5.9-2.5
		c-1.3-1.7-2-4-2-6.9c0-3.1,0.8-6.3,2.5-9.6c1.7-3.3,3.7-6.5,6-9.4c2.3-2.9,5.3-6.5,9.1-10.7c1.5-1.7,3.2-3.6,5.2-5.9
		C66.3,14.4,72,7.9,74.2,3.4z"/>
</g>
</svg>
