<?xml version="1.0" encoding="utf-8"?>
<!-- Generator: Adobe Illustrator 24.0.1, SVG Export Plug-In . SVG Version: 6.00 Build 0)  -->
<svg version="1.1" id="Capa_1" xmlns="http://www.w3.org/2000/svg" xmlns:xlink="http://www.w3.org/1999/xlink" x="0px" y="0px"
	 viewBox="0 0 70 60" style="enable-background:new 0 0 70 60;" xml:space="preserve">
<style type="text/css">
	.st0{fill-rule:evenodd;clip-rule:evenodd;fill:#BADDEE;}
</style>
<g>
	<g>
		<path class="st0" d="M62.06,3.33c0.62-1.06,1.98-1.43,3.04-0.81c0.34,0.2,0.62,0.49,0.81,0.81H62.06z M59.52,4.45V40h-4.46v2.22
			h4.16c-0.39,0.7-1.13,1.11-1.93,1.11h-3.34v-1.11h-2.23v13.99l-4.79-4.77c-0.43-0.43-1.14-0.43-1.57,0l-4.79,4.77V42.22h-2.23
			v1.11H6.02c-0.8,0-1.53-0.42-1.93-1.11h5.27h27.87V40H10.48V4.45c0-1.23,1-2.23,2.23-2.23h47.44C59.75,2.9,59.52,3.66,59.52,4.45z
			 M63.98,0H12.7c-2.47,0-4.46,1.99-4.46,4.45V40H2.67c-0.62,0-1.11,0.5-1.11,1.11c0,2.45,1.99,4.45,4.46,4.45h32.33v13.32
			c0,0.62,0.5,1.11,1.11,1.11c0.3,0,0.58-0.12,0.79-0.33l5.9-5.88l5.9,5.88c0.21,0.21,0.49,0.33,0.79,0.33
			c0.14,0,0.29-0.03,0.43-0.08c0.41-0.18,0.68-0.58,0.68-1.04V45.56h3.34c2.47,0,4.46-1.99,4.46-4.45V5.56h5.57
			c0.62,0,1.11-0.5,1.11-1.11C68.44,1.99,66.45,0,63.98,0z"/>
	</g>
	<g>
		<path class="st0" d="M52.98,32.76l1.14,2.05L52,35.78c-0.35,0.16-0.6,0.5-0.64,0.88l-0.28,2.33l-2.31-0.46
			c-0.38-0.08-0.77,0.05-1.04,0.33l-1.59,1.72l-1.59-1.7c-0.21-0.24-0.51-0.37-0.83-0.37c-0.07,0-0.14,0.01-0.21,0.03l-2.31,0.46
			l-0.28-2.33c-0.04-0.38-0.29-0.71-0.64-0.88l-2.12-0.97l1.14-2.05c0.2-0.33,0.2-0.75,0-1.08l-1.14-2.05l2.12-0.97
			c0.35-0.16,0.6-0.5,0.64-0.88l0.28-2.32l2.31,0.45c0.38,0.08,0.77-0.05,1.04-0.33l1.59-1.73l1.59,1.72
			c0.26,0.29,0.66,0.42,1.04,0.34l2.31-0.46l0.28,2.33c0.04,0.38,0.29,0.71,0.64,0.88l2.12,0.97l-1.14,2.03
			C52.78,32.01,52.78,32.43,52.98,32.76z M56.65,34.77l-1.43-2.54l1.44-2.54c0.3-0.54,0.1-1.22-0.43-1.52l-0.08-0.04l-2.66-1.22
			L53.15,24c-0.08-0.6-0.63-1.04-1.23-0.97l-0.09,0.01l-2.87,0.58l-1.99-2.15c-0.45-0.45-1.17-0.46-1.61-0.01l-0.01,0.01l-1.99,2.15
			l-2.87-0.58c-0.6-0.12-1.19,0.28-1.31,0.88L39.14,24l-0.34,2.9l-2.66,1.22c-0.56,0.26-0.81,0.92-0.55,1.48l0.04,0.08l1.44,2.54
			l-1.44,2.54c-0.3,0.54-0.1,1.22,0.43,1.52l0.08,0.04l2.66,1.22l0.34,2.9c0.08,0.6,0.63,1.05,1.23,0.97l0.09-0.01l2.87-0.56
			l1.99,2.14c0.41,0.46,1.11,0.49,1.57,0.07l0.05-0.07l1.99-2.14l2.87,0.56c0.3,0.07,0.62-0.01,0.88-0.2
			c0.25-0.17,0.41-0.46,0.45-0.76l0.34-2.9l2.66-1.22c0.55-0.25,0.8-0.92,0.55-1.47L56.65,34.77z"/>
	</g>
	<g>
		<path class="st0" d="M46.15,35.55c-1.85,0-3.34-1.5-3.34-3.33c0-1.84,1.5-3.33,3.34-3.33s3.34,1.5,3.34,3.33
			C49.49,34.06,48,35.55,46.15,35.55z M46.15,26.66c-3.08,0-5.57,2.49-5.57,5.56s2.49,5.55,5.57,5.56c3.08,0,5.57-2.49,5.57-5.56
			S49.23,26.66,46.15,26.66z"/>
	</g>
	<g>
		<rect x="26.08" y="6.66" class="st0" width="17.84" height="2.23"/>
	</g>
	<g>
		<rect x="14.93" y="13.34" class="st0" width="40.13" height="2.22"/>
	</g>
	<g>
		<rect x="14.93" y="17.78" class="st0" width="40.13" height="2.22"/>
	</g>
	<g>
		<rect x="16.05" y="32.22" class="st0" width="14.49" height="2.22"/>
	</g>
</g>
<g>
</g>
<g>
</g>
<g>
</g>
<g>
</g>
<g>
</g>
<g>
</g>
<g>
</g>
<g>
</g>
<g>
</g>
<g>
</g>
<g>
</g>
<g>
</g>
<g>
</g>
<g>
</g>
<g>
</g>
</svg>
