<?xml version="1.0" encoding="utf-8"?>
<!-- Generator: Adobe Illustrator 24.0.1, SVG Export Plug-In . SVG Version: 6.00 Build 0)  -->
<svg version="1.1" id="Capa_1" xmlns="http://www.w3.org/2000/svg" xmlns:xlink="http://www.w3.org/1999/xlink" x="0px" y="0px"
	 viewBox="0 0 60 60" style="enable-background:new 0 0 60 60;" xml:space="preserve">
<style type="text/css">
	.st0{fill-rule:evenodd;clip-rule:evenodd;fill:#FFFFFF;}
</style>
<g>
	<path class="st0" d="M38.1,52.7H21.9c0.9-1.1,2-2.8,2.2-5.1h11.9C36.1,49.8,37.2,51.6,38.1,52.7z M44.7,55.1c0,0.4-0.4,0.8-0.8,0.8
		H16.1c-0.4,0-0.8-0.4-0.8-0.8c0-0.5,0.4-0.8,0.8-0.8h27.7C44.3,54.3,44.7,54.6,44.7,55.1z M29.2,13.1v1.6h-4.9v-1.6H29.2z
		 M35.7,13.1v1.6h-4.9v-1.6H35.7z M35.7,19.9l-4.9-2.3v-1.2h4.9V19.9z M20.4,24.3l8.8,4.2v11.4l-8.8-4.2V24.3z M38.6,23.1L30,27.1
		l-8.6-4.1L30,19L38.6,23.1z M24.3,16.4h4.9v1.2l-4.9,2.3V16.4z M15.5,4.1c0.4,0,0.8,0.4,0.8,0.8c0,0.5-0.4,0.8-0.8,0.8
		c-0.5,0-0.8-0.4-0.8-0.8C14.6,4.5,15,4.1,15.5,4.1z M30,4.1c0.4,0,0.8,0.4,0.8,0.8c0,0.5-0.4,0.8-0.8,0.8c-0.5,0-0.8-0.4-0.8-0.8
		C29.2,4.5,29.6,4.1,30,4.1z M44.5,4.1c0.5,0,0.8,0.4,0.8,0.8c0,0.5-0.4,0.8-0.8,0.8c-0.4,0-0.8-0.4-0.8-0.8
		C43.7,4.5,44.1,4.1,44.5,4.1z M55,11.5H43.8c-0.5,0-0.8,0.4-0.8,0.8c0,0.5,0.4,0.8,0.8,0.8H55c0.5,0,0.9,0.4,0.9,0.9v31
		c0,0.5-0.4,0.9-0.9,0.9H5c-0.5,0-0.9-0.4-0.9-0.9V14c0-0.5,0.4-0.9,0.9-0.9h17.7v1.6H6.5c-0.4,0-0.8,0.4-0.8,0.8v21.3
		c0,0.5,0.4,0.8,0.8,0.8c0.5,0,0.8-0.4,0.8-0.8V16.4h15.3v4.3l-3.5,1.7c-0.3,0.1-0.5,0.4-0.5,0.7v13.1c0,0.3,0.2,0.6,0.5,0.7l10.4,5
		c0.2,0.1,0.5,0.1,0.7,0l5.9-2.8c0.4-0.2,0.6-0.7,0.4-1.1c-0.2-0.4-0.7-0.6-1.1-0.4l-4.7,2.3V28.5l8.8-4.2v11.4l-1.2,0.6
		c-0.4,0.2-0.6,0.7-0.4,1.1c0.2,0.4,0.7,0.6,1.1,0.4l1.7-0.8c0.3-0.1,0.5-0.4,0.5-0.7V23.1c0-0.3-0.2-0.6-0.5-0.7l-3.5-1.7v-4.3
		h15.3v26.3H7.3v-2.4c0-0.4-0.4-0.8-0.8-0.8c-0.4,0-0.8,0.4-0.8,0.8v3.2c0,0.4,0.4,0.8,0.8,0.8h46.9c0.4,0,0.8-0.4,0.8-0.8V15.6
		c0-0.5-0.4-0.8-0.8-0.8H37.3v-1.6h3c0.4,0,0.8-0.4,0.8-0.8c0-0.4-0.4-0.8-0.8-0.8h-3V9.9h7.2c0.5,0,0.8-0.4,0.8-0.8V7.2
		C46.3,6.9,47,6,47,4.9c0-1.3-1.1-2.4-2.4-2.4c-1.3,0-2.4,1.1-2.4,2.4c0,1.1,0.7,1.9,1.6,2.3v1.1h-7.2c-0.4,0-0.8,0.4-0.8,0.8v2.4
		h-4.9V7.2c0.9-0.3,1.6-1.2,1.6-2.3c0-1.3-1.1-2.4-2.4-2.4c-1.3,0-2.4,1.1-2.4,2.4c0,1.1,0.7,1.9,1.6,2.3v4.3h-4.9V9.1
		c0-0.4-0.4-0.8-0.8-0.8h-7.2V7.2c0.9-0.3,1.6-1.2,1.6-2.3c0-1.3-1.1-2.4-2.4-2.4S13,3.6,13,4.9c0,1.1,0.7,1.9,1.6,2.3v1.9
		c0,0.5,0.4,0.8,0.8,0.8h7.2v1.6H5c-1.4,0-2.5,1.1-2.5,2.5v31c0,1.4,1.1,2.5,2.5,2.5h17.5c-0.3,2.9-2.3,4.7-2.9,5.1h-3.4
		c-1.3,0-2.4,1.1-2.4,2.4s1.1,2.4,2.4,2.4h27.7c1.3,0,2.4-1.1,2.4-2.4s-1.1-2.4-2.4-2.4h-3.4c-0.6-0.5-2.6-2.2-2.9-5.1H55
		c1.4,0,2.5-1.1,2.5-2.5V14C57.5,12.6,56.4,11.5,55,11.5z"/>
</g>
</svg>
