<?xml version="1.0" encoding="UTF-8"?>
<!DOCTYPE svg PUBLIC "-//W3C//DTD SVG 1.1//EN" "http://www.w3.org/Graphics/SVG/1.1/DTD/svg11.dtd">
<!-- Creator: CorelDRAW X8 -->
<svg xmlns="http://www.w3.org/2000/svg" xml:space="preserve" width="28.5255mm" height="28.4196mm" version="1.1" style="shape-rendering:geometricPrecision; text-rendering:geometricPrecision; image-rendering:optimizeQuality; fill-rule:evenodd; clip-rule:evenodd"
viewBox="0 0 714 711"
 xmlns:xlink="http://www.w3.org/1999/xlink">
 <defs>
  <style type="text/css">
   <![CDATA[
    .fil0 {fill:#A91F8E}
   ]]>
  </style>
 </defs>
 <g id="Capa_x0020_1">
  <metadata id="CorelCorpID_0Corel-Layer"/>
  <g id="_2536856807312">
   <g>
    <g>
     <path class="fil0" d="M681 0l-259 0c-18,0 -33,14 -33,32 0,18 15,33 33,33l181 0 -334 332c-13,13 -13,34 0,46 6,7 15,10 23,10 8,0 17,-3 23,-10l334 -333 0 181c0,18 15,32 32,32 18,0 33,-14 33,-32l0 -259c0,-18 -15,-32 -33,-32z"/>
    </g>
    <g>
     <path class="fil0" d="M552 323c-18,0 -33,15 -33,33l0 291 -454 0 0 -453 292 0c18,0 32,-14 32,-32 0,-18 -14,-33 -32,-33l-325 0c-17,0 -32,15 -32,33l0 517c0,18 15,32 32,32l520 0c18,0 32,-14 32,-32l0 -323c0,-18 -14,-33 -32,-33z"/>
    </g>
   </g>
  </g>
 </g>
</svg>
