<?xml version="1.0" encoding="utf-8"?>
<!-- Generator: Adobe Illustrator 24.0.1, SVG Export Plug-In . SVG Version: 6.00 Build 0)  -->
<svg version="1.1" id="Capa_1" xmlns="http://www.w3.org/2000/svg" xmlns:xlink="http://www.w3.org/1999/xlink" x="0px" y="0px"
	 viewBox="0 0 60 60" style="enable-background:new 0 0 60 60;" xml:space="preserve">
<style type="text/css">
	.st0{fill-rule:evenodd;clip-rule:evenodd;fill:#FFFFFF;}
</style>
<g>
	<path class="st0" d="M7.8,24.6c0.2,0.1,0.4,0.1,0.5,0.1c0.2,0,0.4,0,0.6-0.1l4.4-1.8c0.7-0.3,1.1-1.2,0.8-1.9
		c-0.3-0.7-1.2-1.1-1.9-0.8l-1.1,0.5c3.3-7.6,10.8-12.5,19.2-12.5c9.6,0,17.9,6.5,20.3,15.7c0.2,0.7,0.8,1.1,1.4,1.1
		c0.1,0,0.2,0,0.4-0.1c0.8-0.2,1.3-1,1.1-1.8C50.7,12.4,41.2,5,30.3,5c-9.6,0-18.2,5.7-22,14.4l-0.5-1.2c-0.3-0.7-1.2-1.1-1.9-0.8
		s-1.1,1.2-0.8,1.9L7,23.8C7.1,24.2,7.4,24.4,7.8,24.6L7.8,24.6z"/>
	<path class="st0" d="M54.9,40.3L53,35.9c-0.1-0.4-0.4-0.6-0.8-0.8c-0.4-0.1-0.8-0.1-1.1,0L46.7,37c-0.7,0.3-1.1,1.2-0.8,1.9
		c0.3,0.7,1.2,1.1,1.9,0.8l1.2-0.5c-3.2,7.8-10.9,12.9-19.4,12.9c-9.6,0-17.9-6.5-20.3-15.7c-0.2-0.8-1-1.3-1.8-1s-1.3,1-1.1,1.8
		C9.3,47.6,18.8,55,29.7,55c9.7,0,18.3-5.8,22-14.6l0.4,1c0.2,0.6,0.8,0.9,1.4,0.9c0.2,0,0.4,0,0.6-0.1C54.8,41.9,55.2,41,54.9,40.3
		L54.9,40.3z"/>
	<path class="st0" d="M23.9,28.5l7.7-9.3v10.7c0,0.8,0.7,1.5,1.5,1.5h3.7L29,40.7V30c0-0.8-0.7-1.5-1.5-1.5H23.9z M27.1,46.1
		c0.1,0.1,0.3,0.1,0.5,0.1c0.4,0,0.8-0.2,1.1-0.5L41,30.8c0.4-0.4,0.4-1,0.2-1.6c-0.2-0.5-0.8-0.8-1.3-0.8h-5.3V15.2
		c0-0.6-0.4-1.2-1-1.4c-0.6-0.2-1.2,0-1.6,0.4L19.6,29.1c-0.4,0.4-0.4,1-0.2,1.5c0.2,0.5,0.7,0.8,1.3,0.8h5.3v13.3
		C26.1,45.4,26.5,45.9,27.1,46.1L27.1,46.1z"/>
</g>
</svg>
