<?xml version="1.0" encoding="utf-8"?>
<!-- Generator: Adobe Illustrator 24.0.1, SVG Export Plug-In . SVG Version: 6.00 Build 0)  -->
<svg version="1.1" id="Capa_1" xmlns="http://www.w3.org/2000/svg" xmlns:xlink="http://www.w3.org/1999/xlink" x="0px" y="0px"
	 viewBox="0 0 60 60" style="enable-background:new 0 0 60 60;" xml:space="preserve">
<style type="text/css">
	.st0{fill-rule:evenodd;clip-rule:evenodd;fill:#FFFFFF;}
</style>
<g>
	<path class="st0" d="M42.9,23.5c-0.4,0.3-0.6,0.8-0.3,1.3c0.2,0.3,0.5,0.4,0.8,0.4c0.2,0,0.3,0,0.5-0.1c2.2-1.4,3.5-3.8,3.5-6.4
		c0-4.1-3.3-7.5-7.4-7.5c-2.6,0-5,1.4-6.4,3.7c-0.2,0.4-0.1,1,0.3,1.3c0.4,0.3,1,0.1,1.3-0.3c1-1.7,2.9-2.8,4.8-2.8
		c3.1,0,5.6,2.5,5.6,5.7C45.5,20.7,44.6,22.5,42.9,23.5z"/>
	<path class="st0" d="M28.8,3.3h22.4c1.9,0,3.6,1.4,4,3.3H24.8C25.2,4.7,26.8,3.3,28.8,3.3z M51.1,1.5H28.8c-3.2,0-5.9,2.7-5.9,5.9
		V26c0,0.5,0.4,0.9,0.9,0.9c0.5,0,0.9-0.4,0.9-0.9V8.4h30.5v43.1H38.1c-0.5,0-0.9,0.4-0.9,0.9s0.4,0.9,0.9,0.9h17
		c-0.4,1.9-2,3.3-4,3.3H28.8c-0.5,0-0.9,0.4-0.9,0.9c0,0.5,0.4,0.9,0.9,0.9h22.4c3.2,0,5.9-2.7,5.9-5.9V7.4
		C57,4.2,54.4,1.5,51.1,1.5z"/>
	<path class="st0" d="M42.5,44.2c0.7-0.7,1-1.6,1-2.6c0-1-0.4-1.9-1-2.6c-0.7-0.7-1.8-1.1-2.7-1c0.1-1-0.3-2-1-2.8
		c-0.7-0.7-1.6-1.1-2.5-1.1l-0.2,0c0.1-1-0.3-2-1-2.8c-0.4-0.5-1-0.8-1.6-0.9l9-9.1c1.4-1.4,1.4-3.7,0-5.1c-1.4-1.4-3.7-1.4-5.1,0
		L19.2,34.6c-2.6,2.6-3.8,6.1-3.4,9.7L3.3,56.9c-0.4,0.4-0.4,1,0,1.3c0.2,0.2,0.4,0.3,0.7,0.3c0.2,0,0.5-0.1,0.6-0.3l12.9-13
		c0.2-0.2,0.3-0.5,0.3-0.8c-0.5-3.2,0.5-6.3,2.8-8.6l18.1-18.2c0.7-0.7,1.8-0.7,2.5,0c0.7,0.7,0.7,1.8,0,2.5L29.9,31.4
		c-0.2,0.2-0.3,0.4-0.3,0.6c0,0.2,0.1,0.5,0.3,0.7c0.4,0.4,0.9,0.4,1.3,0c0.7-0.7,1.8-0.7,2.5,0c0.7,0.7,0.7,1.8,0,2.5
		c-0.2,0.2-0.3,0.4-0.3,0.7c0,0.2,0.1,0.5,0.3,0.7c0.4,0.4,0.9,0.4,1.3,0c0.7-0.7,1.8-0.7,2.5,0c0.7,0.7,0.7,1.8,0,2.5
		c-0.2,0.2-0.3,0.4-0.3,0.7c0,0.2,0.1,0.5,0.3,0.7c0.4,0.4,0.9,0.4,1.3,0c0.7-0.7,1.8-0.7,2.5,0c0.7,0.7,0.7,1.8,0,2.5l-6.9,7
		c-2.3,2.3-5.4,3.3-8.5,2.8c-0.3-0.1-0.6,0.1-0.8,0.3l-4,4c-0.4,0.4-0.4,1,0,1.3c0.4,0.4,0.9,0.4,1.3,0l3.7-3.7
		c3.5,0.4,7-0.8,9.6-3.4L42.5,44.2z"/>
</g>
</svg>
