<?xml version="1.0" encoding="utf-8"?>
<!-- Generator: Adobe Illustrator 24.0.1, SVG Export Plug-In . SVG Version: 6.00 Build 0)  -->
<svg version="1.1" id="Capa_1" xmlns="http://www.w3.org/2000/svg" xmlns:xlink="http://www.w3.org/1999/xlink" x="0px" y="0px"
	 viewBox="0 0 60 60" style="enable-background:new 0 0 60 60;" xml:space="preserve">
<style type="text/css">
	.st0{fill-rule:evenodd;clip-rule:evenodd;fill:#FFFFFF;}
</style>
<g>
	<path class="st0" d="M20,43.9c-0.5,0.5-0.5,1.2,0,1.7c0.4,0.4,1.2,0.4,1.6,0c0.4-0.5,0.4-1.2,0-1.7C21.2,43.4,20.5,43.4,20,43.9z"
		/>
	<path class="st0" d="M15.1,56.5v-5.8H45v5.8c0,0.6-0.5,1.2-1.2,1.2H16.2C15.6,57.6,15.1,57.1,15.1,56.5z M16.2,2.3L16.2,2.3h27.6
		c0.6,0,1.2,0.6,1.2,1.2V7H15.1V3.5C15.1,2.9,15.6,2.3,16.2,2.3z M15.1,9.3L15.1,9.3H45v38.9H15.1V9.3z M43.8,60L43.8,60
		c1.9,0,3.4-1.6,3.4-3.5V3.5c0-1.9-1.5-3.5-3.4-3.5H16.2c-1.9,0-3.4,1.6-3.4,3.5v52.9c0,1.9,1.5,3.5,3.4,3.5H43.8z"/>
	<path class="st0" d="M54.1,18.2c-0.5,0.4-0.6,1.2-0.2,1.7c2.1,2.5,3.2,5.7,3.2,9s-1.1,6.5-3.2,9c-0.4,0.5-0.3,1.2,0.2,1.6
		c0.5,0.4,1.2,0.4,1.6-0.1c2.5-2.9,3.7-6.7,3.7-10.5s-1.3-7.6-3.7-10.5C55.3,17.8,54.6,17.8,54.1,18.2z"/>
	<path class="st0" d="M27.7,55.3h4.6c0.6,0,1.2-0.6,1.2-1.2c0-0.6-0.6-1.2-1.2-1.2h-4.6c-0.6,0-1.2,0.5-1.2,1.2
		C26.6,54.8,27.1,55.3,27.7,55.3z"/>
	<path class="st0" d="M50.2,36.8c0.5,0.4,1.2,0.4,1.6-0.1c1.9-2.2,3-5,3-7.9c0-3-1.1-5.8-3-7.9c-0.4-0.5-1.2-0.5-1.6-0.1
		c-0.5,0.4-0.5,1.2,0,1.7c1.5,1.7,2.4,4,2.4,6.3s-0.9,4.6-2.4,6.3C49.7,35.6,49.7,36.4,50.2,36.8z"/>
	<path class="st0" d="M6,18.2c-0.5-0.4-1.2-0.3-1.6,0.2C1.9,21.2,0.6,25,0.6,28.8s1.3,7.6,3.7,10.5c0.4,0.5,1.1,0.6,1.6,0.1
		c0.5-0.4,0.6-1.1,0.1-1.6c-2.1-2.5-3.2-5.7-3.2-9s1.1-6.5,3.2-9C6.5,19.3,6.4,18.6,6,18.2z"/>
	<path class="st0" d="M9.8,20.8c-0.5-0.4-1.2-0.4-1.6,0.1c-2,2.2-3.1,4.9-3.1,7.9c0,2.9,1.1,5.8,3.1,7.9c0.4,0.5,1.1,0.5,1.6,0.1
		c0.5-0.4,0.5-1.2,0.1-1.7c-1.6-1.7-2.5-4-2.5-6.3s0.9-4.6,2.5-6.3C10.3,22,10.3,21.2,9.8,20.8z"/>
	<path class="st0" d="M30.1,28.7c-0.5,0-1-0.3-1.5-0.9c-0.4-0.5-1.1-0.5-1.6-0.1c-0.5,0.4-0.6,1.2-0.1,1.6c0.6,0.8,1.3,1.3,2.1,1.5
		v1.4c0,0.6,0.5,1.2,1.2,1.2s1.2-0.5,1.2-1.2v-1.4c1.3-0.5,2.3-1.8,2.3-3.3c0-1.9-1.5-3.5-3.4-3.5c-0.6,0-1.2-0.5-1.2-1.2
		c0-0.6,0.5-1.2,1.2-1.2c0.4,0,0.8,0.2,1.2,0.6c0.4,0.4,1.2,0.4,1.6,0c0.4-0.5,0.4-1.2,0-1.6c-0.6-0.6-1.2-0.9-1.7-1.1v-1.4
		c0-0.6-0.5-1.2-1.2-1.2S29,17.5,29,18.2v1.4c-1.3,0.5-2.3,1.8-2.3,3.3c0,1.9,1.5,3.5,3.4,3.5c0.6,0,1.2,0.6,1.2,1.2
		C31.3,28.2,30.8,28.7,30.1,28.7z"/>
	<path class="st0" d="M39.2,43.6H25.4c-0.6,0-1.2,0.6-1.2,1.2s0.5,1.2,1.2,1.2h13.8c0.6,0,1.2-0.5,1.2-1.2S39.8,43.6,39.2,43.6z"/>
	<path class="st0" d="M30,14.8c5.7,0,10.4,4.7,10.4,10.5S35.7,35.8,30,35.8c-5.7,0-10.3-4.7-10.3-10.5S24.3,14.8,30,14.8z M30,38.2
		L30,38.2c7,0,12.6-5.8,12.6-12.9S37,12.4,30,12.4c-7,0-12.6,5.8-12.6,12.9S23,38.2,30,38.2z"/>
</g>
</svg>
