<?xml version="1.0" encoding="utf-8"?>
<!-- Generator: Adobe Illustrator 24.0.1, SVG Export Plug-In . SVG Version: 6.00 Build 0)  -->
<svg version="1.1" id="Capa_1" xmlns="http://www.w3.org/2000/svg" xmlns:xlink="http://www.w3.org/1999/xlink" x="0px" y="0px"
	 viewBox="0 0 60 60" style="enable-background:new 0 0 60 60;" xml:space="preserve">
<style type="text/css">
	.st0{fill-rule:evenodd;clip-rule:evenodd;fill:#FFFFFF;}
</style>
<g>
	<path class="st0" d="M40.6,4.4c1.1-0.6,2.4-1.1,3.8-1.4c2.1-0.4,4.3-0.1,6.2,0.8c2,0.9,3.7,2.5,4.9,4.3c0.8,1.3,1.3,2.8,1.5,4.3
		c0.2,1.5,0,3.1-0.4,4.6c-0.4,1.4-1,2.4-1.7,3.3l-0.2,0.3c-0.3,0.4-0.7,0.9-1.2,1.3c-0.6,0.5-1.1,1-1.7,1.3
		c-1.9,1.2-4.1,1.7-6.2,1.6c-2.2-0.1-4.4-0.9-6.2-2.3c-0.9-0.7-1.9-1.8-2.7-3.1c-0.7-1.1-1.2-2.4-1.4-3.8c-0.3-1.8-0.1-3.4,0.3-4.8
		c0.4-1.4,1.1-2.7,1.9-3.8C38.4,6,39.4,5.1,40.6,4.4z M3.1,51.2L3.1,51.2V19.6c0-0.8,0.2-1.4,0.5-1.8c0.4-0.4,1-0.6,1.8-0.6h12.5
		c1.5,0,3.1,0,4.6,0c3.3,0,6.7,0,9.8,0h0.1l0.1,0.1c0.1,0.2,0.2,0.5,0.4,0.9c0.3,0.9,0.8,2.5,2.5,4.6c1.3,1.6,3,2.9,5,3.8
		c1.9,0.9,4.1,1.3,6.3,1.3c2.8-0.1,4.4-0.9,5.4-1.4c0.4-0.2,0.8-0.4,1.1-0.4l0.4,0v0.4c0.1,1.6,0.1,5.2,0,7.7v1.8v11.9
		c0,0.4,0,0.7,0,1.1c0,0.4,0,0.8,0,1.2c0,1.9-0.3,3.5-2.3,3.5H6.7H6.2c-0.7,0-1.6,0.1-2.1-0.3c-0.4-0.2-0.6-0.5-0.8-0.8
		C3.1,52.1,3.1,51.7,3.1,51.2z M10.1,46.1L10.1,46.1v-1.4c0-2.9,1.4-4.7,3.3-5.5c0.7-0.3,1.5-0.5,2.3-0.5c0.8,0,1.6,0.2,2.3,0.5
		c1.8,0.8,3.3,2.6,3.3,5.4v1.8H10.1V46.1z M12.5,29.6L12.5,29.6c0.6-0.9,1.5-1.5,2.5-1.7c1.1-0.2,2.1,0,2.8,0.5
		c0.9,0.5,1.5,1.4,1.7,2.4l0,0c0.3,1.2,0,2.2-0.7,3c-0.6,0.8-1.4,1.4-2.3,1.6h0l-0.1,0c-1.1,0.2-2.1-0.1-2.9-0.7
		c-0.8-0.6-1.4-1.4-1.5-2.3l0-0.1C11.8,31.4,12,30.4,12.5,29.6z M11,37.1L11,37.1l0.1-0.1l0-0.2c-0.1-0.2-0.2-0.4-0.4-0.6
		c-0.4-0.5-1.1-1.4-1.4-2.9c-0.1-0.5-0.2-1-0.2-1.5c0-1.6,0.5-3.1,1.4-4.3s2.2-2.1,3.8-2.4c0.5-0.1,1-0.2,1.5-0.2s1.1,0.1,1.6,0.2
		c1.6,0.4,2.9,1.3,3.8,2.4c0.9,1.2,1.4,2.7,1.4,4.2c0,0.5,0,1.1-0.2,1.6C22,34.7,21.5,35.4,21,36c-0.2,0.3-0.4,0.5-0.5,0.7l0,0.2
		l0.1,0.1c0,0.1,0.2,0.3,0.4,0.4c0.6,0.5,1.8,1.5,2.5,3c0.4,1,0.6,1.7,0.7,2.5c0.1,0.8,0.1,1.7,0.1,2.9v0.4c0,1.8,0,2.5-0.7,2.9
		c-0.7,0.3-2.1,0.3-4.6,0.3c-1,0-2.1,0-3.2,0c-1.3,0-2.4,0-3.2,0c-2.5,0-3.8,0-4.5-0.3c-0.7-0.3-0.7-1.1-0.7-2.9v-0.4
		c0-1.5,0.1-2.8,0.4-3.9c0.3-1.1,0.8-2.2,1.8-3.2c0.4-0.4,0.7-0.7,1-1C10.6,37.4,10.8,37.2,11,37.1z M44.2,15.2L44.2,15.2l0.1,0.1
		l0.2-0.1c0.4-0.2,1.8-1.6,2.7-2.6c0.4-0.4,0.7-0.7,0.9-0.9c0.4-0.3,0.7-0.7,1-1c0.9-1,1.8-1.9,2.7-1.7c0.4,0,0.7,0.3,0.9,0.5
		c0.2,0.3,0.3,0.7,0.2,1.1l0,0c-0.1,0.6-0.7,1.1-1.1,1.5l-0.3,0.3l-1.8,1.9l-1.5,1.6l-0.5,0.5c-0.9,1-2.4,2.5-3,2.6
		c-0.8,0.1-1.3-0.5-1.7-0.9l-0.2-0.3l-0.5-0.4c-0.9-0.9-2.6-2.5-2.7-3c-0.1-0.4,0-0.8,0.1-1.1c0.2-0.4,0.5-0.6,0.8-0.7
		c1.1-0.3,1.9,0.6,2.7,1.4C43.4,14.5,43.7,14.9,44.2,15.2z M33.4,46.4L33.4,46.4c0.5-0.1,5.9,0,8.8,0l1.7,0l0.9,0
		c1.4,0,3.4-0.1,3.9,0.3c0.3,0.2,0.5,0.6,0.6,0.9c0,0.2,0.1,0.4,0,0.6c0,0.2-0.1,0.4-0.2,0.6c-0.2,0.3-0.5,0.4-0.8,0.5
		c-0.5,0.1-6,0.1-8.9,0.1h-1.5h-0.9c-1.4,0-3.4,0.1-3.9-0.2c-0.4-0.2-0.6-0.6-0.7-0.9c0-0.2,0-0.4,0-0.6c0-0.2,0.1-0.4,0.2-0.5
		C32.7,46.8,33,46.5,33.4,46.4z M33.4,39.3L33.4,39.3c0.5-0.1,2.5-0.1,4,0h1.1h5.3l0.9,0c1.4,0,3.4-0.1,3.9,0.3
		c0.3,0.3,0.5,0.6,0.6,0.9c0,0.2,0,0.4,0,0.6c0,0.2-0.1,0.4-0.2,0.5c-0.2,0.3-0.5,0.5-0.8,0.6c-0.5,0.1-6.6,0-9.3,0h-1.1h-0.9
		c-1.4,0-3.4,0.1-3.9-0.2c-0.4-0.2-0.6-0.5-0.7-0.9c0-0.2,0-0.4,0-0.6c0-0.2,0.1-0.4,0.2-0.5C32.7,39.6,33,39.4,33.4,39.3z
		 M33.3,32.2L33.3,32.2c0.6-0.2,1.1,0,1.4,0.4c0.1,0.1,0.3,0.4,0.3,0.5c0.1,0.2,0.1,0.4,0.1,0.7c0,0.5-0.3,1-0.9,1.2
		c-0.7,0.2-1.2,0-1.5-0.4c-0.1-0.2-0.2-0.4-0.3-0.6c-0.1-0.2-0.1-0.4-0.1-0.6C32.3,32.9,32.6,32.5,33.3,32.2z M40.4,32.1L40.4,32.1
		c0.7-0.2,1.1,0,1.4,0.4c0.1,0.2,0.2,0.4,0.3,0.5c0,0.2,0.1,0.4,0,0.6c0,0.5-0.3,1-0.9,1.2c-0.7,0.2-1.2,0-1.5-0.4
		c-0.1-0.2-0.2-0.4-0.3-0.6c0-0.2,0-0.4,0-0.6C39.4,32.9,39.8,32.4,40.4,32.1z M47.5,32.2L47.5,32.2c0.6-0.2,1.1,0,1.4,0.4
		c0.1,0.1,0.2,0.4,0.3,0.5c0,0.2,0.1,0.4,0.1,0.6c0,0.5-0.3,1-0.9,1.2c-0.7,0.2-1.2,0-1.6-0.4c-0.1-0.1-0.2-0.4-0.3-0.5
		c0-0.2-0.1-0.4-0.1-0.6C46.5,32.9,46.8,32.4,47.5,32.2z M32,14.2L32,14.2c-1.1,0.1-19.8,0-21.8,0l0,0l-1.2,0
		c-1.9,0-4.5-0.1-5.7,0.4c-3.5,1.4-3.3,5.2-3.2,8.9c0,0.7,0,1.5,0,2.2v22.1c0,0.4,0,0.9,0,1.3c0,1.9-0.1,3.5,0.9,5
		c0.5,0.7,1.1,1.3,1.8,1.7c0.8,0.4,1.8,0.6,2.8,0.6c6.1,0,12.2,0,18.3,0c6.2,0,12.3,0,18.3-0.1c1.3,0,2.6,0,3.9,0c1.1,0,2.3,0,3.4,0
		c1.3,0,2.3,0,3.2-0.2c0.9-0.2,1.6-0.6,2.3-1.3c1.4-1.5,1.4-2.9,1.4-5.6V23.5l0,0c0-0.2,0.2-0.4,0.5-0.8c1.2-1.7,4.6-6.5,2.4-13.2
		c-0.4-1.1-0.8-2.1-1.4-2.9c-1.7-2.7-4.1-4.7-7-5.7c-2.9-1.1-6.1-1.1-9.2-0.1c-1.1,0.4-2.1,0.8-3.1,1.5c-1.4,0.9-2.7,2.1-3.7,3.5
		c-1,1.4-1.8,3.2-2.2,5c-0.2,0.7-0.2,1.3-0.3,1.9c0,0.4,0,0.9-0.1,1.3l0,0.3H32z"/>
</g>
</svg>
