<?xml version="1.0" encoding="utf-8"?>
<!-- Generator: Adobe Illustrator 24.0.1, SVG Export Plug-In . SVG Version: 6.00 Build 0)  -->
<svg version="1.1" id="Capa_1" xmlns="http://www.w3.org/2000/svg" xmlns:xlink="http://www.w3.org/1999/xlink" x="0px" y="0px"
	 viewBox="0 0 60 60" style="enable-background:new 0 0 60 60;" xml:space="preserve">
<style type="text/css">
	.st0{fill-rule:evenodd;clip-rule:evenodd;fill:#FFFFFF;}
</style>
<g>
	<path class="st0" d="M27.6,41.8c0.1,0.1,0.3,0.2,0.5,0.3c0.1,0,0.3,0.1,0.5,0.1c0.2,0,0.4,0,0.5-0.1c0.1,0,0.3-0.1,0.4-0.3l6.4-6.4
		c0.3-0.3,0.4-0.6,0.4-1c0-0.3-0.1-0.7-0.4-1c-0.2-0.2-0.6-0.4-1-0.4c-0.3,0-0.7,0.1-0.9,0.4l-5.5,5.4l-2.6-2.6
		c-0.3-0.3-0.6-0.4-1-0.4s-0.7,0.1-1,0.4c-0.2,0.2-0.4,0.6-0.4,1c0,0.3,0.1,0.7,0.4,0.9L27.6,41.8z"/>
	<path class="st0" d="M30,26.5c3.1,0,5.8,1.2,7.9,3.3c2,2,3.3,4.8,3.3,7.8c0,3.1-1.3,5.8-3.3,7.9c-2,2-4.8,3.3-7.9,3.3
		s-5.8-1.3-7.8-3.3c-2-2-3.3-4.8-3.3-7.9c0-3.1,1.3-5.8,3.3-7.8C24.1,27.7,26.9,26.5,30,26.5z M30,51.4L30,51.4
		c3.8,0,7.3-1.6,9.8-4.1c2.5-2.5,4-5.9,4-9.8c0-3.8-1.6-7.3-4-9.8c-2.5-2.5-6-4-9.8-4c-3.8,0-7.3,1.5-9.8,4c-2.5,2.5-4.1,6-4.1,9.8
		c0,3.8,1.6,7.2,4.1,9.8C22.7,49.9,26.2,51.4,30,51.4z"/>
	<path class="st0" d="M3.4,9.2c0-0.7,0.3-1.4,0.8-1.8S5.3,6.6,6,6.6h3.7V9c0,0.3,0.1,0.7,0.4,0.9c0.2,0.2,0.6,0.4,1,0.4
		s0.7-0.2,1-0.4c0.2-0.2,0.4-0.6,0.4-0.9V6.6h4.4V9c0,0.3,0.1,0.7,0.4,0.9c0.2,0.2,0.6,0.4,1,0.4c0.3,0,0.7-0.2,1-0.4
		c0.2-0.2,0.4-0.6,0.4-0.9V6.6h20.7V9c0,0.3,0.2,0.7,0.4,0.9c0.2,0.2,0.6,0.4,0.9,0.4c0.4,0,0.7-0.2,1-0.4c0.2-0.2,0.4-0.6,0.4-0.9
		V6.6h4.4V9c0,0.3,0.1,0.7,0.4,0.9c0.2,0.2,0.6,0.4,1,0.4c0.4,0,0.7-0.2,1-0.4c0.2-0.2,0.4-0.6,0.4-0.9V6.6h3.7
		c0.7,0,1.4,0.3,1.8,0.8c0.5,0.5,0.8,1.1,0.8,1.8v6H3.4V9.2z M56.6,54.7L56.6,54.7c0,0.7-0.3,1.4-0.8,1.8c-0.5,0.5-1.1,0.8-1.8,0.8
		H6c-0.7,0-1.4-0.3-1.8-0.8c-0.5-0.5-0.8-1.1-0.8-1.8V17.9h53.2V54.7z M53.9,3.8L53.9,3.8h-3.7V1.4c0-0.4-0.1-0.7-0.4-1
		S49.2,0,48.8,0c-0.3,0-0.7,0.1-1,0.4c-0.2,0.2-0.4,0.6-0.4,1v2.5h-4.4V1.4c0-0.4-0.2-0.7-0.4-1S42.1,0,41.7,0
		c-0.3,0-0.7,0.1-0.9,0.4c-0.2,0.2-0.4,0.6-0.4,1v2.5H19.6V1.4c0-0.4-0.1-0.7-0.4-1C19,0.1,18.6,0,18.3,0c-0.4,0-0.7,0.1-1,0.4
		c-0.2,0.2-0.4,0.6-0.4,1v2.5h-4.4V1.4c0-0.4-0.1-0.7-0.4-1S11.5,0,11.1,0s-0.7,0.1-1,0.4C9.9,0.6,9.7,1,9.7,1.4v2.5H6
		c-1.5,0-2.8,0.6-3.8,1.6S0.7,7.7,0.7,9.2v45.5c0,1.5,0.6,2.8,1.6,3.7c1,1,2.3,1.6,3.8,1.6h47.9c1.5,0,2.8-0.6,3.8-1.6
		c1-1,1.6-2.3,1.6-3.7V9.2c0-1.5-0.6-2.8-1.6-3.8S55.5,3.8,53.9,3.8z"/>
</g>
</svg>
