<?xml version="1.0" encoding="utf-8"?>
<!-- Generator: Adobe Illustrator 24.0.1, SVG Export Plug-In . SVG Version: 6.00 Build 0)  -->
<svg version="1.1" id="Capa_1" xmlns="http://www.w3.org/2000/svg" xmlns:xlink="http://www.w3.org/1999/xlink" x="0px" y="0px"
	 viewBox="0 0 60 60" style="enable-background:new 0 0 60 60;" xml:space="preserve">
<style type="text/css">
	.st0{fill-rule:evenodd;clip-rule:evenodd;fill:#FFFFFF;}
</style>
<g>
	<g>
		<path class="st0" d="M42.7,33.5c-0.8-4.5-4-8.1-8-9.7c2.2-1.5,3.5-3.9,3.5-6.7c0-4.5-3.7-8.2-8.2-8.2c-4.5,0-8.2,3.7-8.2,8.2
			c0,2.8,1.4,5.2,3.5,6.7c-4.1,1.6-7.2,5.2-8,9.7c-3.5-3.5-5.6-8.2-5.6-12.9c0-9.8,8.5-18.3,18.2-18.3c9.8,0,18.3,8.5,18.3,18.3
			C48.3,25.3,46.2,30,42.7,33.5z M24.1,17.1L24.1,17.1c0-3.3,2.6-5.9,5.8-5.9c3.3,0,5.9,2.6,5.9,5.9S33.2,23,30,23
			C26.8,23,24.1,20.3,24.1,17.1z M30,38.9L30,38.9c-3.6,0-7.3-1.3-10.5-3.6c0.3-5.6,4.9-10,10.5-10c5.7,0,10.3,4.5,10.6,10
			C37.4,37.7,33.7,38.9,30,38.9z M30,0L30,0C19,0,9.4,9.6,9.4,20.6S19,41.2,30,41.2c11.2,0,20.6-9.8,20.6-20.6C50.6,9.6,41,0,30,0z"
			/>
	</g>
	<g>
		<path class="st0" d="M32.5,53.4c-0.3,0.3-0.4,0.6-0.4,1l0.4,2.3l-2-1.1c-0.2-0.1-0.4-0.2-0.5-0.2c-0.2,0-0.4,0-0.5,0.2l-2,1.1
			l0.4-2.3c0-0.4-0.1-0.8-0.3-1l-1.6-1.6l2.3-0.3c0.4-0.1,0.7-0.3,0.8-0.6l1-2.1l1.1,2.1c0.2,0.3,0.5,0.5,0.9,0.6l2.3,0.3L32.5,53.4
			z M37.8,50.6L37.8,50.6c-0.1-0.5-0.5-0.8-0.9-0.8l-4-0.6L31,45.6c-0.2-0.4-0.6-0.7-1.1-0.7c-0.4,0-0.8,0.3-1,0.7l-1.8,3.6l-4,0.6
			c-0.4,0-0.8,0.3-0.9,0.8c-0.1,0.4,0,0.9,0.3,1.2l2.9,2.8l-0.7,4c-0.1,0.4,0.1,0.9,0.5,1.1c0.4,0.3,0.8,0.3,1.3,0.1L30,58l3.6,1.9
			c0.4,0.2,0.8,0.2,1.2-0.1c0.3-0.3,0.5-0.7,0.5-1.1l-0.7-4l2.9-2.8C37.8,51.5,38,51,37.8,50.6z"/>
	</g>
	<g>
		<path class="st0" d="M13.8,53.4c-0.3,0.3-0.4,0.6-0.3,1l0.4,2.3l-2-1.1c-0.2-0.1-0.3-0.2-0.5-0.2c-0.2,0-0.4,0-0.6,0.2l-2,1.1
			l0.4-2.3c0-0.4-0.1-0.8-0.4-1L7,51.8l2.3-0.3c0.4-0.1,0.7-0.3,0.9-0.6l1.1-2.1l1,2.1c0.1,0.3,0.5,0.5,0.8,0.6l2.3,0.3L13.8,53.4z
			 M19,50.6L19,50.6c-0.1-0.5-0.5-0.8-0.9-0.8l-4-0.6l-1.8-3.6c-0.2-0.4-0.6-0.7-1-0.7c-0.5,0-0.9,0.3-1.1,0.7l-1.8,3.6l-4,0.6
			c-0.5,0-0.8,0.3-0.9,0.8c-0.2,0.4,0,0.9,0.3,1.2l2.9,2.8l-0.7,4c-0.1,0.4,0.1,0.9,0.5,1.1c0.4,0.3,0.8,0.3,1.2,0.1l3.6-1.9
			l3.5,1.9c0.4,0.2,0.9,0.2,1.3-0.1c0.3-0.3,0.5-0.7,0.5-1.1l-0.7-4l2.9-2.8C19.1,51.5,19.2,51,19,50.6z"/>
	</g>
	<g>
		<path class="st0" d="M51.3,53.4c-0.3,0.3-0.4,0.6-0.3,1l0.4,2.3l-2-1.1c-0.2-0.1-0.4-0.2-0.5-0.2c-0.2,0-0.4,0-0.5,0.2l-2,1.1
			l0.4-2.3c0.1-0.4-0.1-0.8-0.3-1l-1.6-1.6l2.3-0.3c0.4-0.1,0.7-0.3,0.9-0.6l1-2.1l1,2.1c0.2,0.3,0.5,0.5,0.9,0.6l2.3,0.3L51.3,53.4
			z M56.6,50.6L56.6,50.6c-0.2-0.5-0.5-0.8-1-0.8l-4-0.6l-1.8-3.6c-0.2-0.4-0.6-0.7-1.1-0.7c-0.5,0-0.8,0.3-1.1,0.7l-1.8,3.6l-4,0.6
			c-0.4,0-0.8,0.3-0.9,0.8c-0.1,0.4,0,0.9,0.3,1.2l2.9,2.8l-0.7,4c0,0.4,0.1,0.9,0.5,1.1c0.3,0.3,0.8,0.3,1.2,0.1l3.6-1.9l3.6,1.9
			c0.4,0.2,0.9,0.2,1.2-0.1c0.4-0.3,0.5-0.7,0.5-1.1l-0.7-4l2.9-2.8C56.6,51.5,56.7,51,56.6,50.6z"/>
	</g>
</g>
</svg>
