<?xml version="1.0" encoding="UTF-8"?>
<!DOCTYPE svg PUBLIC "-//W3C//DTD SVG 1.1//EN" "http://www.w3.org/Graphics/SVG/1.1/DTD/svg11.dtd">
<!-- Creator: CorelDRAW X8 -->
<svg xmlns="http://www.w3.org/2000/svg" xml:space="preserve" width="20.4244mm" height="21.1359mm" version="1.1" style="shape-rendering:geometricPrecision; text-rendering:geometricPrecision; image-rendering:optimizeQuality; fill-rule:evenodd; clip-rule:evenodd"
viewBox="0 0 1512 1565"
 xmlns:xlink="http://www.w3.org/1999/xlink">
 <defs>
  <style type="text/css">
   <![CDATA[
    .fil3 {fill:#212121}
    .fil8 {fill:#545454}
    .fil4 {fill:#999999}
    .fil5 {fill:#A91F8E}
    .fil6 {fill:#B6C039}
    .fil0 {fill:#E0EBF8}
    .fil1 {fill:#EBEBFA}
    .fil7 {fill:#FFC3DE}
    .fil2 {fill:white}
   ]]>
  </style>
 </defs>
 <g id="Capa_x0020_1">
  <metadata id="CorelCorpID_0Corel-Layer"/>
  <path class="fil0" d="M60 341c-71,117 -78,318 -26,444 45,110 136,214 254,227 44,5 88,-3 131,5 149,27 204,210 319,307 80,68 192,92 296,79 104,-13 202,-61 288,-121 67,-48 131,-107 164,-182 70,-159 -12,-350 -140,-468 -40,-36 -85,-69 -118,-111 -34,-43 -55,-100 -39,-151 13,-42 47,-74 60,-115 18,-56 -9,-119 -53,-158 -43,-40 -101,-60 -158,-73 -239,-57 -764,-34 -978,317z"/>
  <path class="fil1" d="M1034 1550l-556 0c-49,0 -89,-40 -89,-89l0 -1125c0,-48 40,-88 89,-88l556 0c49,0 89,40 89,88l0 1125c0,49 -40,89 -89,89z"/>
  <polygon class="fil2" points="389,375 1123,375 1123,1423 389,1423 "/>
  <path class="fil3" d="M478 263c-41,0 -74,33 -74,73l0 1125c0,41 33,74 74,74l556 0c41,0 74,-33 74,-74l0 -1125c0,-40 -33,-73 -74,-73l-556 0zm556 1302l0 0 -556 0c-57,0 -104,-47 -104,-104l0 -1125c0,-56 47,-103 104,-103l556 0c57,0 104,47 104,103l0 1125c0,57 -47,104 -104,104z"/>
  <path class="fil4" d="M768 329l-103 0c-8,0 -15,-7 -15,-15 0,-8 7,-15 15,-15l103 0c9,0 15,7 15,15 0,8 -6,15 -15,15z"/>
  <path class="fil4" d="M852 314c0,-8 -7,-15 -15,-15 -8,0 -14,7 -14,15 0,8 6,15 14,15 8,0 15,-7 15,-15z"/>
  <path class="fil5" d="M1038 475l0 270c0,16 -14,30 -30,30l-504 0c-17,0 -30,-14 -30,-30l0 -270c0,-17 13,-30 30,-30l504 0c16,0 30,13 30,30z"/>
  <path class="fil6" d="M1038 1306l0 117 -564 0 0 -117c0,-17 13,-30 30,-30l504 0c16,0 30,13 30,30z"/>
  <path class="fil2" d="M743 619l-194 0c-8,0 -15,6 -15,14 0,9 7,15 15,15l194 0c8,0 15,-6 15,-15 0,-8 -7,-14 -15,-14z"/>
  <path class="fil2" d="M743 561l-194 0c-8,0 -15,7 -15,15 0,8 7,15 15,15l194 0c8,0 15,-7 15,-15 0,-8 -7,-15 -15,-15z"/>
  <path class="fil7" d="M584 492l-35 0c-8,0 -15,7 -15,15 0,8 7,15 15,15l35 0c8,0 15,-7 15,-15 0,-8 -7,-15 -15,-15z"/>
  <path class="fil8" d="M889 957c-6,0 -11,-5 -11,-11l0 -54c0,-6 -5,-11 -12,-11l-55 0c-6,0 -11,-5 -11,-11 0,-7 5,-12 11,-12l55 0c20,0 35,15 35,34l0 54c0,6 -5,11 -12,11z"/>
  <path class="fil8" d="M634 957c-7,0 -12,-5 -12,-11l0 -54c0,-19 15,-34 34,-34l55 0c7,0 12,5 12,12 0,6 -5,11 -12,11l-55 0c-6,0 -11,5 -11,11l0 54c0,6 -5,11 -11,11z"/>
  <path class="fil8" d="M866 1132l-55 0c-6,0 -11,-5 -11,-11 0,-6 5,-11 11,-11l55 0c7,0 12,-5 12,-11l0 -55c0,-6 5,-11 11,-11 7,0 12,5 12,11l0 55c0,18 -15,33 -35,33z"/>
  <path class="fil8" d="M711 1132l-55 0c-19,0 -34,-15 -34,-33l0 -55c0,-6 5,-11 12,-11 6,0 11,5 11,11l0 55c0,6 5,11 11,11l55 0c7,0 12,5 12,11 0,6 -5,11 -12,11z"/>
  <path class="fil8" d="M686 963l35 0 0 -42 -35 0 0 42zm46 23l0 0 -58 0c-6,0 -11,-5 -11,-12l0 -64c0,-7 5,-12 11,-12l58 0c7,0 12,5 12,12l0 64c0,7 -5,12 -12,12z"/>
  <path class="fil8" d="M849 1092l-56 0c-6,0 -11,-5 -11,-11l0 -36c0,-7 5,-12 11,-12 7,0 12,5 12,12l0 24 32 0 0 -34 -14 0c-6,0 -11,-5 -11,-11 0,-7 5,-12 11,-12l26 0c6,0 11,5 11,12l0 57c0,6 -5,11 -11,11z"/>
  <path class="fil8" d="M813 945l24 0 0 -24 -24 0 0 24zm36 23l0 0 -48 0c-6,0 -12,-5 -12,-12l0 -46c0,-7 6,-12 12,-12l48 0c6,0 11,5 11,12l0 46c0,7 -5,12 -11,12z"/>
  <path class="fil8" d="M767 1020l-93 0c-6,0 -11,-5 -11,-12 0,-6 5,-11 11,-11l82 0 0 -77c0,-6 4,-11 11,-11 7,0 12,5 12,11l0 88c0,7 -5,12 -12,12z"/>
  <path class="fil8" d="M799 1017c-6,0 -11,-5 -11,-12l0 -15c0,-6 5,-12 11,-12l53 0c6,0 11,6 11,12 0,6 -5,11 -11,11l-41 0 0 4c0,7 -5,12 -12,12z"/>
  <path class="fil8" d="M762 1078c-7,0 -12,-6 -12,-12l0 -26c0,-6 5,-11 12,-11 6,0 11,5 11,11l0 26c0,6 -5,12 -11,12z"/>
  <path class="fil8" d="M686 1069l32 0 0 -18 -32 0 0 18zm43 23l0 0 -55 0c-6,0 -11,-5 -11,-11l0 -42c0,-6 5,-11 11,-11l55 0c7,0 12,5 12,11l0 42c0,6 -5,11 -12,11z"/>
  <path class="fil2" d="M725 1357c0,-16 13,-29 29,-29 16,0 29,13 29,29 0,17 -13,30 -29,30 -16,0 -29,-13 -29,-30z"/>
 </g>
</svg>
