<?xml version="1.0" encoding="utf-8"?>
<!-- Generator: Adobe Illustrator 24.0.1, SVG Export Plug-In . SVG Version: 6.00 Build 0)  -->
<svg version="1.1" id="Capa_1" xmlns="http://www.w3.org/2000/svg" xmlns:xlink="http://www.w3.org/1999/xlink" x="0px" y="0px"
	 viewBox="0 0 60 60" style="enable-background:new 0 0 60 60;" xml:space="preserve">
<style type="text/css">
	.st0{fill-rule:evenodd;clip-rule:evenodd;fill:#FFFFFF;}
</style>
<g>
	<path class="st0" d="M18.5,57.3c1.6,1.6,3.9,2.7,6.4,2.7c2.5,0,4.8-1,6.4-2.7c1.6-1.6,2.7-3.9,2.7-6.4c0-0.4-0.1-0.7-0.4-1
		c-0.2-0.3-0.6-0.4-1-0.4c-0.4,0-0.7,0.1-1,0.4c-0.3,0.2-0.4,0.6-0.4,1c0,1.7-0.7,3.3-1.8,4.4c-1.2,1.2-2.7,1.9-4.4,1.9
		c-1.7,0-3.3-0.7-4.4-1.9c-1.1-1.1-1.8-2.7-1.8-4.4c0-0.4-0.1-0.7-0.4-1c-0.2-0.3-0.6-0.4-1-0.4c-0.4,0-0.7,0.1-1,0.4
		c-0.2,0.2-0.4,0.6-0.4,1C15.9,53.4,16.9,55.7,18.5,57.3z"/>
	<path class="st0" d="M4,52.4h41.9c1.1,0,2.1-0.5,2.8-1.2c0.7-0.7,1.2-1.7,1.2-2.8c0-0.6-0.1-1.1-0.4-1.6c-0.2-0.5-0.6-1-1-1.4l0,0
		l-0.1-0.1c-0.9-0.8-1.7-1.7-2.5-2.7c-0.7-0.9-1.4-2-1.9-3c-0.1-0.4-0.5-0.7-0.8-0.7c-0.3-0.1-0.7-0.1-1.1,0
		c-0.4,0.1-0.6,0.5-0.7,0.8c-0.1,0.4-0.1,0.7,0,1.1c0.6,1.4,1.4,2.6,2.2,3.7c0.8,1.1,1.9,2.2,2.9,3.1l0.1,0.1l0,0
		c0.1,0.1,0.1,0.2,0.2,0.4c0,0.1,0.1,0.2,0.1,0.3c0,0.3-0.1,0.6-0.4,0.8c-0.2,0.2-0.5,0.3-0.8,0.3H4c-0.3,0-0.6-0.1-0.8-0.3
		C3,49,2.8,48.7,2.8,48.4c0-0.1,0-0.2,0-0.3c0-0.1,0.1-0.2,0.2-0.4l0,0l0,0l0.1,0c2.3-2,4.1-4.3,5.3-7c1.2-2.7,1.9-5.5,1.9-8.6v-7.1
		c0-3.4,1.1-6.5,3.1-8.9c2-2.5,4.8-4.3,8-5.1c0.4-0.1,0.7-0.4,0.8-0.7c0.2-0.3,0.3-0.7,0.2-1.1c-0.1-0.4-0.3-0.7-0.6-0.9
		c-0.3-0.2-0.7-0.2-1.1-0.1c-3.9,0.9-7.2,3.1-9.6,6.1C9,17.1,7.6,20.9,7.6,24.9V32c0,2.6-0.6,5-1.6,7.3c-1,2.3-2.5,4.3-4.5,6l0,0
		l-0.1,0.1l-0.1,0c-0.4,0.4-0.8,0.8-1,1.4C0.1,47.3,0,47.8,0,48.4c0,1.1,0.5,2.1,1.2,2.8C1.9,51.9,2.9,52.4,4,52.4z"/>
	<path class="st0" d="M34.7,6.7C37,4.3,40.3,2.8,44,2.8s6.9,1.5,9.4,3.9c2.4,2.4,3.9,5.7,3.9,9.3s-1.5,6.9-3.9,9.3
		c-2.4,2.4-5.7,3.9-9.4,3.9s-6.9-1.5-9.3-3.9c-2.4-2.4-3.9-5.7-3.9-9.3S32.3,9.1,34.7,6.7z M32.7,27.3L32.7,27.3
		C35.5,30.3,39.6,32,44,32c4.4,0,8.4-1.8,11.3-4.7C58.2,24.5,60,20.5,60,16s-1.8-8.4-4.7-11.3C52.4,1.8,48.4,0,44,0
		c-4.4,0-8.4,1.8-11.3,4.7S28,11.6,28,16S29.8,24.5,32.7,27.3z"/>
	<path class="st0" d="M43.6,22.7c0.2,0.3,0.6,0.4,1,0.4c0.4,0,0.7-0.1,1-0.4c0.3-0.2,0.4-0.6,0.4-1V11.6c0-0.4-0.1-0.7-0.4-1
		c-0.2-0.2-0.6-0.4-1-0.4h-3.2c-0.4,0-0.7,0.1-1,0.4c-0.2,0.3-0.4,0.6-0.4,1c0,0.4,0.1,0.7,0.4,1c0.3,0.3,0.6,0.4,1,0.4h1.8v8.8
		C43.2,22.1,43.4,22.5,43.6,22.7z"/>
</g>
</svg>
