<?xml version="1.0" encoding="utf-8"?>
<!-- Generator: Adobe Illustrator 24.0.1, SVG Export Plug-In . SVG Version: 6.00 Build 0)  -->
<svg version="1.1" id="Capa_1" xmlns="http://www.w3.org/2000/svg" xmlns:xlink="http://www.w3.org/1999/xlink" x="0px" y="0px"
	 viewBox="0 0 60 60" style="enable-background:new 0 0 60 60;" xml:space="preserve">
<style type="text/css">
	.st0{fill-rule:evenodd;clip-rule:evenodd;fill:#FFFFFF;}
</style>
<g>
	<path class="st0" d="M27.1,26.3c-0.3,0-0.6,0.1-0.8,0.3c-0.2,0.2-0.3,0.5-0.3,0.8c0,0.3,0.1,0.6,0.3,0.8c0.2,0.2,0.5,0.3,0.8,0.3
		c0.3,0,0.6-0.1,0.8-0.3c0.2-0.2,0.3-0.5,0.3-0.8c0-0.3-0.1-0.6-0.3-0.8C27.7,26.4,27.4,26.3,27.1,26.3z"/>
	<path class="st0" d="M50.8,45.9c-0.3,0.6-0.9,1-1.5,1.2c-0.7,0.2-1.3,0.1-1.9-0.2c-1.2-0.7-1.6-2.2-0.9-3.4
		c0.6-1.1,1.2-2.3,1.6-3.5l1.2,0.2c0.1,0,0.1,0,0.2,0c0.5,0,0.9-0.3,1-0.8c0.1-0.5-0.1-1-0.6-1.2l-1.2-0.4c0.2-0.9,0.3-1.9,0.4-2.8
		h5.1C53.9,38.7,52.8,42.5,50.8,45.9z M46.9,25.3l4.4-2.5c1.3,2.5,2.1,5.2,2.5,8c0.1,0.7,0.1,1.4,0.2,2.1H49c0-0.5-0.1-1-0.1-1.5
		C48.6,29.2,47.9,27.2,46.9,25.3z M40.4,17.9l2.5-4.4c1.5,0.9,2.8,2,4.1,3.3c1.3,1.3,2.4,2.6,3.3,4.1l-4.4,2.5
		c-0.7-1.1-1.5-2.1-2.5-3.1C42.5,19.5,41.5,18.7,40.4,17.9z M18.9,12.5C22,10.9,25.4,10,29,9.8v5.1c-2.7,0.1-5.3,0.8-7.6,2
		L18.9,12.5z M31,14.9V9.8c3.6,0.1,7,1.1,10.1,2.7l-2.5,4.4C36.3,15.7,33.7,15,31,14.9z M34.6,35.6L34.6,35.6l-4.9-0.8
		c-0.2,0-0.4-0.2-0.5-0.3C29,34.2,29,33.9,29,33.6c0.1-0.3,0.3-0.5,0.5-0.7c0.1,0,0.2-0.1,0.4-0.1c0.1,0,0.1,0,0.2,0l4.7,1.8l0,0
		l4.7,1.8L34.6,35.6z M27,36.8c-1.6-1.6-1.6-4.3,0-5.9c1.6-1.6,4.3-1.6,5.9,0c0.3,0.3,0.6,0.7,0.8,1.2L30.9,31
		c-0.7-0.3-1.5-0.2-2.2,0.1c-0.8,0.4-1.4,1.1-1.6,2c-0.2,0.8-0.1,1.8,0.4,2.5c0.4,0.7,1.1,1.1,1.9,1.2l3.1,0.5
		C30.7,38.4,28.5,38.3,27,36.8z M11.1,31.4c-0.1,0.5-0.1,1-0.1,1.5H6c0-0.7,0.1-1.4,0.2-2.1c0.4-2.8,1.2-5.5,2.5-8l4.4,2.5
		C12.1,27.2,11.4,29.2,11.1,31.4z M13.5,43.4c0.3,0.6,0.4,1.3,0.2,1.9c-0.2,0.7-0.6,1.2-1.2,1.5c-0.6,0.3-1.3,0.4-1.9,0.2
		c-0.7-0.2-1.2-0.6-1.5-1.2c-2-3.4-3.1-7.1-3.2-11H11C11.2,37.9,12,40.8,13.5,43.4z M55.9,30.5c-0.7-5.7-3.4-11-7.4-15.1
		C43.5,10.5,37,7.8,30,7.8c-5.5,0-10.7,1.7-15.1,4.8c-0.5,0.3-0.6,1-0.2,1.4c0.3,0.5,1,0.6,1.4,0.3c0.3-0.2,0.7-0.5,1-0.7l2.5,4.4
		c-1.1,0.7-2.1,1.5-3.1,2.5c-0.9,0.9-1.8,2-2.5,3.1L9.7,21c0.5-0.7,1-1.4,1.5-2.1c0.3-0.4,0.3-1.1-0.2-1.4c-0.4-0.4-1.1-0.3-1.4,0.2
		c-2.9,3.7-4.8,8.1-5.5,12.9C3.4,36.1,4.5,42,7.4,46.9C8,47.9,9,48.7,10.2,49c0.4,0.1,0.8,0.2,1.2,0.2c0.8,0,1.6-0.2,2.3-0.6
		c1.1-0.6,1.8-1.6,2.1-2.8c0.3-1.2,0.2-2.4-0.5-3.5c-1.9-3.3-2.6-7-2.1-10.7c0.5-3.7,2.2-7.1,4.8-9.8c3.2-3.2,7.5-5,12-5
		s8.8,1.8,12,5c2.7,2.7,4.3,6.1,4.8,9.8c0.2,1.8,0.2,3.6-0.1,5.3l-10.5-4c-0.2-1.3-0.8-2.5-1.8-3.5C32,27,28,27,25.6,29.5
		c-2.4,2.4-2.4,6.4,0,8.8c1.2,1.2,2.8,1.8,4.4,1.8c1.6,0,3.2-0.6,4.4-1.8c0.2-0.2,0.3-0.3,0.5-0.5L46,39.5c-0.3,1-0.8,1.9-1.3,2.8
		c-1.3,2.2-0.5,5,1.7,6.2c1.1,0.6,2.3,0.8,3.5,0.5c1.2-0.3,2.1-1.1,2.8-2.1C55.5,42,56.6,36.1,55.9,30.5z"/>
	<path class="st0" d="M35.1,47.1H24.9v-1.2h10.2V47.1z M36.1,43.9H23.9c-0.6,0-1,0.5-1,1v3.3c0,0.6,0.5,1,1,1h12.2c0.6,0,1-0.5,1-1
		v-3.3C37.1,44.3,36.7,43.9,36.1,43.9z"/>
	<path class="st0" d="M14.9,32.8c-0.6,0-1,0.5-1,1c0,0.6,0.5,1,1,1h0c0.6,0,1-0.5,1-1C16,33.3,15.5,32.8,14.9,32.8L14.9,32.8z"/>
	<path class="st0" d="M23.4,20.3L23.4,20.3c-0.3-0.5-0.9-0.7-1.4-0.4c-0.5,0.3-0.7,0.9-0.4,1.4l0,0c0.2,0.3,0.5,0.5,0.9,0.5
		c0.2,0,0.3,0,0.5-0.1C23.5,21.4,23.6,20.8,23.4,20.3z"/>
	<path class="st0" d="M37.5,21.9c0.3,0,0.7-0.2,0.9-0.5l0,0c0.3-0.5,0.1-1.1-0.4-1.4c-0.5-0.3-1.1-0.1-1.4,0.4l0,0
		c-0.3,0.5-0.1,1.1,0.4,1.4C37.2,21.8,37.4,21.9,37.5,21.9z"/>
	<path class="st0" d="M45.1,34.9c0.6,0,1-0.5,1-1c0-0.6-0.5-1-1-1h0c-0.6,0-1,0.5-1,1C44,34.4,44.5,34.9,45.1,34.9L45.1,34.9z"/>
	<path class="st0" d="M26.5,50.2L26.5,50.2c-0.6,0-1,0.5-1,1c0,0.6,0.5,1,1,1h0c0.6,0,1-0.5,1-1C27.5,50.7,27,50.2,26.5,50.2z"/>
	<path class="st0" d="M33.6,50.2h-4.2c-0.6,0-1,0.5-1,1c0,0.6,0.5,1,1,1h4.2c0.6,0,1-0.5,1-1C34.6,50.7,34.1,50.2,33.6,50.2z"/>
</g>
<g>
	<path class="st0" d="M-69.4,137.4L-69.4,137.4c-0.5,0-0.9,0.4-0.9,0.9s0.4,0.9,0.9,0.9h0c0.5,0,0.9-0.4,0.9-0.9
		S-68.9,137.4-69.4,137.4z"/>
	<path class="st0" d="M-73.8,113.9c0,0.5,0.4,0.9,0.9,0.9h12.8c0.5,0,0.9-0.4,0.9-0.9s-0.4-0.9-0.9-0.9h-12.8
		C-73.4,113-73.8,113.4-73.8,113.9z"/>
	<path class="st0" d="M-44.1,102.4l-10.5,21.1l-3.6-1.8l7.4-14.8l3.1-6.3c0.7-1.4,2-1.2,2.7-0.9C-44.4,100-43.4,101-44.1,102.4z
		 M-59,127.7l0.3-4.2l2.8,1.4L-59,127.7z M-55.9,99.4c-0.9,0-1.5-0.7-1.5-1.5v-2.3l3.6,3.9H-55.9z M-44.2,98c-1.7-0.9-4-0.6-5.1,1.7
		l-1.4,2.8v-2.2c0-0.2-0.1-0.5-0.2-0.6l0,0l-6.7-7.1c-0.2-0.2-0.4-0.3-0.7-0.3h-26.2c-1.9,0-3.5,1.6-3.5,3.6v39.9
		c0,2,1.6,3.6,3.5,3.6h11.5c0.5,0,0.9-0.4,0.9-0.9s-0.4-0.9-0.9-0.9h-11.5c-0.9,0-1.7-0.8-1.7-1.7V95.8c0-0.9,0.8-1.7,1.7-1.7h25.3
		v3.7c0,1.9,1.5,3.4,3.4,3.4h3.3v5L-60,121l-0.1,0l-12.8,0c-0.5,0-0.9,0.4-0.9,0.9s0.4,0.9,0.9,0.9h12.5l-0.5,6.1h-12
		c-0.5,0-0.9,0.4-0.9,0.9s0.4,0.9,0.9,0.9h12.8c0.2,0,0.4-0.1,0.6-0.2l5.9-5.2c0.1-0.1,0.2-0.2,0.2-0.3h0v0l0.8-1.6v12.3
		c0,0.9-0.8,1.7-1.7,1.7h-11.5c-0.5,0-0.9,0.4-0.9,0.9s0.4,0.9,0.9,0.9h11.5c1.9,0,3.5-1.6,3.5-3.6v-16l8.3-16.6
		C-41.4,100.9-42.5,98.9-44.2,98z"/>
	<path class="st0" d="M-76.3,118.7c-0.4-0.3-1-0.2-1.3,0.2l-2.7,3.8L-81,122c-0.4-0.3-1-0.3-1.3,0.1c-0.3,0.4-0.3,1,0.1,1.3l1.5,1.3
		c0.2,0.2,0.4,0.2,0.6,0.2l0.1,0c0.3,0,0.5-0.2,0.6-0.4l3.3-4.6C-75.8,119.6-75.9,119-76.3,118.7z"/>
	<path class="st0" d="M-76.3,125.9c-0.4-0.3-1-0.2-1.3,0.2l-2.7,3.8l-0.7-0.7c-0.4-0.3-1-0.3-1.3,0.1c-0.3,0.4-0.3,1,0.1,1.3
		l1.5,1.3c0.2,0.1,0.4,0.2,0.6,0.2l0.1,0c0.3,0,0.5-0.2,0.6-0.4l3.3-4.6C-75.8,126.8-75.9,126.2-76.3,125.9L-76.3,125.9z"/>
	<path class="st0" d="M-82.2,116.2l1.5,1.3c0.2,0.1,0.4,0.2,0.6,0.2h0.1c0.3,0,0.5-0.2,0.6-0.4l3.3-4.6c0.3-0.4,0.2-1-0.2-1.3
		c-0.4-0.3-1-0.2-1.3,0.2l-2.7,3.8l-0.7-0.7c-0.4-0.3-1-0.3-1.3,0.1C-82.6,115.3-82.6,115.9-82.2,116.2z"/>
	<path class="st0" d="M-65.5,101.8c0.1,0,0.1,0.1,0.1,0.1v1.9c0,0.1-0.1,0.1-0.1,0.1h-1.9c-0.5,0-0.9,0.4-0.9,0.9v2
		c0,0.1-0.1,0.1-0.1,0.1h-1.8c-0.1,0-0.1-0.1-0.1-0.1v-2c0-0.5-0.4-0.9-0.9-0.9h-1.9c-0.1,0-0.1-0.1-0.1-0.1v-1.9
		c0-0.1,0.1-0.1,0.1-0.1h1.9c0.5,0,0.9-0.4,0.9-0.9v-2c0-0.1,0.1-0.1,0.1-0.1h1.8c0.1,0,0.1,0.1,0.1,0.1v2c0,0.5,0.4,0.9,0.9,0.9
		H-65.5z M-68.5,96.9h-1.8c-1.1,0-2,0.9-2,2v1h-1c-1.1,0-2,0.9-2,2v1.9c0,1.1,0.9,2,2,2h1v1c0,1.1,0.9,2,2,2h1.8c1.1,0,2-0.9,2-2v-1
		h1c1.1,0,2-0.9,2-2v-1.9c0-1.1-0.9-2-2-2h-1v-1C-66.5,97.8-67.4,96.9-68.5,96.9z"/>
</g>
<path class="st0" d="M-103.4,158.7l-0.4,1c-0.1,0.1-0.1,0.2-0.2,0.4c-0.6,2.6-2.6,5.5-4.8,8.4l-15.7-15.6l-8.3-0.1
	c-1.2,0-2.2-1-2.2-2.2c0-1.2,1-2.2,2.2-2.2l15.6-2.1l0.8-0.4c0.2-0.2,0.4-0.2,0.6-0.2c0.2,0,0.5,0.1,0.7,0.3l11.7,11.6
	C-103.1,157.9-103.1,158.4-103.4,158.7z M-107.2,172.9c0.9,0.9,0.9,2.5-0.2,3.3c-0.4,0.3-0.9,0.5-1.4,0.5c-0.6,0-1.2-0.2-1.7-0.7
	l-8.2-8.1c-0.2-0.2-0.5-0.3-0.8-0.3s-0.5,0.1-0.8,0.3c-0.4,0.4-0.4,1.1,0,1.5l10.5,10.4c0.9,0.9,0.9,2.5-0.2,3.3
	c-0.4,0.3-0.9,0.5-1.4,0.5c-0.6,0-1.2-0.2-1.7-0.7l-10.4-10.3c-0.2-0.2-0.5-0.3-0.8-0.3c-0.3,0-0.6,0.1-0.8,0.3
	c-0.4,0.4-0.4,1.1,0,1.5l8.2,8.1c0.9,0.9,0.9,2.5-0.2,3.3c-0.4,0.3-0.9,0.5-1.4,0.5c-0.6,0-1.2-0.2-1.7-0.7l-8.5-8.4
	c-0.1-0.7-0.5-1.3-1-1.8l0,0c-0.6-0.6-1.3-0.9-2.1-1.1c0.2-0.4,0.3-0.9,0.3-1.3c0-1-0.4-1.9-1.1-2.6l0,0l0,0
	c-0.7-0.7-1.6-1.1-2.6-1.1c-0.7,0-1.3,0.2-1.9,0.5c-0.2-0.7-0.5-1.2-1-1.7l0,0h0c-0.7-0.7-1.7-1.1-2.7-1.1s-1.9,0.4-2.6,1.1l0,0
	c-0.1-0.4-0.2-0.8-0.3-1.2c0-0.1-0.1-0.3-0.2-0.4l-5.3-5.8c-0.3-0.4-0.3-0.9,0.1-1.2l11.7-11.6c0.2-0.2,0.4-0.3,0.7-0.3
	c0.2,0,0.4,0.1,0.6,0.2l0.1,0.1c-0.8,0.8-1.3,1.8-1.3,3c0,2.3,1.9,4.2,4.2,4.2l7.5,0.1L-107.2,172.9z M-124.3,186.8
	c-0.5,0.6-1.1,0.8-1.8,0.8c-0.6,0-1.2-0.2-1.6-0.7l-0.2-0.2c0.2-0.1,0.4-0.3,0.6-0.5l0.9-0.9c0.7-0.7,1-1.5,1.1-2.3l0.7,0.7
	C-123.7,184.6-123.6,185.9-124.3,186.8z M-129.9,185.4c-0.4,0-0.9-0.2-1.2-0.5l0,0c-0.7-0.7-0.7-1.7,0-2.4l0.9-0.9
	c0.3-0.3,0.8-0.5,1.2-0.5c0.4,0,0.9,0.2,1.2,0.5l0,0c0.7,0.7,0.7,1.7,0,2.4l-0.9,0.9C-129.1,185.3-129.5,185.4-129.9,185.4z
	 M-132.9,181c-0.3,0.3-0.8,0.5-1.2,0.5s-0.9-0.2-1.2-0.5l0,0c-0.7-0.7-0.7-1.7,0-2.4l2.1-2c0.3-0.3,0.8-0.5,1.2-0.5
	c0.4,0,0.9,0.2,1.2,0.5l0,0c0.7,0.7,0.7,1.7,0,2.4L-132.9,181z M-137,177.1c-0.3,0.3-0.8,0.5-1.2,0.5s-0.9-0.2-1.2-0.5l0,0
	c-0.7-0.7-0.7-1.7,0-2.4l3.2-3.1c0.3-0.3,0.8-0.5,1.2-0.5c0.4,0,0.9,0.2,1.2,0.5l0,0c0.7,0.7,0.7,1.7,0,2.4L-137,177.1z
	 M-141.9,173.5c-0.4,0-0.9-0.2-1.2-0.5l0,0c-0.7-0.7-0.7-1.7,0-2.4l1.3-1.3c0.3-0.3,0.8-0.5,1.2-0.5s0.9,0.2,1.2,0.5l0,0
	c0.7,0.7,0.7,1.7,0,2.4l-1.3,1.3C-141,173.3-141.4,173.5-141.9,173.5z M-102,156.1l-11.7-11.6c-0.6-0.6-1.3-0.9-2.1-0.9
	c-0.6,0-1.2,0.2-1.7,0.6l-0.3,0.2l-15.1,2c-0.3,0-0.7,0.1-1,0.2l-0.5-0.5l-0.1-0.1c-0.5-0.5-1.2-0.7-1.9-0.7c-0.8,0-1.5,0.3-2.1,0.9
	l-11.7,11.6c-1.1,1-1.2,2.7-0.3,3.9l0.1,0.1l5,5.5c0.2,0.7,0.4,1.4,0.7,2.1c-1.2,1.4-1.1,3.6,0.2,5h0l0,0c0.7,0.7,1.6,1.1,2.6,1.1
	c0,0.1,0,0.3,0,0.5c0,1,0.4,1.9,1.1,2.6l0,0v0c0.7,0.7,1.7,1.1,2.6,1.1c0.1,0,0.2,0,0.3,0l0,0l0,0.1c0,1,0.4,1.9,1.1,2.6l0,0l0,0
	c0.7,0.7,1.6,1.1,2.6,1.1h0l0.3,0.3c0.1,0.9,0.4,1.8,1.1,2.5l0,0l0,0c0.7,0.7,1.5,1,2.5,1.1l1,1c0.8,0.8,1.9,1.2,3,1.2
	c1.3,0,2.5-0.6,3.3-1.6c0.4-0.6,0.7-1.2,0.8-1.9l0.6,0.6c0.8,0.8,1.9,1.3,3.1,1.3c0.9,0,1.9-0.3,2.6-0.9c0.8-0.6,1.4-1.6,1.6-2.6
	c0.8,0.7,1.8,1,2.9,1c0.9,0,1.9-0.3,2.6-0.9c1-0.7,1.5-1.9,1.6-3.1c0.1-1.1-0.3-2.2-1.1-3.1c0.7-0.1,1.3-0.4,1.9-0.8
	c1-0.7,1.5-1.9,1.6-3.1c0.1-1.2-0.4-2.4-1.2-3.2l-1.6-1.6l0.2-0.2c3-3.7,4.6-6.5,5.2-9c0-0.1,0.1-0.2,0.1-0.3l0.3-0.8
	C-100.9,158.5-101.1,157.1-102,156.1z"/>
</svg>
