<?xml version="1.0" encoding="utf-8"?>
<!-- Generator: Adobe Illustrator 24.0.1, SVG Export Plug-In . SVG Version: 6.00 Build 0)  -->
<svg version="1.1" id="Capa_1" xmlns="http://www.w3.org/2000/svg" xmlns:xlink="http://www.w3.org/1999/xlink" x="0px" y="0px"
	 viewBox="0 0 60 60" style="enable-background:new 0 0 60 60;" xml:space="preserve">
<style type="text/css">
	.st0{fill-rule:evenodd;clip-rule:evenodd;fill:#FFFFFF;}
</style>
<g>
	<path class="st0" d="M45.7,18.7C44.1,10.8,37,5,28.9,5c-9.5,0-17.2,7.6-17.2,17c0,0.4,0,0.8,0.1,1.2c-5.2,0.5-9.2,4.9-9.2,10.2
		c0,5.6,4.6,10.2,10.3,10.2c0.6,0,1.1-0.5,1.1-1.1c0-0.6-0.5-1.1-1.1-1.1c-4.4,0-8-3.6-8-7.9s3.6-8,7.9-8l0.2,0
		c0.3,0,0.7-0.1,0.9-0.4c0.2-0.3,0.3-0.6,0.3-0.9C14,23.4,14,22.7,14,22c0-8.1,6.7-14.8,14.9-14.8c7.3,0,13.7,5.5,14.7,12.7
		c0.1,0.6,0.7,1,1.3,1c5.7,0,10.3,4.6,10.3,10.2s-4.6,10.2-10.3,10.2c-0.6,0-1.1,0.5-1.1,1.1c0,0.6,0.5,1.1,1.1,1.1
		c6.9,0,12.6-5.6,12.6-12.5C57.5,24.6,52.4,19.2,45.7,18.7z"/>
	<path class="st0" d="M28.9,52.7c-5.7,0-10.3-4.6-10.3-10.2c0-5.6,4.6-10.2,10.3-10.2c5.7,0,10.3,4.6,10.3,10.2
		C39.2,48.1,34.5,52.7,28.9,52.7z M28.9,30c-7,0-12.6,5.6-12.6,12.5c0,6.9,5.7,12.5,12.6,12.5c6.9,0,12.6-5.6,12.6-12.5
		C41.5,35.6,35.8,30,28.9,30z"/>
	<path class="st0" d="M28.9,34.5c-0.6,0-1.1,0.5-1.1,1.1v13.6c0,0.6,0.5,1.1,1.1,1.1c0.6,0,1.1-0.5,1.1-1.1V35.7
		C30,35.1,29.5,34.5,28.9,34.5z"/>
	<path class="st0" d="M34.2,44c-0.5-0.4-1.2-0.4-1.6,0l-3.8,3.7L25.1,44c-0.4-0.4-1.2-0.4-1.6,0c-0.5,0.4-0.5,1.2,0,1.6l4.6,4.5
		c0.2,0.2,0.5,0.3,0.8,0.3s0.6-0.1,0.8-0.3l4.6-4.5C34.7,45.1,34.7,44.4,34.2,44z"/>
</g>
</svg>
