<?xml version="1.0" encoding="utf-8"?>
<!-- Generator: Adobe Illustrator 24.0.1, SVG Export Plug-In . SVG Version: 6.00 Build 0)  -->
<svg version="1.1" id="Capa_1" xmlns="http://www.w3.org/2000/svg" xmlns:xlink="http://www.w3.org/1999/xlink" x="0px" y="0px"
	 viewBox="0 0 60 60" style="enable-background:new 0 0 60 60;" xml:space="preserve">
<style type="text/css">
	.st0{fill-rule:evenodd;clip-rule:evenodd;fill:#FFFFFF;}
</style>
<g>
	<path class="st0" d="M43.2,47.3c-0.4-0.1-0.8,0.2-0.9,0.6L41,52.3l-4.6-5.8l0.3-0.3c0.9-0.9,1.9-1.7,2.9-2.3
		c1.2-0.6,2.4-1.1,3.6-1.4l0.5-0.1l4.4,5.6L43.2,47.3z M30,48.1c-2,0-3.7-1.6-5.5-3.2c-1-1-2.1-1.8-3.2-2.6c-1.3-0.7-2.6-1.2-4-1.5
		c-2.3-0.7-4.5-1.4-5.5-3c-0.9-1.6-0.4-3.7,0.1-6c0.4-1.4,0.6-2.9,0.6-4.3c-0.1-1.5-0.3-2.9-0.6-4.3c-0.5-2.3-1-4.5-0.1-6
		c1-1.6,3.1-2.3,5.5-3c1.4-0.4,2.7-0.9,4-1.5c1.2-0.7,2.2-1.6,3.2-2.6C26.3,8.3,28,6.7,30,6.7s3.7,1.6,5.5,3.2c1,1,2.1,1.8,3.2,2.6
		c1.3,0.7,2.6,1.2,4,1.5c2.3,0.7,4.5,1.4,5.5,3c0.9,1.6,0.4,3.7-0.1,6c-0.4,1.4-0.6,2.9-0.6,4.3c0.1,1.5,0.3,2.9,0.6,4.3
		c0.5,2.3,1,4.5,0.1,6c-1,1.6-3.1,2.3-5.5,3c-1.4,0.4-2.7,0.9-4,1.5c-1.2,0.7-2.2,1.6-3.2,2.6C33.7,46.5,32,48.1,30,48.1z M19,52.3
		l-1.3-4.4c-0.1-0.4-0.5-0.7-0.9-0.6l-4.9,0.6l4.4-5.6l0.5,0.1c1.3,0.3,2.5,0.8,3.6,1.4c1.1,0.7,2,1.5,2.9,2.3l0.3,0.3L19,52.3z
		 M50.8,48.4l-5.3-6.7c1.7-0.5,3.2-1.6,4.2-3.1c1.3-2.1,0.7-4.7,0.1-7.3c-0.3-1.3-0.5-2.6-0.6-3.9c0.1-1.3,0.3-2.7,0.6-3.9
		c0.5-2.5,1.1-5.1-0.1-7.3c-1.3-2.2-3.9-3-6.4-3.8c-1.3-0.3-2.5-0.8-3.6-1.4c-1.1-0.7-2-1.5-2.9-2.3C34.8,6.9,32.7,5,30,5
		s-4.8,1.9-6.7,3.7c-0.9,0.9-1.9,1.7-2.9,2.3c-1.2,0.6-2.4,1.1-3.6,1.4c-2.5,0.8-5.1,1.6-6.4,3.8c-1.3,2.1-0.7,4.7-0.1,7.3
		c0.3,1.3,0.5,2.6,0.6,3.9c-0.1,1.3-0.3,2.7-0.6,3.9c-0.5,2.5-1.1,5.1,0.1,7.3c1,1.5,2.5,2.6,4.2,3.1l-5.3,6.7
		c-0.3,0.4-0.2,0.9,0.1,1.2c0.2,0.1,0.4,0.2,0.7,0.2l6.3-0.8l1.5,5.3c0.1,0.3,0.3,0.5,0.7,0.6c0.1,0,0.1,0,0.2,0
		c0.3,0,0.5-0.1,0.7-0.3l5.6-7.1c1.4,1.3,3.2,2.1,5.1,2.2c1.9-0.1,3.7-0.9,5.1-2.2l5.6,7.1c0.2,0.2,0.4,0.3,0.7,0.3
		c0.1,0,0.1,0,0.2,0c0.3-0.1,0.6-0.3,0.7-0.6l1.5-5.3l6.3,0.8c0.5,0.1,0.9-0.3,1-0.8C51,48.9,51,48.6,50.8,48.4z"/>
	<path class="st0" d="M30,41.2c-7.7,0-14-6.2-14-13.8s6.3-13.8,14-13.8s14,6.2,14,13.8C44,35,37.7,41.2,30,41.2z M30,11.9
		c-8.7,0-15.7,6.9-15.7,15.5S21.3,42.9,30,42.9S45.7,36,45.7,27.4C45.7,18.9,38.7,11.9,30,11.9z"/>
	<path class="st0" d="M33.8,28.3c-0.3,0.2-0.4,0.6-0.3,1l1.9,5.6l-4.8-3.5c-0.3-0.2-0.7-0.2-1,0l-4.8,3.5l1.9-5.6
		c0.1-0.4,0-0.7-0.3-1l-4.9-3.5h6c0.4,0,0.7-0.2,0.8-0.6l1.9-5.6l1.9,5.6c0.1,0.4,0.5,0.6,0.8,0.6h6L33.8,28.3z M40.1,23.8
		c-0.3-0.4-0.9-0.7-1.4-0.7h-5.4l-1.7-5c-0.3-0.9-1.3-1.4-2.2-1.1c-0.5,0.2-0.9,0.6-1.1,1.1l-1.7,5h-5.4c-1,0-1.7,0.8-1.7,1.7
		c0,0.5,0.3,1.1,0.7,1.4l4.3,3.1l-1.7,5c-0.3,0.9,0.2,1.9,1.1,2.2c0.5,0.2,1.1,0.1,1.6-0.2l4.3-3.1l4.3,3.1c0.6,0.4,1.5,0.4,2.1,0
		c0.6-0.4,0.9-1.2,0.6-1.9l-1.7-5l4.3-3.1C40.5,25.7,40.7,24.6,40.1,23.8z"/>
</g>
</svg>
