<?xml version="1.0" encoding="utf-8"?>
<!-- Generator: Adobe Illustrator 24.0.1, SVG Export Plug-In . SVG Version: 6.00 Build 0)  -->
<svg version="1.1" id="Capa_1" xmlns="http://www.w3.org/2000/svg" xmlns:xlink="http://www.w3.org/1999/xlink" x="0px" y="0px"
	 viewBox="0 0 60 60" style="enable-background:new 0 0 60 60;" xml:space="preserve">
<style type="text/css">
	.st0{fill-rule:evenodd;clip-rule:evenodd;fill:#FFFFFF;}
</style>
<path class="st0" d="M52.8,22.1l-0.4,1c-0.1,0.1-0.1,0.2-0.2,0.4c-0.6,2.6-2.6,5.5-4.8,8.4L31.7,16.3l-8.3-0.1c-1.2,0-2.2-1-2.2-2.2
	s1-2.2,2.2-2.2l15.6-2.1l0.8-0.4C39.9,9.1,40.1,9,40.3,9c0.2,0,0.5,0.1,0.7,0.3l11.7,11.6C53,21.2,53.1,21.7,52.8,22.1z M49,36.3
	c0.9,0.9,0.9,2.5-0.2,3.3c-0.4,0.3-0.9,0.5-1.4,0.5c-0.6,0-1.2-0.2-1.7-0.7l-8.2-8.1c-0.2-0.2-0.5-0.3-0.8-0.3
	c-0.3,0-0.5,0.1-0.8,0.3c-0.4,0.4-0.4,1.1,0,1.5l10.5,10.4c0.9,0.9,0.9,2.5-0.2,3.3C45.9,46.9,45.5,47,45,47c-0.6,0-1.2-0.2-1.7-0.7
	L32.9,36c-0.2-0.2-0.5-0.3-0.8-0.3c-0.3,0-0.6,0.1-0.8,0.3c-0.4,0.4-0.4,1.1,0,1.5l8.2,8.1c0.9,0.9,0.9,2.5-0.2,3.3
	c-0.4,0.3-0.9,0.5-1.4,0.5c-0.6,0-1.2-0.2-1.7-0.7l-8.5-8.4c-0.1-0.7-0.5-1.3-1-1.8l0,0c-0.6-0.6-1.3-0.9-2.1-1.1
	c0.2-0.4,0.3-0.9,0.3-1.3c0-1-0.4-1.9-1.1-2.6l0,0l0,0c-0.7-0.7-1.6-1.1-2.6-1.1c-0.7,0-1.3,0.2-1.9,0.5c-0.2-0.7-0.5-1.2-1-1.7l0,0
	h0c-0.7-0.7-1.7-1.1-2.7-1.1s-1.9,0.4-2.6,1.1l0,0c-0.1-0.4-0.2-0.8-0.3-1.2c0-0.1-0.1-0.3-0.2-0.4l-5.3-5.8
	c-0.3-0.4-0.3-0.9,0.1-1.2L19,11c0.2-0.2,0.4-0.3,0.7-0.3c0.2,0,0.4,0.1,0.6,0.2l0.1,0.1c-0.8,0.8-1.3,1.8-1.3,3
	c0,2.3,1.9,4.2,4.2,4.2l7.5,0.1L49,36.3z M31.8,50.2C31.3,50.7,30.7,51,30,51c-0.6,0-1.2-0.2-1.6-0.7l-0.2-0.2
	c0.2-0.1,0.4-0.3,0.6-0.5l0.9-0.9c0.7-0.7,1-1.5,1.1-2.3l0.7,0.7C32.4,48,32.5,49.3,31.8,50.2z M26.2,48.8c-0.4,0-0.9-0.2-1.2-0.5
	l0,0c-0.7-0.7-0.7-1.7,0-2.4l0.9-0.9c0.3-0.3,0.8-0.5,1.2-0.5s0.9,0.2,1.2,0.5l0,0c0.7,0.7,0.7,1.7,0,2.4l-0.9,0.9
	C27.1,48.6,26.6,48.8,26.2,48.8z M23.3,44.4c-0.3,0.3-0.8,0.5-1.2,0.5c-0.4,0-0.9-0.2-1.2-0.5l0,0c-0.7-0.7-0.7-1.7,0-2.4l2.1-2
	c0.3-0.3,0.8-0.5,1.2-0.5s0.9,0.2,1.2,0.5l0,0c0.7,0.7,0.7,1.7,0,2.4L23.3,44.4z M19.2,40.5c-0.3,0.3-0.8,0.5-1.2,0.5
	c-0.4,0-0.9-0.2-1.2-0.5l0,0c-0.7-0.7-0.7-1.7,0-2.4l3.2-3.1c0.3-0.3,0.8-0.5,1.2-0.5s0.9,0.2,1.2,0.5l0,0c0.7,0.7,0.7,1.7,0,2.4
	L19.2,40.5z M14.3,36.8c-0.4,0-0.9-0.2-1.2-0.5l0,0c-0.7-0.7-0.7-1.7,0-2.4l1.3-1.3c0.3-0.3,0.8-0.5,1.2-0.5c0.4,0,0.9,0.2,1.2,0.5
	l0,0c0.7,0.7,0.7,1.7,0,2.4l-1.3,1.3C15.2,36.7,14.7,36.8,14.3,36.8z M54.1,19.5L42.4,7.9C41.9,7.3,41.1,7,40.3,7
	c-0.6,0-1.2,0.2-1.7,0.6l-0.3,0.2l-15.1,2c-0.3,0-0.7,0.1-1,0.2l-0.5-0.5l-0.1-0.1c-0.5-0.5-1.2-0.7-1.9-0.7c-0.8,0-1.5,0.3-2.1,0.9
	L5.9,21.2c-1.1,1-1.2,2.7-0.3,3.9l0.1,0.1l5,5.5c0.2,0.7,0.4,1.4,0.7,2.1c-1.2,1.4-1.1,3.6,0.2,5h0l0,0c0.7,0.7,1.6,1.1,2.6,1.1
	c0,0.1,0,0.3,0,0.5c0,1,0.4,1.9,1.1,2.6l0,0v0C16,42.6,17,43,17.9,43c0.1,0,0.2,0,0.3,0l0,0l0,0.1c0,1,0.4,1.9,1.1,2.6l0,0l0,0
	c0.7,0.7,1.6,1.1,2.6,1.1h0l0.3,0.3c0.1,0.9,0.4,1.8,1.1,2.5l0,0l0,0c0.7,0.7,1.5,1,2.5,1.1l1,1c0.8,0.8,1.9,1.2,3,1.2
	c1.3,0,2.5-0.6,3.3-1.6c0.4-0.6,0.7-1.2,0.8-1.9l0.6,0.6c0.8,0.8,1.9,1.3,3.1,1.3c0.9,0,1.9-0.3,2.6-0.9c0.8-0.6,1.4-1.6,1.6-2.6
	c0.8,0.7,1.8,1,2.9,1c0.9,0,1.9-0.3,2.6-0.9c1-0.7,1.5-1.9,1.6-3.1c0.1-1.1-0.3-2.2-1.1-3.1c0.7-0.1,1.3-0.4,1.9-0.8
	c1-0.7,1.5-1.9,1.6-3.1c0.1-1.2-0.4-2.4-1.2-3.2l-1.6-1.6l0.2-0.2c3-3.7,4.6-6.5,5.2-9c0-0.1,0.1-0.2,0.1-0.3l0.3-0.8
	C55.3,21.9,55.1,20.4,54.1,19.5z"/>
</svg>
