<?xml version="1.0" encoding="utf-8"?>
<!-- Generator: Adobe Illustrator 24.0.1, SVG Export Plug-In . SVG Version: 6.00 Build 0)  -->
<svg version="1.1" id="Capa_1" xmlns="http://www.w3.org/2000/svg" xmlns:xlink="http://www.w3.org/1999/xlink" x="0px" y="0px"
	 viewBox="0 0 60 60" style="enable-background:new 0 0 60 60;" xml:space="preserve">
<style type="text/css">
	.st0{fill-rule:evenodd;clip-rule:evenodd;fill:#FFFFFF;}
</style>
<g>
	<path class="st0" d="M22.2,31.3c0.2-0.3,0.6-0.4,1-0.4c0.4,0,0.7,0.2,1,0.4c0.3,0.2,0.4,0.6,0.4,1c0,0.4-0.2,0.8-0.4,1
		s-0.6,0.4-1,0.4c-0.4,0-0.8-0.2-1-0.4c-0.3-0.3-0.4-0.6-0.4-1C21.8,31.9,22,31.5,22.2,31.3z M20.2,35.4L20.2,35.4
		c-0.8-0.8-1.2-1.8-1.2-3.1c0-1.2,0.5-2.3,1.2-3.1c0.8-0.8,1.9-1.2,3.1-1.2c1.2,0,2.2,0.4,3.1,1.2c0.8,0.8,1.2,1.9,1.2,3.1
		c0,1.2-0.5,2.3-1.2,3.1c-0.8,0.8-1.9,1.3-3.1,1.3C22.1,36.6,21,36.2,20.2,35.4z M8.2,49.4L8.2,49.4h30.4v2c0,0.9-0.4,1.7-1,2.2
		c-0.6,0.6-1.4,0.9-2.2,0.9H11.1c-0.9,0-1.7-0.3-2.3-0.9c-0.6-0.6-0.9-1.4-0.9-2.2v-2H8.2z M14.3,45.6L14.3,45.6v0.9H7.9v-38
		c0-0.8,0.4-1.6,0.9-2.2c0.6-0.6,1.4-0.9,2.3-0.9h24.3c0.9,0,1.7,0.4,2.2,0.9c0.6,0.6,1,1.4,1,2.2c0,0.4,0.2,0.8,0.4,1
		c0.3,0.3,0.6,0.4,1,0.4c0.4,0,0.8-0.2,1-0.4c0.2-0.2,0.4-0.6,0.4-1c0-1.6-0.7-3.2-1.8-4.3c-1.1-1.1-2.6-1.8-4.3-1.8H11.1
		c-1.7,0-3.2,0.7-4.3,1.8C5.7,5.4,5,6.9,5,8.6v42.9c0,1.6,0.7,3.2,1.8,4.3c1.1,1.1,2.6,1.8,4.3,1.8h24.3c1.7,0,3.2-0.7,4.3-1.8
		c1.1-1.1,1.8-2.6,1.8-4.3V38.7c0-0.4-0.2-0.8-0.4-1c-0.3-0.2-0.6-0.4-1-0.4c-0.4,0-0.7,0.2-1,0.4c-0.2,0.3-0.4,0.6-0.4,1v7.8h-6.4
		v-0.9c0-1.7-0.6-3.2-1.8-4.3c-1.1-1.1-2.6-1.8-4.3-1.8h-5.8c-1.6,0-3.2,0.7-4.3,1.8C15,42.4,14.3,44,14.3,45.6z M36.1,17L36.1,17
		c0.1,0,0.2,0,0.4,0h12.7c0.2,0,0.4,0.1,0.6,0.2c0.2,0.2,0.3,0.4,0.3,0.6v3.5c0,0.3,0.1,0.6,0.2,0.8c0.1,0.2,0.3,0.4,0.6,0.5
		c0.2,0.1,0.5,0.1,0.8,0.1c0.3,0,0.5-0.2,0.7-0.3l4.6-3.9v9.2l-4.7-3.5C52.3,24.1,52,24,51.8,24c-0.3,0-0.5,0-0.8,0.1
		c-0.2,0.2-0.4,0.3-0.6,0.6c-0.1,0.2-0.2,0.4-0.2,0.7v2.9c0,0.3-0.1,0.5-0.3,0.6c-0.2,0.2-0.4,0.2-0.6,0.2H36.6
		c-0.2,0-0.5-0.1-0.6-0.2c-0.2-0.2-0.2-0.4-0.2-0.6l-0.1-11l0.2-0.1C35.8,17.1,35.9,17,36.1,17z M58.1,31.9L58.1,31.9
		c0.2,0,0.3,0,0.4,0s0.2,0,0.4,0c0.1,0,0.2-0.1,0.3-0.1c0.3-0.1,0.5-0.3,0.6-0.5c0.1-0.2,0.2-0.5,0.2-0.8V15.5
		c0-0.3-0.1-0.5-0.2-0.8c-0.1-0.2-0.3-0.4-0.6-0.5c-0.3-0.1-0.5-0.2-0.8-0.1c-0.3,0-0.5,0.1-0.7,0.3l-4.6,3.8l0-0.6
		c0-1-0.5-1.9-1.2-2.5s-1.6-1-2.6-1H36.6c-1.2,0-2.1,0.3-2.7,0.8c-0.7,0.6-1,1.5-1,2.3v11c0,1,0.4,2,1.1,2.7
		c0.7,0.7,1.6,1.1,2.7,1.1h12.7c0.9,0,1.8-0.3,2.5-0.9c0.7-0.6,1.1-1.4,1.2-2.3l0.1-0.5l4.6,3.5C57.8,31.8,58,31.9,58.1,31.9z
		 M29.3,45.6L29.3,45.6v0.9H17.2v-0.9c0-0.9,0.4-1.7,0.9-2.3c0.6-0.6,1.4-0.9,2.2-0.9h5.8c0.9,0,1.7,0.4,2.3,0.9
		C29,44,29.3,44.8,29.3,45.6z"/>
</g>
</svg>
