<?xml version="1.0" encoding="utf-8"?>
<!-- Generator: Adobe Illustrator 24.0.1, SVG Export Plug-In . SVG Version: 6.00 Build 0)  -->
<svg version="1.1" id="Capa_1" xmlns="http://www.w3.org/2000/svg" xmlns:xlink="http://www.w3.org/1999/xlink" x="0px" y="0px"
	 viewBox="0 0 60 60" style="enable-background:new 0 0 60 60;" xml:space="preserve">
<style type="text/css">
	.st0{fill-rule:evenodd;clip-rule:evenodd;fill:#FFFFFF;}
</style>
<g>
	<path class="st0" d="M51,0c0.6,0,1.1,0.1,1.7,0.2c0.6,0.1,1.1,0.3,1.7,0.5C55,0.9,55.5,1.2,56,1.5c0.5,0.3,1,0.7,1.4,1.1
		C57.8,3,58.2,3.5,58.5,4c0.4,0.5,0.6,1,0.8,1.6c0.2,0.5,0.4,1.1,0.5,1.7S60,8.4,60,9v23.6c0,0.1,0,0.3,0,0.4
		c-0.1,0.1-0.1,0.3-0.1,0.3c-0.1,0.2-0.1,0.3-0.2,0.4c-0.1,0.1-0.1,0.2-0.2,0.3c-0.1,0.1-0.2,0.2-0.3,0.3c-0.1,0.1-0.2,0.1-0.3,0.2
		c-0.2,0-0.3,0.1-0.4,0.1c-0.1,0-0.3,0-0.4,0s-0.3,0-0.4,0c-0.1-0.1-0.2-0.1-0.3-0.1c-0.1-0.1-0.3-0.1-0.3-0.2
		c-0.1-0.1-0.2-0.2-0.3-0.3c-0.1-0.1-0.2-0.2-0.2-0.3c-0.1-0.1-0.1-0.2-0.2-0.4c0-0.1-0.1-0.2-0.1-0.3c-0.1-0.1-0.1-0.3-0.1-0.4V9
		c0-0.4-0.1-0.7-0.1-1c-0.1-0.4-0.2-0.7-0.3-1c-0.1-0.4-0.3-0.7-0.5-0.9c-0.2-0.3-0.4-0.6-0.7-0.8C54.5,5,54.3,4.7,54,4.5
		c-0.3-0.2-0.6-0.3-0.9-0.5c-0.3-0.1-0.7-0.3-1-0.3c-0.3-0.1-0.7-0.1-1-0.1H9c-0.4,0-0.7,0.1-1,0.1C7.6,3.8,7.3,4,7,4.1
		C6.7,4.2,6.3,4.4,6,4.5C5.7,4.7,5.5,5,5.2,5.2C5,5.5,4.7,5.7,4.5,6C4.4,6.3,4.2,6.6,4.1,7C4,7.3,3.9,7.6,3.7,8
		C3.7,8.3,3.6,8.6,3.6,9v42c0,0.3,0.1,0.7,0.1,1c0.1,0.4,0.2,0.7,0.3,1c0.2,0.3,0.3,0.6,0.5,0.9c0.2,0.3,0.5,0.6,0.7,0.8
		C5.5,55,5.7,55.3,6,55.5c0.3,0.2,0.6,0.4,0.9,0.5c0.3,0.2,0.6,0.3,1,0.3c0.3,0.1,0.7,0.1,1,0.1h24.6c0.2,0,0.3,0,0.4,0.1
		c0.2,0,0.3,0.1,0.4,0.1c0.1,0.1,0.2,0.2,0.3,0.2c0.1,0.1,0.2,0.1,0.3,0.2C35,57,35,57,35.1,57.2c0.1,0.1,0.1,0.2,0.2,0.3
		c0.1,0.1,0.1,0.2,0.1,0.3c0.1,0.1,0.1,0.3,0.1,0.4s0,0.3-0.1,0.4c-0.1,0.1-0.1,0.2-0.1,0.4c-0.1,0.1-0.1,0.2-0.2,0.3
		c-0.1,0.1-0.2,0.2-0.2,0.3c-0.1,0.1-0.2,0.2-0.3,0.2c-0.1,0.1-0.2,0.2-0.3,0.2c-0.1,0.1-0.2,0.1-0.4,0.1c-0.1,0-0.2,0-0.4,0H9
		c-0.6,0-1.2-0.1-1.8-0.2s-1.1-0.3-1.7-0.5C5,59.1,4.5,58.8,4,58.5c-0.5-0.3-0.9-0.7-1.4-1.1C2.2,57,1.8,56.5,1.5,56
		c-0.3-0.5-0.6-1-0.8-1.6c-0.2-0.5-0.4-1.1-0.5-1.7C0.1,52.2,0,51.6,0,51V9c0-1.2,0.2-2.4,0.7-3.4c0.5-1.1,1.1-2.1,2-2.9
		C3.1,2.2,3.5,1.8,4,1.5c0.5-0.3,1-0.6,1.6-0.8c0.5-0.2,1.1-0.4,1.7-0.5S8.4,0,9,0H51z M51.6,51.2L51.6,51.2c-0.3,0.3-0.6,0.6-1,0.8
		c-0.4,0.2-0.7,0.4-1.1,0.6c-0.4,0.2-0.8,0.3-1.2,0.4c-0.4,0.1-0.8,0.1-1.3,0.1c-0.4,0-0.8-0.1-1.2-0.1c-0.4-0.1-0.8-0.2-1.2-0.4
		c-0.4-0.2-0.8-0.4-1.1-0.6c-0.4-0.3-0.7-0.5-1-0.8s-0.6-0.6-0.8-1c-0.2-0.4-0.4-0.7-0.6-1.1c-0.2-0.4-0.3-0.8-0.4-1.2
		c-0.1-0.4-0.2-0.8-0.2-1.3c0-0.4,0.1-0.8,0.2-1.2c0.1-0.4,0.2-0.8,0.4-1.2c0.2-0.4,0.4-0.8,0.6-1.1c0.3-0.4,0.5-0.7,0.8-1
		s0.6-0.6,1-0.8c0.4-0.2,0.7-0.4,1.1-0.6c0.4-0.2,0.8-0.3,1.2-0.4c0.4-0.1,0.8-0.1,1.2-0.1c0.5,0,0.9,0.1,1.3,0.1
		c0.4,0.1,0.8,0.3,1.2,0.4c0.4,0.2,0.8,0.4,1.1,0.6c0.4,0.3,0.7,0.5,1,0.8s0.6,0.6,0.8,1c0.2,0.4,0.4,0.7,0.6,1.1
		c0.2,0.4,0.3,0.8,0.4,1.2c0.1,0.4,0.2,0.8,0.2,1.2c0,0.5-0.1,0.9-0.2,1.3c-0.1,0.4-0.2,0.8-0.4,1.2c-0.2,0.4-0.4,0.8-0.6,1.1
		C52.1,50.6,51.9,50.9,51.6,51.2z M60,58.2L60,58.2c0-0.1,0-0.3,0-0.4c-0.1-0.1-0.1-0.3-0.1-0.3c-0.1-0.1-0.1-0.3-0.2-0.3
		c-0.1-0.2-0.1-0.2-0.2-0.3l-4.3-4.3l0.3-0.4c0.1-0.2,0.3-0.4,0.4-0.7c0.1-0.2,0.3-0.4,0.4-0.6s0.2-0.5,0.3-0.7
		c0.1-0.3,0.2-0.5,0.3-0.7c0.1-0.3,0.2-0.5,0.2-0.7c0.1-0.2,0.1-0.5,0.1-0.7c0.1-0.3,0.1-0.5,0.1-0.7c0-0.3,0-0.5,0-0.8
		c0-0.6-0.1-1.3-0.2-2c-0.2-0.6-0.4-1.3-0.6-1.9c-0.3-0.6-0.6-1.2-1-1.8c-0.4-0.6-0.8-1.1-1.2-1.6c-0.5-0.5-1-0.9-1.6-1.2
		c-0.5-0.4-1.1-0.7-1.8-1c-0.6-0.3-1.2-0.4-1.9-0.6c-0.7-0.1-1.3-0.2-2-0.2c-0.7,0-1.3,0.1-2,0.2c-0.6,0.2-1.3,0.3-1.9,0.6
		c-0.6,0.3-1.2,0.6-1.8,1c-0.6,0.4-1.1,0.8-1.6,1.2c-0.5,0.5-0.9,1-1.2,1.6c-0.4,0.5-0.7,1.1-1,1.8c-0.2,0.6-0.4,1.2-0.6,1.9
		c-0.1,0.7-0.2,1.4-0.2,2c0,0.7,0.1,1.4,0.2,2c0.2,0.6,0.4,1.3,0.6,1.9c0.3,0.6,0.6,1.2,1,1.8c0.4,0.6,0.8,1.1,1.2,1.6
		c0.5,0.5,1,0.9,1.6,1.3c0.5,0.3,1.1,0.6,1.8,0.9c0.6,0.3,1.2,0.5,1.9,0.6c0.7,0.1,1.3,0.2,2,0.2c0.3,0,0.5,0,0.7,0
		c0.2,0,0.4-0.1,0.7-0.1c0.2-0.1,0.4-0.1,0.7-0.1c0.2-0.1,0.4-0.1,0.7-0.2c0.2-0.1,0.4-0.1,0.6-0.2c0.2-0.1,0.4-0.1,0.6-0.2
		s0.4-0.2,0.6-0.3s0.4-0.2,0.6-0.3l0.4-0.2l4.3,4.3l0.2,0.1l0.2,0.2l0.2,0.1l0.1,0.1l0.2,0.1l0.2,0.1H58h0.2h0.2h0.2l0.2-0.1
		l0.2-0.1l0.2-0.1l0.2-0.1l0.2-0.1l0.1-0.1c0.1-0.1,0.2-0.2,0.2-0.3c0.1-0.1,0.2-0.2,0.2-0.3c0.1-0.2,0.1-0.3,0.1-0.4
		C60,58.4,60,58.3,60,58.2z M16.1,13.5L16.1,13.5h-2.3c-0.2,0-0.3,0-0.4,0.1c-0.2,0-0.3,0.1-0.4,0.1s-0.2,0.1-0.3,0.2
		s-0.2,0.2-0.3,0.2c-0.2,0.2-0.3,0.4-0.4,0.6C12,14.7,12,14.8,12,14.9c-0.1,0.2-0.1,0.3-0.1,0.4c0,0.2,0,0.3,0.1,0.4
		s0.1,0.3,0.1,0.4s0.1,0.2,0.2,0.3c0.1,0.1,0.2,0.2,0.2,0.3c0.1,0.1,0.2,0.2,0.3,0.3c0.1,0.1,0.2,0.1,0.3,0.2s0.2,0.1,0.4,0.1
		c0.1,0,0.2,0.1,0.4,0.1h2.3c0.2,0,0.3-0.1,0.4-0.1c0.2,0,0.3-0.1,0.4-0.1s0.2-0.1,0.3-0.2c0.1-0.1,0.2-0.2,0.3-0.3
		c0.1-0.1,0.2-0.2,0.3-0.3s0.1-0.2,0.2-0.3s0.1-0.3,0.1-0.4s0.1-0.2,0.1-0.4c0-0.1-0.1-0.2-0.1-0.4c0-0.1-0.1-0.2-0.1-0.3
		s-0.1-0.2-0.2-0.3s-0.2-0.2-0.3-0.3c-0.1-0.1-0.2-0.2-0.3-0.2s-0.2-0.1-0.3-0.2s-0.2-0.1-0.4-0.1C16.4,13.5,16.3,13.5,16.1,13.5z
		 M16.1,27.8L16.1,27.8h-2.3c-0.2,0-0.3,0-0.4,0c-0.2,0.1-0.3,0.1-0.4,0.1s-0.2,0.1-0.3,0.2c-0.1,0.1-0.2,0.2-0.3,0.3
		c-0.1,0.1-0.1,0.2-0.2,0.3c-0.1,0.1-0.1,0.2-0.2,0.3S12,29.1,12,29.3c-0.1,0.1-0.1,0.2-0.1,0.4c0,0.1,0,0.2,0.1,0.4
		c0.1,0.1,0.1,0.2,0.1,0.3s0.1,0.2,0.2,0.3c0.1,0.1,0.2,0.2,0.2,0.3c0.1,0.1,0.2,0.2,0.3,0.2s0.2,0.1,0.3,0.2s0.2,0.1,0.4,0.1
		c0.1,0.1,0.2,0.1,0.4,0.1h2.3c0.2,0,0.3,0,0.4-0.1c0.2,0,0.3-0.1,0.4-0.1s0.2-0.1,0.3-0.2s0.2-0.2,0.3-0.2c0.1-0.1,0.2-0.2,0.3-0.3
		s0.1-0.2,0.2-0.3S18,30.1,18,30c0-0.2,0.1-0.3,0.1-0.4c0-0.2-0.1-0.3-0.1-0.4s-0.1-0.3-0.1-0.4s-0.1-0.2-0.2-0.3s-0.2-0.2-0.3-0.3
		c-0.1-0.1-0.2-0.2-0.3-0.3C17.1,28,17,28,16.9,27.9s-0.2-0.1-0.4-0.1C16.4,27.8,16.3,27.8,16.1,27.8z M16.1,43L16.1,43h-2.3
		c-0.2,0-0.3,0-0.4,0c-0.2,0.1-0.3,0.1-0.4,0.2c-0.1,0-0.2,0.1-0.3,0.2c-0.1,0.1-0.2,0.2-0.3,0.2c-0.1,0.1-0.1,0.2-0.2,0.3
		c-0.1,0.2-0.1,0.2-0.2,0.4C12,44.2,12,44.3,12,44.4s-0.1,0.3-0.1,0.4c0,0.2,0,0.3,0.1,0.4s0.1,0.3,0.1,0.4s0.1,0.2,0.2,0.3
		c0.1,0.1,0.2,0.2,0.2,0.3c0.1,0.1,0.2,0.2,0.3,0.2c0.1,0.1,0.2,0.2,0.3,0.2c0.1,0,0.2,0.1,0.4,0.1c0.1,0,0.2,0.1,0.4,0.1h2.3
		c0.2,0,0.3-0.1,0.4-0.1c0.2-0.1,0.3-0.1,0.4-0.1c0.1-0.1,0.2-0.1,0.3-0.2c0.1-0.1,0.2-0.1,0.3-0.2c0.2-0.2,0.3-0.4,0.4-0.6
		c0.1-0.1,0.1-0.3,0.1-0.4S18,45,18,44.8c0-0.1-0.1-0.3-0.1-0.4s-0.1-0.2-0.1-0.3c-0.1-0.2-0.1-0.2-0.2-0.4
		c-0.1-0.1-0.2-0.2-0.3-0.3c-0.1-0.1-0.2-0.2-0.3-0.2c-0.1-0.1-0.2-0.2-0.3-0.2C16.8,43,16.7,43,16.5,43C16.4,43,16.3,43,16.1,43z
		 M25.7,17.2L25.7,17.2h20.6c0.1,0,0.2-0.1,0.3-0.1c0.2,0,0.3-0.1,0.4-0.1s0.2-0.1,0.3-0.2c0.1-0.1,0.2-0.2,0.3-0.3
		c0.1-0.1,0.2-0.2,0.2-0.3c0.1-0.1,0.2-0.2,0.2-0.3c0.1-0.1,0.1-0.3,0.1-0.4c0.1-0.1,0.1-0.2,0.1-0.4c0-0.1,0-0.2-0.1-0.4
		c0-0.1-0.1-0.2-0.1-0.3c0-0.1-0.1-0.2-0.2-0.3c-0.1-0.1-0.2-0.2-0.2-0.3c-0.1-0.1-0.2-0.2-0.3-0.2s-0.2-0.1-0.3-0.2
		s-0.2-0.1-0.4-0.1c-0.1-0.1-0.2-0.1-0.3-0.1H25.7c-0.1,0-0.3,0-0.4,0.1c-0.1,0-0.2,0.1-0.3,0.1c-0.2,0.1-0.3,0.1-0.4,0.2
		c-0.1,0.1-0.2,0.2-0.3,0.2c-0.1,0.1-0.2,0.2-0.3,0.3c-0.1,0.1-0.1,0.2-0.2,0.3c0,0.1-0.1,0.2-0.1,0.3c0,0.2,0,0.3,0,0.4
		c0,0.2,0,0.3,0,0.4c0.1,0.1,0.1,0.3,0.1,0.4c0.1,0.1,0.1,0.2,0.2,0.3c0.1,0.1,0.2,0.2,0.3,0.3c0.2,0.2,0.4,0.3,0.6,0.4
		C25.2,17.1,25.4,17.2,25.7,17.2z M48.1,29.7L48.1,29.7c0-0.2,0-0.3-0.1-0.4c0-0.1-0.1-0.3-0.1-0.4c0-0.1-0.1-0.2-0.2-0.3
		c-0.1-0.1-0.2-0.2-0.2-0.3c-0.1-0.1-0.2-0.2-0.3-0.3C47.1,28,47,28,46.9,27.9s-0.2-0.1-0.4-0.1c-0.1,0-0.2,0-0.3,0H25.7
		c-0.1,0-0.3,0-0.4,0c-0.1,0.1-0.2,0.1-0.3,0.1c-0.2,0.1-0.3,0.1-0.4,0.2c-0.1,0.1-0.2,0.2-0.3,0.3c-0.1,0.1-0.2,0.2-0.3,0.3
		c-0.1,0.1-0.1,0.2-0.2,0.3c0,0.1-0.1,0.2-0.1,0.4c0,0.1,0,0.2,0,0.4c0,0.1,0,0.2,0,0.4c0.1,0.1,0.1,0.2,0.1,0.3
		c0.1,0.1,0.1,0.2,0.2,0.3c0.1,0.1,0.1,0.2,0.2,0.3c0.1,0.1,0.2,0.2,0.3,0.2s0.2,0.1,0.4,0.2c0.1,0.1,0.2,0.1,0.3,0.1
		c0.1,0.1,0.3,0.1,0.4,0.1h20.6c0.1,0,0.2,0,0.3-0.1c0.2,0,0.3-0.1,0.4-0.1s0.2-0.1,0.3-0.2s0.2-0.2,0.3-0.2
		c0.1-0.1,0.2-0.2,0.2-0.3c0.1-0.1,0.2-0.2,0.2-0.3C48,30.2,48,30.1,48,30C48.1,29.9,48.1,29.8,48.1,29.7z M30.3,43.5L30.3,43.5
		c-0.1-0.1-0.2-0.2-0.3-0.2c-0.1-0.1-0.2-0.2-0.3-0.2C29.7,43,29.5,43,29.4,43c-0.1,0-0.2,0-0.4,0h-3.3c-0.1,0-0.3,0-0.4,0
		C25.2,43,25.1,43,25,43.1c-0.2,0-0.3,0.1-0.4,0.2c-0.1,0.1-0.2,0.2-0.3,0.2c-0.1,0.1-0.2,0.2-0.3,0.3C24.1,43.9,24,44,24,44.1
		c0,0.1-0.1,0.2-0.1,0.3c0,0.1,0,0.3,0,0.4c0,0.2,0,0.3,0,0.4c0.1,0.1,0.1,0.3,0.1,0.4c0.1,0.1,0.1,0.2,0.2,0.3
		c0.1,0.1,0.2,0.2,0.3,0.3s0.2,0.2,0.3,0.2c0.1,0.1,0.2,0.2,0.4,0.2c0.1,0,0.2,0.1,0.3,0.1c0.1,0,0.3,0.1,0.4,0.1H29
		c0.2,0,0.3-0.1,0.4-0.1c0.1-0.1,0.3-0.1,0.4-0.1c0.1-0.1,0.2-0.1,0.3-0.2c0.1-0.1,0.2-0.1,0.3-0.2s0.2-0.2,0.3-0.3
		c0.1-0.1,0.1-0.2,0.2-0.3s0.1-0.3,0.1-0.4s0.1-0.2,0.1-0.4c0-0.1-0.1-0.3-0.1-0.4s-0.1-0.2-0.1-0.3c-0.1-0.2-0.1-0.3-0.2-0.4
		C30.5,43.7,30.4,43.6,30.3,43.5z"/>
</g>
</svg>
