<?xml version="1.0" encoding="utf-8"?>
<!-- Generator: Adobe Illustrator 24.0.1, SVG Export Plug-In . SVG Version: 6.00 Build 0)  -->
<svg version="1.1" id="Capa_1" xmlns="http://www.w3.org/2000/svg" xmlns:xlink="http://www.w3.org/1999/xlink" x="0px" y="0px"
	 viewBox="0 0 60 60" style="enable-background:new 0 0 60 60;" xml:space="preserve">
<style type="text/css">
	.st0{fill-rule:evenodd;clip-rule:evenodd;fill:#CFE8F3;}
</style>
<path class="st0" d="M30.89,48.34c0,1.44,0.37,2.81,1.02,4c0.57-1.02,1.59-1.78,2.79-1.99l0.35-0.07c-0.09-0.35-0.15-0.73-0.15-1.11
	v-1.02c0-2.4,1.97-4.37,4.37-4.37c2.4,0,4.36,1.97,4.36,4.37v1.02c0,0.38-0.05,0.76-0.14,1.11l0.34,0.07
	c1.22,0.22,2.23,0.98,2.81,1.99c0.65-1.19,1.02-2.56,1.02-4c0-4.64-3.77-8.4-8.38-8.4C34.65,39.94,30.89,43.7,30.89,48.34z
	 M41.36,49.16v-1.02c0-1.15-0.94-2.09-2.09-2.09s-2.1,0.94-2.1,2.09v1.02c0,1.15,0.95,2.09,2.1,2.09S41.36,50.32,41.36,49.16z
	 M33.63,54.54c1.49,1.36,3.47,2.2,5.64,2.2s4.15-0.84,5.64-2.2v-0.16c0-0.88-0.62-1.64-1.49-1.8l-1.18-0.22
	c-0.77,0.73-1.83,1.18-2.97,1.18c-1.15,0-2.2-0.45-2.97-1.18l-1.18,0.22c-0.87,0.16-1.49,0.92-1.49,1.8V54.54z M24.92,32.38
	l7.68,7.65c1.83-1.48,4.15-2.37,6.68-2.37c5.87,0,10.65,4.79,10.65,10.68c0,5.87-4.78,10.66-10.65,10.66s-10.65-4.79-10.65-10.66
	c0-2.54,0.88-4.87,2.37-6.7L23.32,34c-0.45-0.45-0.45-1.17-0.01-1.61C23.75,31.95,24.47,31.93,24.92,32.38z M21.32,29.29
	c0.3,0,0.6,0.11,0.8,0.33c0.22,0.22,0.34,0.5,0.34,0.8s-0.12,0.6-0.34,0.8c-0.2,0.22-0.5,0.34-0.8,0.34c-0.3,0-0.58-0.12-0.8-0.34
	c-0.2-0.2-0.33-0.5-0.33-0.8s0.12-0.58,0.33-0.8C20.74,29.4,21.03,29.29,21.32,29.29z M11.65,12.06c-4.63,0-8.38,3.77-8.38,8.4
	c0,1.45,0.37,2.82,1.02,4c0.58-1.02,1.59-1.76,2.79-1.99l0.35-0.07c-0.09-0.35-0.15-0.72-0.15-1.11v-1c0-2.41,1.97-4.37,4.37-4.37
	s4.36,1.95,4.36,4.37v1c0,0.39-0.05,0.76-0.14,1.11l0.35,0.07c1.21,0.23,2.21,0.98,2.79,1.99c0.65-1.18,1.02-2.55,1.02-4
	C20.03,15.83,16.28,12.06,11.65,12.06z M13.74,21.28v-1c0-1.15-0.94-2.1-2.09-2.1s-2.1,0.95-2.1,2.1v1c0,1.17,0.95,2.1,2.1,2.1
	S13.74,22.45,13.74,21.28z M6.01,26.67c1.49,1.36,3.47,2.18,5.64,2.18s4.15-0.83,5.64-2.18v-0.18c0-0.88-0.62-1.63-1.49-1.79
	l-1.18-0.22c-0.77,0.72-1.82,1.17-2.97,1.17s-2.2-0.45-2.97-1.17L7.5,24.7c-0.87,0.16-1.49,0.91-1.49,1.79V26.67z M34.81,15.2
	l-12.66,3.51c0.09,0.57,0.15,1.15,0.15,1.74c0,5.89-4.78,10.68-10.65,10.68S1,26.34,1,20.46C1,14.58,5.78,9.79,11.65,9.79
	c4.49,0,8.33,2.79,9.9,6.74l12.64-3.51c0.6-0.16,1.22,0.19,1.4,0.79C35.76,14.42,35.41,15.04,34.81,15.2z M38.61,14.12
	c-0.3,0-0.6-0.12-0.8-0.34c-0.22-0.22-0.34-0.5-0.34-0.8c0-0.3,0.12-0.6,0.34-0.8c0.2-0.22,0.5-0.34,0.8-0.34s0.58,0.12,0.8,0.34
	c0.2,0.2,0.33,0.5,0.33,0.8c0,0.3-0.12,0.58-0.33,0.8C39.19,14,38.91,14.12,38.61,14.12z M50.62,3.27c-3.36,0-6.12,2.75-6.12,6.13
	c0,0.9,0.2,1.75,0.54,2.51c0.49-0.64,1.21-1.09,2.05-1.25c-0.04-0.2-0.07-0.42-0.07-0.64V9.26c0-1.99,1.61-3.61,3.6-3.61
	c1.98,0,3.6,1.61,3.6,3.61v0.76c0,0.22-0.03,0.43-0.05,0.64c0.83,0.16,1.55,0.61,2.04,1.25c0.35-0.76,0.54-1.61,0.54-2.51
	C56.73,6.02,53.99,3.27,50.62,3.27z M51.95,10.02V9.26c0-0.73-0.6-1.33-1.33-1.33s-1.33,0.6-1.33,1.33v0.76
	c0,0.73,0.6,1.33,1.33,1.33S51.95,10.75,51.95,10.02z M46.59,14c1.07,0.95,2.48,1.53,4.03,1.53c1.55,0,2.96-0.58,4.03-1.53l0,0
	c0-0.54-0.38-1-0.91-1.1l-0.77-0.15c-0.62,0.54-1.45,0.88-2.35,0.88c-0.9,0-1.71-0.34-2.35-0.88l-0.76,0.15
	C46.97,12.99,46.59,13.45,46.59,14L46.59,14z M50.62,17.8c-4.63,0-8.38-3.77-8.38-8.4S45.99,1,50.62,1S59,4.77,59,9.4
	S55.24,17.8,50.62,17.8z"/>
<g>
</g>
<g>
</g>
<g>
</g>
<g>
</g>
<g>
</g>
<g>
</g>
<g>
</g>
<g>
</g>
<g>
</g>
<g>
</g>
<g>
</g>
<g>
</g>
<g>
</g>
<g>
</g>
<g>
</g>
</svg>
