<?xml version="1.0" encoding="utf-8"?>
<!-- Generator: Adobe Illustrator 24.0.1, SVG Export Plug-In . SVG Version: 6.00 Build 0)  -->
<svg version="1.1" id="Capa_1" xmlns="http://www.w3.org/2000/svg" xmlns:xlink="http://www.w3.org/1999/xlink" x="0px" y="0px"
	 viewBox="0 0 60 60" style="enable-background:new 0 0 60 60;" xml:space="preserve">
<style type="text/css">
	.st0{fill-rule:evenodd;clip-rule:evenodd;fill:#0083C1;}
</style>
<g>
	<path class="st0" d="M30,58.8c-16,0-29-13-29-29s13-29,29-29s29,13,29,29S46,58.8,30,58.8z M30,1.2C14.2,1.2,1.4,14.1,1.4,29.8
		S14.2,58.5,30,58.5s28.6-12.8,28.6-28.6S45.8,1.2,30,1.2z"/>
	<path class="st0" d="M30,59.2c-16,0-29-13-29-29c0-0.8,0.7-1.5,1.5-1.5S4,29.4,4,30.2c0,14.3,11.7,26,26,26s26-11.7,26-26
		s-11.7-26-26-26c-0.8,0-1.5-0.7-1.5-1.5s0.7-1.5,1.5-1.5c16,0,29,13,29,29S46,59.2,30,59.2z"/>
	<path class="st0" d="M35,37.4h-2.4V32H35V37.4z M31.2,37.4h-2.4V27.2h2.4V37.4z M27.4,37.4H25V20.4h2.4V37.4z M38.1,23.6h-6.6v-5.7
		h-9.6v22h16.2V23.6z M33.1,18.5V22h3.7L33.1,18.5z M20.3,41.4V16.3h12.8l6.5,6.3v18.9H20.3z"/>
</g>
</svg>
