<?xml version="1.0" encoding="UTF-8"?>
<!DOCTYPE svg PUBLIC "-//W3C//DTD SVG 1.1//EN" "http://www.w3.org/Graphics/SVG/1.1/DTD/svg11.dtd">
<!-- Creator: CorelDRAW X8 -->
<svg xmlns="http://www.w3.org/2000/svg" xml:space="preserve" width="32.8032mm" height="38.3646mm" version="1.1" style="shape-rendering:geometricPrecision; text-rendering:geometricPrecision; image-rendering:optimizeQuality; fill-rule:evenodd; clip-rule:evenodd"
viewBox="0 0 519 606"
 xmlns:xlink="http://www.w3.org/1999/xlink">
 <defs>
  <style type="text/css">
   <![CDATA[
    .fil0 {fill:#A91F8E}
    .fil1 {fill:white}
   ]]>
  </style>
 </defs>
 <g id="Capa_x0020_1">
  <metadata id="CorelCorpID_0Corel-Layer"/>
  <g id="_2571796642832">
   <g>
    <path class="fil0" d="M317 39c8,49 -13,108 19,142 28,30 97,20 144,19l0 259c0,20 -6,45 -24,49 -18,5 -22,-4 -30,13 -5,8 -2,18 4,23 9,9 43,9 65,-9 30,-25 23,-61 23,-105 0,-28 2,-247 -2,-256 -3,-6 -113,-115 -128,-130 -50,-50 -35,-43 -88,-43 -30,0 -164,-5 -188,6 -13,6 -26,18 -32,32 -6,14 -9,104 -5,120 6,19 33,19 37,-1 6,-40 -13,-101 14,-116 12,-7 171,-3 191,-3zm135 124l0 0c-105,2 -99,10 -96,-97l96 97z"/>
    <path class="fil0" d="M29 194c-37,12 -28,48 -28,89 0,38 0,75 41,76 29,1 216,3 230,-3 32,-12 25,-53 25,-89 0,-31 6,-73 -40,-75 -28,-1 -215,-2 -228,2z"/>
    <path class="fil1" d="M120 324c15,3 38,4 49,-3 14,-9 12,-26 12,-45 0,-33 2,-60 -61,-50l0 98z"/>
    <path class="fil1" d="M45 311l1 14 17 2 0 -41c31,2 48,-5 43,-39 -5,-26 -34,-23 -61,-21l0 85z"/>
    <path class="fil1" d="M197 324l17 2c3,-12 1,-28 1,-41l31 0 0 -17 -31 0 0 -26 37 1 1 -18 -56 0 0 99z"/>
    <path class="fil0" d="M140 309c28,0 23,-9 23,-47 -1,-22 -4,-19 -25,-20 0,15 -1,54 2,67z"/>
    <path class="fil0" d="M86 382c-17,9 -12,27 -12,58 0,40 -6,83 36,103 12,6 28,9 42,5 16,-5 21,-35 -10,-36 -24,-1 -25,1 -29,-22 -5,-25 3,-88 -3,-101 -4,-6 -14,-12 -24,-7z"/>
    <path class="fil0" d="M63 270c21,-1 30,0 23,-25l-23 -3 0 28z"/>
    <g>
     <g>
      <path class="fil0" d="M303 602l76 -80c6,-6 6,-15 0,-20 -5,-6 -14,-6 -19,0l-53 56 0 -139c0,-8 -6,-15 -14,-15 -4,0 -7,2 -9,5 -3,2 -4,6 -4,10l0 139 -54 -56c-5,-6 -14,-6 -19,0 -5,5 -5,14 0,20l77 80c5,6 13,6 19,0z"/>
     </g>
    </g>
    <path class="fil0" d="M276 422c0,-9 8,-16 17,-16 9,0 17,7 17,16l0 138c0,10 -8,17 -17,17 -9,0 -17,-7 -17,-17l0 -138z"/>
   </g>
  </g>
 </g>
</svg>
