<svg xmlns="http://www.w3.org/2000/svg" xmlns:xlink="http://www.w3.org/1999/xlink" x="0px" y="0px" viewBox="0 0 90 90" style="enable-background:new 0 0 90 90;" xml:space="preserve">
	<g>
		<path d="M64.56,61.52c-1.8,1.81-4.28,2.8-6.83,2.72H44.36c-0.89 0-1.65-0.72-1.72-1.61c-0.01-0.24,0-0.47,0-0.71 c0-0.43,0.16-0.84,0.44-1.16c0.32-0.36,0.79-0.57,1.28-0.57h3.39l1.31,1.32c0.17,0.17,0.4,0.27,0.63,0.27s0.44-0.09,0.61-0.27 c0.35-0.33,0.35-0.89,0-1.24l-13.91-14c-0.47-0.47-0.71-1.17-0.53-1.83c0.08-0.33,0.27-0.63,0.55-0.81 c0.33-0.25,0.73-0.35,1.13-0.29c0.45,0.04,0.87,0.27,1.19,0.59l9.6,9.67c0.17,0.17,0.4,0.25,0.61,0.25c0.23,0,0.45-0.08,0.63-0.25 c0.33-0.35,0.33-0.89,0-1.24l-4.4-4.43c-0.72-0.73-0.8-1.85-0.16-2.51c0.65-0.64,1.76-0.57,2.49,0.16l4.35,4.37 c0.16,0.17,0.39,0.25,0.61,0.25c0.23,0,0.44-0.08,0.61-0.25c0.35-0.35,0.35-0.89,0-1.24l-2.84-2.87c-0.15-0.15-0.25-0.29-0.35-0.45 c-0.17-0.32-0.27-0.67-0.25-1.01c0.01-0.39,0.16-0.76,0.44-1.04l0.09-0.09l0.03-0.03c0.29-0.23,0.65-0.33,1.05-0.32 c0.48,0.01,0.95,0.23,1.31,0.6l2.85,2.87c0.17,0.17,0.39,0.25,0.61,0.25c0.23,0,0.45-0.08,0.61-0.25c0.35-0.35,0.35-0.91,0-1.24 l-1.35-1.37c-0.36-0.36-0.57-0.83-0.6-1.32c-0.01-0.45,0.13-0.88,0.44-1.19c0.64-0.64,1.76-0.57,2.48,0.16l6.96,7.01 C68.15,52.03,68.15,57.91,64.56,61.52z M28.75,59.07V53.4h12.27L46,58.43h-1.49c-0.39,0-0.76,0.03-1.13,0.15 c-0.56,0.16-1.08,0.48-1.49,0.91c-0.45,0.47-0.77,1.07-0.91,1.72H30.87C29.69,61.2,28.75,60.24,28.75,59.07z M28.75,28v-2.11 c0-1.17,0.95-2.13,2.12-2.13h15.8c1.17,0,2.12,0.96,2.12,2.13V28H28.75z M65.8,47.17l-6.96-7.01c-1.41-1.41-3.63-1.49-4.96-0.16 c-0.44,0.45-0.75,1.01-0.87,1.64c-0.52-0.31-1.11-0.48-1.71-0.51c-0.27-0.01-0.52,0.01-0.77,0.05v-4.04h7.55 c0.48,0,0.87-0.4 0.87-0.88c0-0.49-0.39-0.88-0.87-0.88h-7.55v-9.49c0-2.15-1.73-3.89-3.87-3.89h-15.8C28.73,22,27,23.75,27,25.89 v6.2c0,0.48,0.39,0.88,0.87,0.88c0.49,0,0.88-0.4,0.88-0.88v-2.33h20.04v12.37c-0.43,0.44-0.71,1-0.84,1.6 c-1.36-0.81-3.08-0.67-4.17,0.44c-0.43,0.43-0.71,0.95-0.84,1.49l-2.97-2.99c-1.32-1.33-3.36-1.48-4.71-0.4 c-0.08,0.07-0.17,0.15-0.25,0.24c-1.32,1.33-1.25,3.56,0.16,4.99l4.11,4.13H28.75V39.15c0-0.49-0.39-0.88-0.88-0.88 c-0.48,0-0.87,0.39-0.87,0.88v19.92c0,2.15,1.73,3.89,3.87,3.89h10.05C41.15,64.67,42.6,66,44.36,66h13.69 c2.89,0,5.69-1.16,7.75-3.23C70.07,58.47,70.07,51.47,65.8,47.17z" />
		<path d="M38.76,58.04c-0.4,0-0.73-0.33-0.73-0.75c0-0.41,0.33-0.73,0.73-0.73c0.41,0,0.75,0.32,0.75,0.73 C39.51,57.71,39.17,58.04,38.76,58.04z M38.76,54.8c-1.36,0-2.48,1.12-2.48,2.49c0,1.37,1.12,2.49,2.48,2.49 c1.37,0,2.48-1.12,2.48-2.49C41.24,55.92,40.13,54.8,38.76,54.8z" />
		<path class="st0" d="M33.92,40.4c-0.35-0.35-0.89-0.35-1.24,0c-1.2,1.21-1.87,2.83-1.87,4.53c0,1.72,0.67,3.33,1.87,4.55 c0.17,0.17,0.4,0.25,0.61,0.25c0.23,0,0.45-0.08,0.63-0.25c0.33-0.35,0.33-0.89,0-1.24c-0.88-0.88-1.36-2.05-1.36-3.31 c0-1.24,0.48-2.41,1.36-3.29C34.25,41.29,34.25,40.75,33.92,40.4z" />
	</g>
</svg>