<?xml version="1.0" encoding="UTF-8"?>
<!DOCTYPE svg PUBLIC "-//W3C//DTD SVG 1.1//EN" "http://www.w3.org/Graphics/SVG/1.1/DTD/svg11.dtd">
<!-- Creator: CorelDRAW X8 -->
<svg xmlns="http://www.w3.org/2000/svg" xml:space="preserve" width="20.4233mm" height="22.356mm" version="1.1" style="shape-rendering:geometricPrecision; text-rendering:geometricPrecision; image-rendering:optimizeQuality; fill-rule:evenodd; clip-rule:evenodd"
viewBox="0 0 388 424"
 xmlns:xlink="http://www.w3.org/1999/xlink">
 <defs>
  <style type="text/css">
   <![CDATA[
    .fil6 {fill:#0085C9}
    .fil4 {fill:#2C2C2D}
    .fil8 {fill:#2E9BD3}
    .fil5 {fill:#999999}
    .fil3 {fill:#A91F8E}
    .fil7 {fill:#B6C039}
    .fil0 {fill:#E0EBF8}
    .fil1 {fill:#EBEBFA}
    .fil2 {fill:white}
   ]]>
  </style>
 </defs>
 <g id="Capa_x0020_1">
  <metadata id="CorelCorpID_0Corel-Layer"/>
  <g id="_2572006896784">
   <path class="fil0" d="M342 70c-121,-74 -311,-6 -333,47 -29,72 20,84 30,143 7,47 -39,92 -13,133 29,45 124,34 160,13 66,-40 33,-85 64,-142 30,-55 88,-33 122,-76 32,-41 11,-93 -30,-118z"/>
   <path class="fil1" d="M265 338l-143 0c-12,0 -22,-11 -22,-23l0 -288c0,-13 10,-23 22,-23l143 0c13,0 23,10 23,23l0 288c0,12 -10,23 -23,23z"/>
   <polygon class="fil2" points="100,36 288,36 288,305 100,305 "/>
   <path class="fil3" d="M288 36l0 120 -25 0c-2,0 -4,-1 -4,-3l0 -24c0,-9 -7,-16 -15,-16l-100 0c-9,0 -15,7 -15,16l0 24c0,2 -2,3 -4,3l-25 0 0 -120 188 0z"/>
   <path class="fil4" d="M122 8c-10,0 -18,8 -18,19l0 288c0,10 8,19 18,19l143 0c11,0 19,-9 19,-19l0 -288c0,-11 -8,-19 -19,-19l-143 0zm143 333l0 0 -143 0c-14,0 -26,-11 -26,-26l0 -288c0,-15 12,-27 26,-27l143 0c15,0 27,12 27,27l0 288c0,15 -12,26 -27,26z"/>
   <path class="fil5" d="M197 25l-26 0c-3,0 -4,-2 -4,-4 0,-2 1,-4 4,-4l26 0c2,0 4,2 4,4 0,2 -2,4 -4,4z"/>
   <path class="fil5" d="M218 21c0,-2 -1,-4 -3,-4 -2,0 -4,2 -4,4 0,2 2,4 4,4 2,0 3,-2 3,-4z"/>
   <path class="fil6" d="M236 227l-86 0c-8,0 -15,-6 -15,-14 0,-9 7,-15 15,-15l86 0c8,0 15,6 15,15 0,8 -7,14 -15,14z"/>
   <path class="fil7" d="M236 273l-86 0c-8,0 -15,-7 -15,-15 0,-8 7,-15 15,-15l86 0c8,0 15,7 15,15 0,8 -7,15 -15,15z"/>
   <path class="fil8" d="M156 162l76 0c2,0 4,2 4,4 0,2 -2,4 -4,4l-76 0c-2,0 -4,-2 -4,-4 0,-2 2,-4 4,-4z"/>
   <path class="fil8" d="M156 146l76 0c2,0 4,1 4,3 0,2 -2,4 -4,4l-76 0c-2,0 -4,-2 -4,-4 0,-2 2,-3 4,-3z"/>
   <path class="fil2" d="M219 95c0,-14 -11,-26 -25,-26 -14,0 -26,12 -26,26 0,14 12,25 26,25 14,0 25,-11 25,-25z"/>
   <path class="fil3" d="M194 101c-3,0 -5,-2 -5,-5 0,-3 2,-5 5,-5 3,0 5,2 5,5 0,3 -2,5 -5,5zm12 -5l0 0c0,-7 -5,-13 -12,-13 -7,0 -13,6 -13,13 0,3 2,6 4,9 -2,2 -4,5 -4,8l0 4c3,1 5,2 8,3l0 -7c0,-2 2,-5 5,-5 3,0 5,3 5,5l0 7c3,-1 5,-2 7,-3l0 -4c0,-3 -1,-6 -3,-8 2,-3 3,-6 3,-9z"/>
   <path class="fil2" d="M252 50l15 0c2,0 4,2 4,4 0,2 -2,4 -4,4l-15 0c-2,0 -4,-2 -4,-4 0,-2 2,-4 4,-4z"/>
   <path class="fil2" d="M252 63l15 0c2,0 4,2 4,4 0,2 -2,4 -4,4l-15 0c-2,0 -4,-2 -4,-4 0,-2 2,-4 4,-4z"/>
   <path class="fil2" d="M171 260l-2 -2 2 -2c1,0 1,-2 0,-2 -1,-1 -2,-1 -3,0l-2 2 -2 -2c-1,-1 -2,-1 -3,0 -1,0 -1,2 0,2l2 2 -2 2c-1,1 -1,3 0,3 1,1 2,1 3,0l2 -2 2 2c1,1 2,1 3,0 1,0 1,-2 0,-3z"/>
   <path class="fil2" d="M190 260l-2 -2 2 -2c0,0 0,-2 0,-2 -1,-1 -2,-1 -3,0l-2 2 -2 -2c-1,-1 -2,-1 -3,0 -1,0 -1,2 0,2l2 2 -2 2c-1,1 -1,3 0,3 1,1 2,1 3,0l2 -2 2 2c1,1 2,1 3,0 0,0 0,-2 0,-3z"/>
   <path class="fil2" d="M209 260l-2 -2 2 -2c0,0 0,-2 0,-2 -1,-1 -2,-1 -3,0l-2 2 -2 -2c-1,-1 -2,-1 -3,0 -1,0 -1,2 0,2l2 2 -2 2c-1,1 -1,3 0,3 1,1 2,1 3,0l2 -2 2 2c1,1 2,1 3,0 0,0 0,-2 0,-3z"/>
   <path class="fil2" d="M228 260l-2 -2 2 -2c0,0 0,-2 0,-2 -1,-1 -2,-1 -3,0l-2 2 -2 -2c-1,-1 -2,-1 -3,0 -1,0 -1,2 0,2l2 2 -2 2c-1,1 -1,3 0,3 1,1 2,1 3,0l2 -2 2 2c1,1 2,1 3,0 0,0 0,-2 0,-3z"/>
  </g>
 </g>
</svg>
